<svg width="160" height="48" viewBox="0 0 160 48" fill="none" xmlns="http://www.w3.org/2000/svg">
<path d="M154.353 0H5.64706C2.52827 0 0 2.57884 0 5.76V42.24C0 45.4212 2.52827 48 5.64706 48H154.353C157.472 48 160 45.4212 160 42.24V5.76C160 2.57884 157.472 0 154.353 0Z" fill="#F2F2F3"/>
<path d="M28.61 11.8134C29.9225 10.3358 30.6569 8.30718 30.5408 6.23828C28.7253 6.23828 26.6204 7.32126 25.2878 8.91726C24.2446 10.2371 23.1249 12.306 23.5304 14.374C25.4039 14.6108 27.4322 13.4094 28.61 11.8134Z" fill="#1C1A24"/>
<path d="M36.8113 18.3698C36.4456 18.5922 32.9945 20.6921 32.9945 25.1705C33.0031 25.4479 33.031 25.7119 33.0627 25.9711H33.0612C33.633 30.6338 37.6517 32.3014 37.7244 32.3014C37.7108 32.3187 37.6806 32.4098 37.6303 32.5625C37.3974 33.2662 36.7324 35.2754 35.2721 37.3644C33.8629 39.5522 32.2981 41.7583 29.9223 41.7583C28.8329 41.7583 28.0803 41.4194 27.3006 41.0681C26.463 40.6908 25.5944 40.2991 24.2438 40.2991C22.7501 40.2991 21.8279 40.7148 20.9671 41.1017C20.2139 41.4406 19.5078 41.7583 18.5071 41.7583C16.1314 41.7583 14.4513 39.4332 12.9647 37.2665C11.0742 34.4882 9.47152 30.1634 9.35001 25.9711C9.3489 25.9289 9.34564 25.8857 9.34239 25.8425C9.33886 25.7954 9.33533 25.7484 9.33453 25.7023C9.29506 23.4367 9.72065 21.2105 10.8018 19.319C12.327 16.6786 15.051 14.886 18.025 14.8269C19.3259 14.7822 20.5451 15.3086 21.6107 15.7686C22.4118 16.1145 23.1261 16.4229 23.7229 16.4229C24.2659 16.4229 25.0012 16.158 25.8726 15.844C27.1403 15.3873 28.6959 14.8269 30.3665 14.8269C31.583 14.8276 34.8286 15.2018 36.8375 18.3536C36.8325 18.3569 36.8237 18.3623 36.8113 18.3698Z" fill="#1C1A24"/>
<path d="M46.1562 16.3205V8.25425H48.3401C49.7114 8.25425 50.7499 8.57671 51.4558 9.22173C52.1654 9.86666 52.5202 10.8548 52.5202 12.1861C52.5202 13.4836 52.136 14.498 51.3676 15.2292C50.5993 15.9567 49.5607 16.3205 48.2518 16.3205H46.1562ZM47.0827 9.10922V15.4655H48.2628C49.2996 15.4655 50.1066 15.1954 50.6838 14.6554C51.261 14.1154 51.5496 13.2998 51.5496 12.2086C51.5496 11.1248 51.283 10.3373 50.7499 9.84612C50.2169 9.35479 49.4062 9.10922 48.3179 9.10922H47.0827ZM56.2647 16.4554C55.386 16.4554 54.6985 16.1892 54.2022 15.6567C53.7059 15.1205 53.4577 14.4042 53.4577 13.5079C53.4577 12.5817 53.7335 11.8374 54.2849 11.2748C54.8363 10.7086 55.5257 10.4255 56.353 10.4255C57.1985 10.4255 57.8676 10.7011 58.3603 11.2523C58.8566 11.7998 59.1048 12.5217 59.1048 13.418C59.1048 14.2842 58.8492 15.0079 58.3382 15.5892C57.8309 16.1667 57.1397 16.4554 56.2647 16.4554ZM56.3143 15.6567C56.8842 15.6567 57.3364 15.4636 57.6709 15.0774C58.0091 14.6873 58.1783 14.1455 58.1783 13.4517C58.1783 12.7917 58.0091 12.2573 57.6709 11.8486C57.3364 11.4361 56.8842 11.2299 56.3143 11.2299C55.7445 11.2299 55.2794 11.438 54.9191 11.8542C54.5625 12.2667 54.3842 12.8067 54.3842 13.4742C54.3842 14.1754 54.5625 14.7154 54.9191 15.0942C55.2794 15.4692 55.7445 15.6567 56.3143 15.6567ZM67.5864 10.5605L65.8934 16.3205H64.9559L63.7922 12.1974C63.7628 12.0886 63.7426 12.0173 63.7316 11.9836C63.7242 11.9461 63.7132 11.8842 63.6985 11.798H63.6764C63.6581 11.8842 63.6415 11.9479 63.6268 11.9892C63.6158 12.0304 63.5956 12.0961 63.5661 12.1861L62.3033 16.3205H61.3768L59.6672 10.5605H60.6157L61.7849 14.8185C61.8033 14.8824 61.818 14.9424 61.829 14.9985C61.84 15.0548 61.8529 15.1242 61.8676 15.2067H61.9007C61.9191 15.1205 61.9356 15.051 61.9503 14.9985C61.965 14.9424 61.9834 14.8785 62.0055 14.8073L63.3069 10.5605H64.1562L65.3254 14.8299C65.3401 14.8824 65.3547 14.9405 65.3694 15.0042C65.3842 15.0642 65.4007 15.1317 65.4191 15.2067H65.4522C65.4706 15.1317 65.4834 15.0736 65.4907 15.0323C65.5019 14.9873 65.5202 14.9198 65.5459 14.8299L66.693 10.5605H67.5864ZM73.2224 16.3205H72.3179V12.9005C72.3179 12.3342 72.2114 11.9142 71.9981 11.6405C71.7849 11.3629 71.4668 11.2242 71.0441 11.2242C70.5661 11.2242 70.1783 11.3967 69.8805 11.7417C69.5864 12.0829 69.4393 12.5142 69.4393 13.0354V16.3205H68.5349V10.5605H69.4393V11.3817H69.4614C69.6746 11.0629 69.9356 10.8248 70.2444 10.6673C70.5532 10.5061 70.9099 10.4255 71.3143 10.4255C71.932 10.4255 72.4043 10.6299 72.7316 11.0385C73.0588 11.4436 73.2224 12.0304 73.2224 12.7992V16.3205ZM74.8217 16.3205V7.79297H75.726V16.3205H74.8217ZM79.8676 16.4554C78.9889 16.4554 78.3015 16.1892 77.8051 15.6567C77.3088 15.1205 77.0606 14.4042 77.0606 13.5079C77.0606 12.5817 77.3364 11.8374 77.8878 11.2748C78.4394 10.7086 79.1287 10.4255 79.9559 10.4255C80.8014 10.4255 81.4706 10.7011 81.9632 11.2523C82.4595 11.7998 82.7077 12.5217 82.7077 13.418C82.7077 14.2842 82.4522 15.0079 81.9412 15.5892C81.4338 16.1667 80.7426 16.4554 79.8676 16.4554ZM79.9173 15.6567C80.4871 15.6567 80.9393 15.4636 81.2739 15.0774C81.6121 14.6873 81.7812 14.1455 81.7812 13.4517C81.7812 12.7917 81.6121 12.2573 81.2739 11.8486C80.9393 11.4361 80.4871 11.2299 79.9173 11.2299C79.3474 11.2299 78.8824 11.438 78.522 11.8542C78.1654 12.2667 77.9871 12.8067 77.9871 13.4742C77.9871 14.1754 78.1654 14.7154 78.522 15.0942C78.8824 15.4692 79.3474 15.6567 79.9173 15.6567ZM88.0404 16.3205H87.136V15.5554H87.1139C86.9227 15.8442 86.6801 16.0673 86.386 16.2248C86.0955 16.3785 85.7739 16.4554 85.4209 16.4554C84.8585 16.4554 84.4172 16.3017 84.0974 15.9942C83.7812 15.6867 83.6232 15.3024 83.6232 14.8411C83.6232 14.3011 83.7885 13.8829 84.1194 13.5867C84.4504 13.2867 84.9136 13.1011 85.5092 13.0299L87.136 12.8385V12.473C87.136 12.0567 87.0294 11.7455 86.8161 11.5392C86.6066 11.3292 86.3179 11.2242 85.9503 11.2242C85.6011 11.2242 85.3125 11.3048 85.0845 11.4661C84.8566 11.6236 84.682 11.8448 84.5607 12.1299L83.7721 11.798C83.9559 11.3629 84.239 11.0255 84.6213 10.7855C85.0074 10.5455 85.4668 10.4255 86 10.4255C86.6581 10.4255 87.1617 10.6055 87.511 10.9655C87.8639 11.3217 88.0404 11.8224 88.0404 12.4673V16.3205ZM87.136 13.9805V13.5867L85.5698 13.7667C85.2205 13.8079 84.9632 13.911 84.7978 14.0761C84.6323 14.2374 84.5496 14.453 84.5496 14.7229C84.5496 15.0192 84.6452 15.2574 84.8363 15.4374C85.0276 15.6136 85.2776 15.7017 85.5864 15.7017C86.0496 15.7017 86.4228 15.5405 86.7059 15.218C86.9926 14.8917 87.136 14.4792 87.136 13.9805ZM93.6158 15.4767C93.4062 15.7954 93.1378 16.0392 92.8106 16.2079C92.4871 16.373 92.1268 16.4554 91.7297 16.4554C90.9393 16.4554 90.3272 16.1985 89.8934 15.6848C89.4632 15.1673 89.2481 14.4642 89.2481 13.5754C89.2481 12.6005 89.4926 11.8317 89.9816 11.2692C90.4706 10.7067 91.1084 10.4255 91.8952 10.4255C92.2776 10.4255 92.6157 10.4967 92.9099 10.6392C93.2077 10.7817 93.443 10.9767 93.6158 11.2242H93.6379V7.79297H94.5421V16.3205H93.6379V15.4767H93.6158ZM90.1746 13.5305C90.1746 14.1829 90.3217 14.7005 90.6157 15.0829C90.9136 15.4655 91.3235 15.6567 91.8456 15.6567C92.397 15.6567 92.8327 15.473 93.1526 15.1055C93.4761 14.738 93.6379 14.2748 93.6379 13.7161V12.8667C93.6379 12.4092 93.4816 12.0211 93.1691 11.7024C92.8603 11.3836 92.4595 11.2242 91.9669 11.2242C91.4191 11.2242 90.9835 11.4211 90.6599 11.8148C90.3364 12.2086 90.1746 12.7805 90.1746 13.5305ZM101.331 16.4554C100.452 16.4554 99.7647 16.1892 99.2687 15.6567C98.7718 15.1205 98.5243 14.4042 98.5243 13.5079C98.5243 12.5817 98.8 11.8374 99.3506 11.2748C99.9021 10.7086 100.592 10.4255 101.419 10.4255C102.264 10.4255 102.934 10.7011 103.427 11.2523C103.923 11.7998 104.171 12.5217 104.171 13.418C104.171 14.2842 103.915 15.0079 103.404 15.5892C102.897 16.1667 102.206 16.4554 101.331 16.4554ZM101.381 15.6567C101.95 15.6567 102.403 15.4636 102.737 15.0774C103.076 14.6873 103.244 14.1455 103.244 13.4517C103.244 12.7917 103.076 12.2573 102.737 11.8486C102.403 11.4361 101.95 11.2299 101.381 11.2299C100.81 11.2299 100.345 11.438 99.985 11.8542C99.6283 12.2667 99.4504 12.8067 99.4504 13.4742C99.4504 14.1754 99.6283 14.7154 99.985 15.0942C100.345 15.4692 100.81 15.6567 101.381 15.6567ZM110.193 16.3205H109.288V12.9005C109.288 12.3342 109.182 11.9142 108.968 11.6405C108.756 11.3629 108.438 11.2242 108.015 11.2242C107.537 11.2242 107.149 11.3967 106.851 11.7417C106.557 12.0829 106.409 12.5142 106.409 13.0354V16.3205H105.506V10.5605H106.409V11.3817H106.432C106.645 11.0629 106.906 10.8248 107.215 10.6673C107.524 10.5061 107.88 10.4255 108.285 10.4255C108.903 10.4255 109.375 10.6299 109.703 11.0385C110.029 11.4436 110.193 12.0304 110.193 12.7992V16.3205ZM117.373 15.9548C117.208 16.1236 117.026 16.2473 116.827 16.3261C116.629 16.4048 116.395 16.4442 116.127 16.4442C115.682 16.4442 115.338 16.3185 115.096 16.0673C114.853 15.8123 114.731 15.4486 114.731 14.9761V11.3479H113.761V10.5605H114.731V9.19917L115.636 9.03607V10.5605H117.147V11.3479H115.636V14.8974C115.636 15.171 115.688 15.3699 115.79 15.4936C115.894 15.6174 116.056 15.6792 116.276 15.6792C116.386 15.6792 116.49 15.6567 116.59 15.6117C116.693 15.5667 116.8 15.4805 116.91 15.353L117.373 15.9548ZM123.163 16.3205H122.259V12.9005C122.259 12.3342 122.152 11.9142 121.939 11.6405C121.73 11.3629 121.412 11.2242 120.985 11.2242C120.507 11.2242 120.12 11.3967 119.821 11.7417C119.528 12.0829 119.381 12.5161 119.381 13.0411V16.3205H118.476V7.79297H119.381V11.3817H119.402C119.616 11.0629 119.877 10.8248 120.185 10.6673C120.494 10.5061 120.851 10.4255 121.256 10.4255C121.873 10.4255 122.345 10.6279 122.673 11.033C123 11.438 123.163 12.0267 123.163 12.7992V16.3205ZM129.39 13.6036H125.314C125.314 14.3161 125.48 14.8373 125.811 15.1673C126.145 15.4936 126.542 15.6567 127.001 15.6567C127.348 15.6567 127.651 15.5761 127.912 15.4148C128.176 15.2499 128.395 15.0061 128.568 14.6836L129.307 15.0661C129.109 15.4785 128.808 15.8142 128.408 16.073C128.011 16.3279 127.522 16.4554 126.941 16.4554C126.191 16.4554 125.576 16.2024 125.094 15.6961C124.616 15.1899 124.376 14.4455 124.376 13.4629C124.376 12.5892 124.619 11.8655 125.105 11.2917C125.59 10.7142 126.212 10.4255 126.968 10.4255C127.737 10.4255 128.332 10.6636 128.756 11.1398C129.178 11.6123 129.39 12.2723 129.39 13.1198V13.6036ZM128.463 12.833C128.463 12.3342 128.329 11.9424 128.06 11.6574C127.792 11.3686 127.423 11.2242 126.952 11.2242C126.496 11.2242 126.123 11.378 125.832 11.6855C125.546 11.993 125.375 12.3754 125.32 12.833H128.463Z" fill="#1C1A24"/>
<path d="M45.3672 38.4017L51.7477 20.9249H54.95L61.2827 38.4017H58.2238L56.7422 34.2583H49.836L48.4141 38.4017H45.3672ZM50.6007 31.7959H55.9656L53.6237 24.8618C53.5599 24.6823 53.5041 24.5239 53.4564 24.3857C53.4165 24.2397 53.3688 24.0612 53.313 23.85H53.2532C53.1895 24.0449 53.1377 24.2157 53.0979 24.3617C53.0581 24.5076 53.0063 24.6746 52.9426 24.8618L50.6007 31.7959ZM65.0115 37.098H64.9638V44.1415H62.1797V25.9217H64.9638V27.7015H65.0115C65.4974 27.0103 66.0869 26.4948 66.7799 26.153C67.4809 25.8036 68.2655 25.6289 69.1338 25.6289C70.7588 25.6289 72.0254 26.178 72.9334 27.2743C73.8415 28.3716 74.2956 29.8989 74.2956 31.8573C74.2956 33.9041 73.7857 35.5581 72.7662 36.8177C71.7545 38.0685 70.4003 38.6945 68.7037 38.6945C67.915 38.6945 67.2101 38.5601 66.5887 38.2922C65.9754 38.0234 65.4496 37.626 65.0115 37.098ZM64.9279 31.625V33.161C64.9279 34.0788 65.2266 34.8468 65.824 35.4641C66.4294 36.0823 67.1902 36.3905 68.1062 36.3905C69.1418 36.3905 69.9543 35.9882 70.5438 35.1837C71.1411 34.3802 71.4398 33.2954 71.4398 31.9303C71.4398 30.6055 71.165 29.61 70.6154 28.9437C70.0737 28.2698 69.3249 27.9329 68.3691 27.9329C67.3574 27.9329 66.529 28.2775 65.8838 28.9687C65.2465 29.6589 64.9279 30.545 64.9279 31.625ZM78.7294 37.098H78.6816V44.1415H75.8976V25.9217H78.6816V27.7015H78.7294C79.2153 27.0103 79.8047 26.4948 80.4978 26.153C81.1988 25.8036 81.9834 25.6289 82.8517 25.6289C84.4767 25.6289 85.7432 26.178 86.6513 27.2743C87.5594 28.3716 88.0134 29.8989 88.0134 31.8573C88.0134 33.9041 87.5037 35.5581 86.484 36.8177C85.4724 38.0685 84.1183 38.6945 82.4215 38.6945C81.6329 38.6945 80.9279 38.5601 80.3067 38.2922C79.6933 38.0234 79.1676 37.626 78.7294 37.098ZM78.6458 31.625V33.161C78.6458 34.0788 78.9445 34.8468 79.542 35.4641C80.1473 36.0823 80.908 36.3905 81.8241 36.3905C82.8596 36.3905 83.6721 35.9882 84.2616 35.1837C84.859 34.3802 85.1577 33.2954 85.1577 31.9303C85.1577 30.6055 84.883 29.61 84.3333 28.9437C83.7916 28.2698 83.0429 27.9329 82.087 27.9329C81.0753 27.9329 80.2469 28.2775 79.6016 28.9687C78.9644 29.6589 78.6458 30.545 78.6458 31.625ZM93.8582 35.0992L96.3318 33.8311C96.6904 34.6193 97.176 35.2087 97.7897 35.5985C98.4109 35.9882 99.1356 36.1831 99.9638 36.1831C100.952 36.1831 101.713 35.9642 102.246 35.5255C102.787 35.0868 103.058 34.4733 103.058 33.6852C103.058 32.921 102.792 32.3124 102.258 31.8573C101.725 31.4023 100.904 31.0404 99.7963 30.7725C97.9967 30.3415 96.6942 29.7319 95.8895 28.9437C95.0847 28.1479 94.6829 27.0794 94.6829 25.7393C94.6829 24.138 95.2278 22.8909 96.3196 21.9972C97.4189 21.0957 98.7732 20.6445 100.382 20.6445C101.593 20.6445 102.66 20.9162 103.585 21.4615C104.509 21.9972 105.249 22.7978 105.807 23.8615L103.405 25.0567C103.039 24.3655 102.605 23.8701 102.103 23.5697C101.601 23.2692 100.992 23.1185 100.274 23.1185C99.3822 23.1185 98.6894 23.3258 98.1953 23.7405C97.7012 24.1466 97.4546 24.6909 97.4546 25.3735C97.4546 26.0561 97.6814 26.5917 98.136 26.9815C98.5897 27.3722 99.4066 27.7053 100.585 27.9818C102.401 28.3956 103.728 29.034 104.564 29.8951C105.409 30.7562 105.83 31.914 105.83 33.3684C105.83 34.9197 105.325 36.1956 104.313 37.1949C103.301 38.1943 101.859 38.6945 99.9873 38.6945C98.5464 38.6945 97.2871 38.3815 96.2123 37.7556C95.145 37.1297 94.36 36.2445 93.8582 35.0992ZM113.921 37.5607C113.554 37.9178 113.128 38.1943 112.642 38.3892C112.157 38.5841 111.611 38.682 111.006 38.682C109.842 38.682 108.962 38.3853 108.365 37.7921C107.776 37.1911 107.48 36.3137 107.48 35.1597V28.1402H105.425V25.9217H107.48V22.8621L110.253 22.3629V25.9217H113.371V28.1402H110.253V35.0618C110.253 35.5581 110.348 35.9239 110.539 36.1591C110.738 36.3953 111.037 36.5124 111.436 36.5124C111.643 36.5124 111.845 36.4721 112.045 36.3905C112.244 36.3098 112.455 36.1514 112.678 35.9153L113.921 37.5607ZM120.625 38.6945C118.689 38.6945 117.152 38.1137 116.013 36.9511C114.874 35.7895 114.304 34.2256 114.304 32.2596C114.312 30.2685 114.917 28.6682 116.12 27.4577C117.323 26.2385 118.884 25.6289 120.804 25.6289C122.732 25.6289 124.253 26.226 125.368 27.4212C126.483 28.6154 127.041 30.1591 127.041 32.0522C127.041 33.9857 126.451 35.5783 125.273 36.8292C124.102 38.0724 122.552 38.6945 120.625 38.6945ZM120.733 36.3905C121.832 36.3905 122.684 36.0084 123.289 35.2452C123.895 34.4733 124.197 33.4337 124.197 32.1252C124.197 30.8657 123.89 29.8538 123.278 29.0906C122.672 28.3188 121.824 27.9329 120.733 27.9329C119.641 27.9329 118.769 28.3303 118.115 29.1271C117.462 29.9152 117.136 30.9386 117.136 32.1981C117.136 33.5066 117.458 34.5338 118.104 35.2817C118.749 36.0209 119.625 36.3905 120.733 36.3905ZM135.621 28.4685C135.398 28.3793 135.168 28.3101 134.929 28.2621C134.697 28.2045 134.45 28.1767 134.187 28.1767C133.367 28.1767 132.702 28.5501 132.192 29.298C131.682 30.0449 131.427 31.0202 131.427 32.2221V38.4017H128.643V25.9217H131.427V28.1767H131.475C131.761 27.3799 132.184 26.7703 132.741 26.3479C133.299 25.9178 133.944 25.7018 134.677 25.7018C134.988 25.7018 135.275 25.7268 135.537 25.7757C135.8 25.8237 136.083 25.9178 136.385 26.0561L135.621 28.4685ZM147.595 32.8567H139.147C139.17 34.0586 139.489 34.9649 140.103 35.5745C140.724 36.1754 141.485 36.4759 142.385 36.4759C143.023 36.4759 143.587 36.3261 144.081 36.0247C144.576 35.7165 144.993 35.2615 145.336 34.6605L147.475 35.8423C146.917 36.7524 146.205 37.4551 145.336 37.9505C144.476 38.4468 143.46 38.6945 142.289 38.6945C140.489 38.6945 139.047 38.1415 137.964 37.0365C136.881 35.9316 136.339 34.3428 136.339 32.2711C136.339 30.2973 136.893 28.6961 138 27.4692C139.115 26.2423 140.509 25.6289 142.182 25.6289C143.903 25.6289 145.233 26.153 146.173 27.2013C147.121 28.2497 147.595 29.7684 147.595 31.7594V32.8567ZM144.906 30.833C144.906 29.8586 144.667 29.1021 144.189 28.5665C143.712 28.0298 143.058 27.762 142.229 27.762C141.361 27.762 140.657 28.0586 140.114 28.6519C139.573 29.2365 139.247 29.9642 139.135 30.833H144.906Z" fill="#1C1A24"/>
</svg>
