<svg width="32" height="32" viewBox="0 0 32 32" fill="none" xmlns="http://www.w3.org/2000/svg">
<path d="M31.5211 19.8705C29.3839 28.442 20.7014 33.6584 12.128 31.521C3.55816 29.3841 -1.65885 20.702 0.479227 12.1312C2.61543 3.55871 11.2979 -1.65814 19.8687 0.478775C28.4415 2.61569 33.6584 11.2986 31.5211 19.8705Z" fill="black"/>
<path d="M20.4658 12.0253H22.5895H22.6053H27.3688C27.7058 12.9808 27.9179 13.9755 28 14.9848H19.0486C18.926 14.985 18.8049 14.9589 18.6932 14.9085C18.5816 14.8581 18.4822 14.7844 18.4016 14.6924L17.5402 13.7244C17.4758 13.6538 17.3974 13.5974 17.3099 13.5586C17.2224 13.5198 17.1278 13.4996 17.0321 13.4991H16.9924C16.9013 13.499 16.8112 13.5172 16.7273 13.5525C16.6434 13.5878 16.5675 13.6395 16.5041 13.7046L15.48 14.7675C15.4145 14.8361 15.3357 14.8907 15.2483 14.928C15.161 14.9654 15.0669 14.9847 14.9719 14.9848H4C4.08398 13.9757 4.29606 12.9813 4.63116 12.0253H16.254C16.4345 12.0249 16.6127 11.9864 16.777 11.9121C16.9413 11.8378 17.0878 11.7296 17.2067 11.5946L17.9451 10.7648C18.0088 10.6939 18.0867 10.6371 18.174 10.5983C18.2612 10.5594 18.3557 10.5393 18.4512 10.5393C18.5468 10.5393 18.6412 10.5594 18.7284 10.5983C18.8157 10.6371 18.8937 10.6939 18.9573 10.7648L19.8187 11.7329C19.8995 11.8246 19.999 11.8981 20.1105 11.9486C20.2221 11.999 20.3432 12.0251 20.4658 12.0253Z" fill="white"/>
<path d="M10.9133 21.1508C10.826 21.1882 10.7321 21.2077 10.6371 21.2083L5.15117 21.2162C4.68954 20.2673 4.35713 19.2614 4.16275 18.225H11.9749C12.1556 18.2252 12.3343 18.1873 12.4992 18.1137C12.6641 18.0402 12.8114 17.9326 12.9315 17.7982L13.6699 16.9684C13.7323 16.8963 13.8097 16.8384 13.8967 16.7989C13.9837 16.7593 14.0783 16.739 14.174 16.7393C14.2702 16.7394 14.3652 16.76 14.4528 16.7995C14.5404 16.839 14.6186 16.8966 14.6821 16.9684L15.5435 17.9365C15.6243 18.0269 15.7234 18.0992 15.8342 18.1489C15.945 18.1986 16.065 18.2245 16.1866 18.225H27.8372C27.6409 19.2588 27.3072 20.2621 26.8449 21.2083H14.7099C14.5874 21.2076 14.4665 21.1813 14.355 21.1309C14.2435 21.0805 14.1439 21.0072 14.0628 20.9159L13.2054 19.9478C13.141 19.8772 13.0626 19.8208 12.9752 19.782C12.8877 19.7432 12.7931 19.723 12.6973 19.7225H12.6537C12.5627 19.7231 12.4727 19.7415 12.3889 19.7768C12.3051 19.8121 12.2292 19.8635 12.1654 19.928L11.1452 20.9909C11.0794 21.0591 11.0005 21.1135 10.9133 21.1508Z" fill="white"/>
<path d="M19.5254 8.73241C19.4374 8.76975 19.3428 8.78903 19.2471 8.78908H6.36983C7.49184 7.30196 8.94606 6.09508 10.6175 5.26389C12.2889 4.4327 14.1316 4 16 4C17.8684 4 19.7111 4.4327 21.3825 5.26389C23.0539 6.09508 24.5082 7.30196 25.6302 8.78908H23.3238C23.2018 8.78846 23.0812 8.76248 22.9698 8.71281C22.8583 8.66314 22.7586 8.59087 22.6768 8.50063L21.8154 7.53254C21.753 7.46039 21.6756 7.40255 21.5886 7.36299C21.5015 7.32343 21.4069 7.30309 21.3113 7.30336H21.2676C21.1762 7.30354 21.0858 7.32219 21.0019 7.35819C20.918 7.39419 20.8423 7.44678 20.7794 7.51278L19.7592 8.57175C19.6929 8.64042 19.6134 8.69507 19.5254 8.73241Z" fill="white"/>
<path d="M11.4548 24.1718H14.6106L24.8085 24.1876C23.6819 25.3905 22.3187 26.3498 20.8036 27.0057C19.2886 27.6615 17.6541 28 16.002 28C14.3499 28 12.7154 27.6615 11.2004 27.0057C9.6853 26.3498 8.32207 25.3905 7.1955 24.1876H7.24313C7.42359 24.1875 7.60196 24.1491 7.76627 24.0748C7.93058 24.0005 8.07704 23.8921 8.19583 23.7569L8.93814 22.9113C9.00217 22.8403 9.08051 22.7835 9.16806 22.7446C9.2556 22.7057 9.35038 22.6857 9.44624 22.6857C9.5421 22.6857 9.63689 22.7057 9.72444 22.7446C9.81198 22.7835 9.89032 22.8403 9.95435 22.9113L10.8118 23.8794C10.8918 23.971 10.9905 24.0446 11.1015 24.095C11.2124 24.1454 11.3329 24.1716 11.4548 24.1718Z" fill="white"/>
</svg>
