<svg width="32" height="32" viewBox="0 0 32 32" fill="none" xmlns="http://www.w3.org/2000/svg">
<path d="M31.5211 19.8705C29.3839 28.442 20.7014 33.6584 12.128 31.521C3.55816 29.3841 -1.65885 20.702 0.479227 12.1312C2.61543 3.55871 11.2979 -1.65814 19.8687 0.478775C28.4415 2.61569 33.6584 11.2986 31.5211 19.8705Z" fill="#8FD460"/>
<path d="M16.0016 6.75816C16.3869 6.75695 16.7648 6.8636 17.0926 7.06604C17.4204 7.26848 17.685 7.55864 17.8565 7.90368L23.6898 19.5703C23.8481 19.8866 23.9229 20.238 23.9071 20.5913C23.8913 20.9445 23.7855 21.2879 23.5996 21.5887C23.4137 21.8896 23.154 22.1379 22.8452 22.3101C22.5363 22.4823 22.1885 22.5726 21.8349 22.5726H10.1683C9.81474 22.5725 9.46705 22.4821 9.15828 22.3098C8.8495 22.1376 8.58989 21.8893 8.4041 21.5885C8.21831 21.2876 8.11251 20.9443 8.09676 20.5911C8.081 20.2379 8.15582 19.8865 8.31409 19.5703L14.1468 7.90368C14.3182 7.55864 14.5828 7.26848 14.9106 7.06604C15.2384 6.8636 15.6163 6.75695 16.0016 6.75816ZM16.0016 5.33203C15.3517 5.33197 14.7147 5.51284 14.1618 5.8544C13.6089 6.19596 13.162 6.68471 12.8712 7.2659L7.03792 18.9326C6.77091 19.4662 6.64477 20.0592 6.67148 20.6554C6.69819 21.2515 6.87686 21.8309 7.19052 22.3385C7.50418 22.8461 7.94242 23.2651 8.4636 23.5557C8.98478 23.8463 9.57159 23.9988 10.1683 23.9987H21.8349C22.4316 23.9987 23.0183 23.8461 23.5394 23.5555C24.0605 23.2648 24.4987 22.8458 24.8122 22.3382C25.1258 21.8306 25.3045 21.2513 25.3311 20.6552C25.3578 20.0591 25.2317 19.4662 24.9647 18.9326L19.132 7.2659C18.8412 6.68471 18.3943 6.19596 17.8414 5.8544C17.2886 5.51284 16.6515 5.33197 16.0016 5.33203Z" fill="white"/>
</svg>
