<svg width="24" height="24" viewBox="0 0 24 24" fill="none" xmlns="http://www.w3.org/2000/svg">
<path d="M23.6408 14.9029C22.0379 21.3315 15.5261 25.2438 9.096 23.6407C2.66862 22.0381 -1.24414 15.5265 0.35942 9.09837C1.96157 2.66903 8.47343 -1.24361 14.9015 0.359081C21.3311 1.96177 25.2438 8.47393 23.6408 14.9029Z" fill="#E84142"/>
<path fill-rule="evenodd" clip-rule="evenodd" d="M10.9789 15.4004L10.9711 15.4146C10.7051 15.8804 10.5702 16.1166 10.3833 16.2943C10.1796 16.4889 9.93571 16.6303 9.66716 16.7095C9.42195 16.777 9.14819 16.777 8.59938 16.777H6.27048C5.78135 16.777 5.53869 16.777 5.39208 16.6822C5.23251 16.5784 5.1352 16.4085 5.12352 16.2191C5.11444 16.0452 5.2351 15.8324 5.4777 15.4081L11.2279 5.27387C11.4732 4.84311 11.5964 4.62774 11.7521 4.5486C11.9195 4.46297 12.1206 4.46297 12.2893 4.5486C12.445 4.62774 12.5695 4.84311 12.8135 5.27387L13.9954 7.33681L14.0019 7.34718C14.2666 7.80904 14.4002 8.0426 14.4586 8.28913C14.5235 8.55768 14.5235 8.84054 14.4586 9.10909C14.4002 9.3569 14.2666 9.59302 13.998 10.0614L10.9776 15.4004H10.9789ZM18.7051 16.6796C18.5572 16.777 18.3107 16.777 17.8177 16.777H14.4807C13.9889 16.777 13.7411 16.777 13.5958 16.6822C13.4362 16.5784 13.3389 16.4046 13.3272 16.2165C13.3181 16.0439 13.4401 15.8337 13.684 15.412L13.6892 15.4017L15.3551 12.5421C15.6003 12.1204 15.7236 11.9115 15.8767 11.8311C16.0453 11.7455 16.2426 11.7455 16.4099 11.8311C16.5618 11.9089 16.6811 12.1088 16.9159 12.5071L16.9354 12.5395L18.6065 15.3991C18.6143 15.4134 18.6234 15.4263 18.6311 15.4406C18.8634 15.8402 18.9815 16.0439 18.9724 16.2126C18.9633 16.4007 18.8634 16.5746 18.7038 16.6784L18.7051 16.6796Z" fill="white"/>
</svg>
