<svg width="174" height="24" viewBox="0 0 174 24" fill="none" xmlns="http://www.w3.org/2000/svg">
<path fill-rule="evenodd" clip-rule="evenodd" d="M9.17893 0.409627C5.76216 1.2147 2.83099 3.69365 1.31234 7.06242C0.717634 8.38195 0.518147 9.59912 0.502023 12.0008C0.482525 14.9339 0.582643 15.3771 1.75894 17.5583C3.27833 20.3766 5.66617 22.5957 8.054 23.4094C9.14368 23.7806 11.0853 24 13.2826 24C17.4426 24 18.2781 24.0015 18.2781 21.0002C18.2781 17.9989 17.422 18.0008 13.4971 17.9989C10.8851 17.9978 9.96712 17.8456 8.99407 17.2523C7.18781 16.151 6.28188 14.4235 6.28038 12.0758C6.2785 9.77311 6.90621 8.3617 8.5441 6.9833C9.66489 6.04024 15.2644 5.98024 19.6981 5.98024C25.5409 5.98024 24.0901 5.62627 25.9564 1.97589C26.715 0.0181535 25.0426 -0.0219687 20.3404 0.0181535C17.9316 0.0391521 9.95587 0.226639 9.17893 0.409627ZM30.3515 0.65786C29.9345 1.01896 27.6948 5.61689 25.3748 10.8759C22.153 18.1782 21.1485 20.8363 21.1234 22.1251L21.0904 23.8125L23.4666 23.925C24.7737 23.9869 26.0535 23.8628 26.3111 23.649C26.5684 23.4357 27.0041 22.5788 27.2789 21.7457L27.7791 20.2304L33.0284 20.3343L38.2777 20.4377L38.6384 21.5627C39.2931 23.6029 39.9186 24 42.4763 24C45.3084 24 45.9628 23.4705 45.3924 21.6414C45.1858 20.9796 43.0162 15.9909 40.5703 10.5564C37.0253 2.67822 35.9442 0.606488 35.2385 0.338381C33.7514 -0.22708 31.1805 -0.059091 30.3515 0.65786ZM49.6398 0.550992C46.6377 1.62117 44.9012 4.17024 44.9012 7.50789C44.9012 9.71911 45.4626 10.9584 47.2373 12.6634C48.8932 14.2544 50.302 14.6256 54.6817 14.6256C58.2008 14.6256 58.2897 14.6474 58.728 15.6092C59.0944 16.4128 59.0692 16.7555 58.5919 17.4841C58.0287 18.3435 57.8416 18.3754 53.3295 18.3754C49.1508 18.3754 48.5707 18.4556 47.901 19.1253C47.4368 19.5896 47.1511 20.3751 47.1511 21.1877C47.1511 22.0003 47.4368 22.7858 47.901 23.2501C48.5767 23.9258 49.1508 24 53.6887 24C59.2496 24 60.2452 23.7641 62.102 22.0085C64.5514 19.6923 65.3328 16.6869 64.1944 13.9627C62.7834 10.5853 60.4896 9.39588 55.3649 9.38426C51.5203 9.37526 50.5258 8.93991 50.5258 7.26528C50.5258 5.83625 51.2308 5.62627 56.0248 5.62627C61.1755 5.62627 61.4001 5.50965 61.4001 2.83871C61.4001 0.394253 60.5725 -0.000970158 55.4942 0.0181535C52.7446 0.0282778 50.5438 0.228514 49.6398 0.550992ZM63.7437 0.377754C63.0159 0.679608 62.9 1.00584 62.9 2.75584C62.9 3.96476 63.0972 4.94831 63.3882 5.1898C63.6567 5.41253 65.3864 5.64427 67.2317 5.70426L70.587 5.81375L70.6878 14.4085C70.7534 19.9788 70.9346 23.1784 71.2027 23.5017C71.7535 24.1654 75.42 24.1654 75.9708 23.5017C76.2389 23.1784 76.4201 19.9788 76.4857 14.4085L76.5865 5.81375L78.6489 5.70501C81.036 5.57864 81.6487 5.02668 81.6487 3.00145C81.6487 0.225514 81.5658 0.198891 72.5863 0.108522C68.1871 0.0642754 64.2079 0.185392 63.7437 0.377754ZM84.2735 0.275011C82.6649 0.887344 82.7706 3.01495 84.5397 5.63114C85.3051 6.76281 86.8237 9.1064 87.9145 10.8395L89.8981 13.9901V18.4058C89.8981 23.6217 90.1014 24 92.9035 24C95.498 24 95.8977 23.3082 95.8977 18.8201V15.3074L98.4048 11.3105C99.784 9.11203 101.64 6.18723 102.53 4.8107C104.34 2.00889 104.526 0.980712 103.336 0.343631C102.544 -0.0800897 98.9579 0.0631507 98.1701 0.550242C97.9653 0.676608 96.8513 2.54548 95.6937 4.70308C94.5366 6.86068 93.4761 8.62344 93.3374 8.62044C93.199 8.61744 92.2417 7.00167 91.2105 5.02968C88.792 0.404752 88.3979 -0.00584452 86.415 0.0312779C85.5465 0.0474018 84.5829 0.157269 84.2735 0.275011ZM112.303 0.260012C111.942 0.354506 111.555 0.79885 111.442 1.24807C111.329 1.69691 111.287 6.83743 111.348 12.6713C111.442 21.608 111.548 23.334 112.022 23.6333C112.829 24.1429 116.288 24.0829 116.821 23.55C117.099 23.2722 117.271 21.9084 117.271 19.9878V16.8755H119.946C121.418 16.8755 123.264 16.6828 124.05 16.4476C128.368 15.1536 131.192 9.54175 129.624 5.36941C128.935 3.53691 126.274 1.15658 124.238 0.551742C122.479 0.0297779 113.98 -0.178333 112.303 0.260012ZM138.11 0.845347C136.503 3.29805 128.46 22.079 128.599 23.0513C128.694 23.7184 129.025 23.8264 131.273 23.9243C134.216 24.0521 134.705 23.7848 135.328 21.7055L135.764 20.2503H140.917H146.071L146.487 21.4446C147.216 23.5354 147.906 24 150.281 24C152.78 24 153.478 23.4533 153.14 21.7614C152.782 19.9739 144.286 0.985212 143.614 0.470372C143.277 0.21239 142.025 0.00165478 140.832 0.00165478C138.995 0.00165478 138.577 0.131396 138.11 0.845347ZM151.583 0.750103C150.811 1.60279 150.27 0.550617 156.403 10.1192L159.643 15.1746V19.1373C159.643 21.7194 159.8 23.2568 160.093 23.55C160.677 24.1339 164.234 24.1339 164.818 23.55C165.114 23.2542 165.268 21.6782 165.268 18.9521V14.8041L168.836 9.24814C173.709 1.66054 173.732 1.61067 172.924 0.717481C172.417 0.157644 171.762 0.00165478 169.916 0.00165478C167.688 0.00165478 167.505 0.0699 166.653 1.22032C166.157 1.89077 165.01 3.83089 164.103 5.53215C163.197 7.23341 162.371 8.62306 162.268 8.62006C162.165 8.61744 161.237 6.9818 160.206 4.98506C157.701 0.134771 157.552 0.00165478 154.639 0.00165478C152.738 0.00165478 152.124 0.15202 151.583 0.750103ZM123.408 6.40359C124.558 7.30878 124.738 9.09478 123.812 10.4173C123.292 11.1598 122.903 11.2509 120.25 11.2509H117.271V8.68868C117.271 7.27915 117.384 6.01362 117.521 5.87637C117.659 5.73876 118.817 5.62627 120.096 5.62627C121.879 5.62627 122.649 5.807 123.408 6.40359ZM143.892 14.7194C143.893 14.8743 142.527 15.0006 140.855 15.0006C138.569 15.0006 137.863 14.8844 138.008 14.5319C138.114 14.2743 138.834 12.5824 139.608 10.7728L141.014 7.48201L142.452 10.9603C143.242 12.873 143.891 14.5645 143.892 14.7194ZM34.2992 10.3134C34.724 11.3446 35.3454 12.8213 35.6795 13.5945L36.2869 15.0006H33.1293H29.9716L31.185 12.0946C31.8525 10.4961 32.5173 8.86492 32.6624 8.4697C32.9935 7.56863 33.3179 7.93386 34.2992 10.3134Z" fill="#282432"/>
<path fill-rule="evenodd" clip-rule="evenodd" d="M92.7714 7.83381C91.6048 7.62405 90.4018 6.95442 89.2084 5.826C87.945 4.63 86.912 3.842 86.914 4.076C86.916 4.309 88.0334 6.714 89.3971 9.419C90.7608 12.125 91.8761 15.388 91.8761 16.669C91.8761 17.951 92.3231 19 92.8694 19C93.4156 19 93.8705 18.212 93.8804 17.25C93.8904 16.288 95.2322 13.064 96.8631 10.086C100.053 4.257 100.226 2.787 97.3448 5.994C96.2871 7.17041 95.111 7.80333 93.875 7.89414C93.5876 8.35208 93.392 8.62161 93.3376 8.62044C93.2786 8.61916 93.0706 8.32444 92.7714 7.83381ZM161.807 7.93436C160.382 7.94367 159 7.3032 158.191 6C157.03 4.129 154.881 3.095 155.608 4.757C155.79 5.174 157.271 8.211 158.9 11.507L161.862 17.5L165.052 11.027C168.248 4.544 168.651 1.7 165.791 5.81C165.039 6.89103 163.959 7.56241 162.824 7.81746C162.524 8.31681 162.317 8.62147 162.268 8.62006C162.228 8.61903 162.059 8.36453 161.807 7.93436ZM143.569 14.8454C143.776 14.8075 143.892 14.7646 143.892 14.7194C143.892 14.6853 143.86 14.577 143.803 14.4083C144.974 12.0521 144.537 10.0812 142.53 9C142.158 8.79968 141.804 8.65216 141.459 8.55744L141.014 7.48201L140.609 8.43066C139.947 8.4173 139.287 8.60708 138.557 9C136.194 10.273 136.012 12.751 138.063 15.699C139.483 17.741 139.385 17.9 136.01 19.021C134.06 19.669 132.308 20.041 132.115 19.848C131.924 19.654 133.37 15.784 135.33 11.248C139.223 2.24 141.688 0.601 143.601 5.75C144.163 7.263 145.716 10.726 147.052 13.446C150.488 20.438 150.301 21.163 145.549 19.283C141.832 17.813 141.694 17.612 143.065 15.641C143.253 15.372 143.42 15.1066 143.569 14.8454ZM33.3864 8.36392C33.8912 8.35226 34.4318 8.55229 35.1417 8.935C37.6357 10.279 37.9376 14.18 35.6929 16.056C34.3292 17.195 34.5984 17.582 37.8562 19.178C39.9032 20.18 41.7208 21 41.8966 21C42.8987 21 41.9065 17.161 39.8624 13.135C38.5683 10.586 37.0139 7.263 36.4071 5.75C34.4077 0.76 32.0488 2.27 27.9945 11.134C25.9475 15.608 24.4815 19.478 24.7358 19.734C25.2642 20.266 32.2832 18.084 32.2832 17.387C32.2832 17.1725 31.7421 16.159 31.02 15.0006H29.9719L30.3856 14.0097C29.0867 11.9717 29.2084 11.6519 31.0129 9.835C31.6564 9.18716 32.1592 8.76576 32.6339 8.54634C32.6451 8.51716 32.6547 8.49154 32.6627 8.4697C32.8597 7.93351 33.0543 7.84571 33.3864 8.36392ZM3.88919 9.617C4.6043 5.777 6.04943 4.247 10.1206 3.017C14.0786 1.82 21.3579 1.81 21.3579 3C21.3579 3.55 18.8649 4 15.8187 4C10.9788 4 9.90112 4.382 7.27506 7.025C4.86949 9.447 4.39672 10.594 4.90624 12.775C5.67102 16.055 9.80279 20 12.4745 20C13.5363 20 14.4054 20.45 14.4054 21C14.4054 22.359 12.9652 22.257 9.08172 20.623C5.10191 18.949 2.98636 14.465 3.88919 9.617ZM71.0186 5.727C69.9261 4.329 69.0322 2.918 69.0322 2.592C69.0322 2.267 70.82 2 73.0051 2C77.0365 2 78.1469 3.423 75.8884 5.697C75.2894 6.3 74.4512 9.202 74.0261 12.147C73.6244 14.9297 73.4315 16.2659 73.3214 16.2591C73.2198 16.2528 73.1888 15.1009 73.1292 12.885C73.0497 9.936 72.2879 7.352 71.0186 5.727ZM113.383 16.26C112.517 10.02 112.718 4.725 113.872 3.324C115.026 1.924 117.916 1.551 119.018 2.66C119.378 3.023 118.782 3.949 117.694 4.717C115.135 6.521 115.153 10.492 117.728 12.307C119.717 13.71 119.706 13.767 116.824 16.874C115.315 18.5001 114.586 19.2857 114.162 19.146C113.765 19.0154 113.635 18.0765 113.383 16.26ZM49.9565 10.77C48.2124 10.191 47.7466 6.225 49.2136 4.445C49.8681 3.65 51.052 3 51.8436 3C53.0216 3 52.9868 3.298 51.6499 4.644C50.5783 5.722 50.2276 7.131 50.6289 8.742C51.0659 10.494 50.8732 11.074 49.9565 10.77ZM124.741 11.227C125.968 9.236 125.932 8.583 124.442 5.962C122.785 3.047 122.791 2.997 124.69 4.02C127.118 5.329 127.298 10.206 124.989 12.128C123.478 13.385 123.457 13.309 124.741 11.227ZM57.9658 19.387C59.7059 18.16 60.1042 17.18 59.6324 15.289C59.1894 13.509 59.3781 12.925 60.2979 13.23C62.0419 13.809 62.5078 17.775 61.0408 19.555C60.3862 20.35 58.9113 21 57.7642 21C55.7281 21 55.733 20.961 57.9658 19.387Z" fill="url(#paint0_linear_509_199)" fill-opacity="0.41"/>
<defs>
<linearGradient id="paint0_linear_509_199" x1="85.6977" y1="2" x2="85.6977" y2="21.9411" gradientUnits="userSpaceOnUse">
<stop stop-color="white"/>
<stop offset="1" stop-color="white" stop-opacity="0"/>
</linearGradient>
</defs>
</svg>
