<svg width="16" height="16" viewBox="0 0 16 16" fill="none" xmlns="http://www.w3.org/2000/svg">
<path d="M6 10V11.4C6 11.9601 6 12.2401 6.10899 12.454C6.20487 12.6422 6.35785 12.7951 6.54601 12.891C6.75992 13 7.03995 13 7.6 13H11.4C11.9601 13 12.2401 13 12.454 12.891C12.6422 12.7951 12.7951 12.6422 12.891 12.454C13 12.2401 13 11.9601 13 11.4V7.6C13 7.03995 13 6.75992 12.891 6.54601C12.7951 6.35785 12.6422 6.20487 12.454 6.10899C12.2401 6 11.9601 6 11.4 6H10M4.6 10H8.4C8.96005 10 9.24008 10 9.45399 9.89101C9.64215 9.79513 9.79513 9.64215 9.89101 9.45399C10 9.24008 10 8.96005 10 8.4V4.6C10 4.03995 10 3.75992 9.89101 3.54601C9.79513 3.35785 9.64215 3.20487 9.45399 3.10899C9.24008 3 8.96005 3 8.4 3H4.6C4.03995 3 3.75992 3 3.54601 3.10899C3.35785 3.20487 3.20487 3.35785 3.10899 3.54601C3 3.75992 3 4.03995 3 4.6V8.4C3 8.96005 3 9.24008 3.10899 9.45399C3.20487 9.64215 3.35785 9.79513 3.54601 9.89101C3.75992 10 4.03995 10 4.6 10Z" stroke="#1C1A24" stroke-width="1.4" stroke-linecap="round" stroke-linejoin="round"/>
</svg>
