<svg width="40" height="40" viewBox="0 0 40 40" fill="none" xmlns="http://www.w3.org/2000/svg">
<rect width="40" height="40" rx="8" fill="#CE3B3B" fill-opacity="0.16"/>
<path d="M13.332 15.8333H26.6654M18.332 19.1667V24.1667M21.6654 19.1667V24.1667M14.1654 15.8333L14.9987 25.8333C14.9987 26.2754 15.1743 26.6993 15.4869 27.0118C15.7994 27.3244 16.2233 27.5 16.6654 27.5H23.332C23.7741 27.5 24.198 27.3244 24.5105 27.0118C24.8231 26.6993 24.9987 26.2754 24.9987 25.8333L25.832 15.8333M17.4987 15.8333V13.3333C17.4987 13.1123 17.5865 12.9004 17.7428 12.7441C17.8991 12.5878 18.111 12.5 18.332 12.5H21.6654C21.8864 12.5 22.0983 12.5878 22.2546 12.7441C22.4109 12.9004 22.4987 13.1123 22.4987 13.3333V15.8333" stroke="#CE3B3B" stroke-width="1.4" stroke-linecap="round" stroke-linejoin="round"/>
</svg>
