<svg width="24" height="24" viewBox="0 0 24 24" fill="none" xmlns="http://www.w3.org/2000/svg">
<path d="M23.6408 14.9029C22.0379 21.3315 15.5261 25.2438 9.096 23.6407C2.66862 22.0381 -1.24414 15.5265 0.35942 9.09837C1.96157 2.66903 8.47343 -1.24361 14.9015 0.359081C21.3311 1.96177 25.2438 8.47393 23.6408 14.9029Z" fill="#1969FF"/>
<path d="M11.3502 4.64369C11.7148 4.4521 12.2695 4.4521 12.6341 4.64369L16.3542 6.59862C16.5738 6.71401 16.6944 6.88594 16.716 7.06344H16.7195V16.89C16.7147 17.0836 16.593 17.2759 16.3542 17.4014L12.6341 19.3563C12.2695 19.5479 11.7148 19.5479 11.3502 19.3563L7.63014 17.4014C7.3924 17.2765 7.2783 17.0827 7.27265 16.89C7.27209 16.871 7.27202 16.8552 7.27256 16.842L7.27254 7.12655C7.27216 7.11591 7.27213 7.10528 7.27243 7.0947L7.27265 7.06344L7.27432 7.06342C7.29084 6.88399 7.40595 6.71644 7.63014 6.59862L11.3502 4.64369ZM16.1339 12.5456L12.6341 14.3848C12.2695 14.5764 11.7148 14.5764 11.3502 14.3848L7.85812 12.5497V16.8705L11.3502 18.6959C11.5474 18.8008 11.7521 18.903 11.9522 18.916L11.9922 18.9173C12.2007 18.918 12.4032 18.8127 12.6085 18.7129L16.1339 16.8548V12.5456ZM6.66758 16.6763C6.66758 17.0527 6.71156 17.3002 6.79888 17.4746C6.87125 17.6191 6.97985 17.7295 7.17813 17.8639L7.18945 17.8715C7.23297 17.9007 7.2809 17.9313 7.33925 17.9672L7.40806 18.0091L7.61936 18.136L7.31631 18.6345L7.0798 18.4924L7.04005 18.4681C6.97167 18.4261 6.91499 18.3901 6.86213 18.3546C6.29701 17.9755 6.08625 17.5623 6.08209 16.7025L6.08203 16.6763H6.66758ZM11.6993 9.9118C11.6722 9.92106 11.6469 9.93176 11.6237 9.94392L7.90361 11.8989C7.89971 11.9009 7.89598 11.9029 7.89244 11.9049L7.88929 11.9068L7.89513 11.9101L7.90361 11.9147L11.6237 13.8696C11.6469 13.8818 11.6722 13.8925 11.6993 13.9017V9.9118ZM12.285 9.9118V13.9017C12.3121 13.8925 12.3375 13.8818 12.3606 13.8696L16.0807 11.9147C16.0847 11.9126 16.0884 11.9106 16.0919 11.9086L16.0951 11.9068L16.0892 11.9034L16.0807 11.8989L12.3606 9.94392C12.3375 9.93176 12.3121 9.92106 12.285 9.9118ZM16.1339 7.7605L12.7967 9.51421L16.1339 11.2679V7.7605ZM7.85812 7.7646V11.2638L11.1875 9.51421L7.85812 7.7646ZM12.3606 5.15885C12.1672 5.05718 11.8172 5.05718 11.6237 5.15885L7.90361 7.11379C7.89971 7.11584 7.89598 7.11787 7.89244 7.11987L7.88929 7.12169L7.89513 7.12502L7.90361 7.1296L11.6237 9.08454C11.8172 9.1862 12.1672 9.1862 12.3606 9.08454L16.0807 7.1296C16.0847 7.12755 16.0884 7.12552 16.0919 7.12351L16.0951 7.12169L16.0892 7.11836L16.0807 7.11379L12.3606 5.15885ZM16.6837 5.37323L16.9202 5.51534L16.9599 5.53962C17.0283 5.58162 17.085 5.6177 17.1378 5.65316C17.703 6.03222 17.9137 6.44551 17.9178 7.30524L17.9179 7.33143H17.3324C17.3324 6.95493 17.2884 6.70748 17.2011 6.53314C17.1287 6.38865 17.0201 6.27822 16.8218 6.14386L16.8105 6.13623C16.767 6.10704 16.7191 6.07646 16.6607 6.04052L16.5919 5.99859L16.3806 5.87172L16.6837 5.37323Z" fill="white"/>
</svg>
