<svg width="54" height="54" viewBox="0 0 54 54" fill="none" xmlns="http://www.w3.org/2000/svg">
<rect width="54" height="54" rx="27" fill="white"/>
<path fill-rule="evenodd" clip-rule="evenodd" d="M26.2943 14.0093C24.5001 14.1464 23.06 14.537 21.5589 15.2935C19.212 16.4762 17.3374 18.3701 16.1481 20.76C15.5036 22.0551 15.128 23.3531 14.9468 24.9113C14.8984 25.3277 14.8832 26.6611 14.9218 27.109C14.9548 27.4926 14.8537 27.4604 16.026 27.4604C16.8693 27.4604 17.0154 27.4549 17.0427 27.4219C17.0678 27.3916 17.0684 27.3239 17.0457 27.1062C16.7905 24.6609 17.5083 22.1113 19.0154 20.1102C19.5927 19.3436 20.4283 18.5262 21.1873 17.9854C22.8291 16.8158 24.6516 16.1955 26.6792 16.1164C27.1159 16.0993 27.8945 16.1335 28.2447 16.1852C29.6408 16.3911 30.7518 16.7553 31.8265 17.3596C34.4838 18.8538 36.296 21.3795 36.8386 24.3449C36.9825 25.1313 37.0572 26.3362 36.9556 26.2329C36.9441 26.2212 36.9049 26.0489 36.8685 25.8499C36.7463 25.1822 36.6053 24.7457 36.3392 24.2123C35.5261 22.5824 33.9339 21.4428 32.1151 21.1893C31.6935 21.1305 30.8307 21.1484 30.4132 21.2245C29.5641 21.3794 28.7638 21.7277 28.0607 22.2484C27.8386 22.413 27.5646 22.6649 27.5646 22.7045C27.5646 22.7186 27.6094 22.8011 27.6641 22.8881C27.7188 22.975 27.8056 23.1298 27.8569 23.232C27.9699 23.4572 28.0173 23.4695 28.1689 23.3135C28.3219 23.156 28.756 22.825 29.0017 22.6786C29.4738 22.3972 30.0469 22.1897 30.6341 22.0876C30.984 22.0268 31.7662 22.0268 32.1198 22.0876C33.6452 22.3502 34.9154 23.2957 35.5841 24.6667C35.9407 25.398 36.0778 26.0532 36.0526 26.907C36.0418 27.2754 36.046 27.3874 36.0716 27.4087C36.0935 27.4269 36.5818 27.4416 37.5276 27.4524C39.2118 27.4717 39.0438 27.5089 39.0782 27.109C39.1173 26.6557 39.1015 25.328 39.0519 24.8985C38.8188 22.8769 38.1695 21.0567 37.116 19.4711C36.8343 19.0472 36.7595 18.9444 36.456 18.5643C35.4622 17.3196 34.3121 16.339 32.8967 15.5295C32.5847 15.3511 31.874 15.0136 31.491 14.8621C30.4416 14.4467 29.4655 14.1996 28.3601 14.0696C27.9312 14.0191 26.6536 13.9818 26.2943 14.0093ZM23.2391 15.2533C23.2257 15.2661 22.926 15.4218 22.5731 15.5991C21.166 16.3064 20.2244 16.9433 19.1661 17.9034C18.102 18.8687 17.265 19.9603 16.5374 21.3318C16.391 21.6077 16.2588 21.8452 16.2437 21.8597C16.1438 21.9547 16.4508 21.1525 16.7142 20.63C17.2156 19.6354 17.8098 18.8131 18.6081 18.0088C19.3546 17.2567 20.0524 16.717 20.9459 16.2006C21.5879 15.8295 22.5472 15.4001 23.0479 15.2597C23.1662 15.2265 23.2706 15.223 23.2391 15.2533ZM25.2293 19.1077C24.5636 19.1888 24.0593 19.3506 23.5459 19.6476C23.0118 19.9567 22.5404 20.4013 22.1833 20.9332C21.9367 21.3004 21.6888 21.8917 21.6003 22.3236C21.5354 22.6403 21.4993 23.0304 21.5288 23.0954C21.5552 23.1534 21.744 23.2377 21.8476 23.2377C21.8939 23.2377 22.034 23.1067 22.1157 22.9872C22.1373 22.9556 22.1768 22.7992 22.2035 22.6396C22.2856 22.1499 22.4757 21.667 22.7558 21.237C22.8917 21.0283 23.4331 20.4912 23.664 20.3358C24.2453 19.9448 24.8727 19.7536 25.5757 19.7532C26.1576 19.7528 26.537 19.8354 27.0499 20.0741C27.43 20.251 27.7314 20.4737 28.0718 20.8291C28.298 21.0653 28.3972 21.1518 28.4412 21.1512C28.4742 21.1507 28.5937 21.1014 28.7066 21.0417C28.9625 20.9064 28.97 20.8776 28.8059 20.6611C28.2383 19.9122 27.2576 19.3244 26.2943 19.1556C26.0676 19.1159 25.4061 19.0861 25.2293 19.1077ZM25.2618 20.0457C24.2057 20.1571 23.2574 20.813 22.784 21.7595C22.6212 22.0851 22.5269 22.3973 22.5764 22.447C22.5971 22.4678 22.7204 22.404 22.766 22.3488C22.8177 22.2863 23.2399 21.996 23.4328 21.8902C23.9781 21.5913 24.6228 21.4543 25.2044 21.5136C25.7649 21.5708 26.2243 21.7377 26.7551 22.0771C26.8675 22.149 26.9748 22.2077 26.9936 22.2077C27.0124 22.2077 27.0822 22.1575 27.1487 22.096C27.3097 21.9471 27.7179 21.6257 27.919 21.4894C28.0081 21.4291 28.0874 21.3629 28.0953 21.3424C28.1168 21.2861 27.9901 21.1203 27.7538 20.8959C27.2528 20.4201 26.6137 20.125 25.9149 20.0468C25.6439 20.0165 25.5404 20.0163 25.2618 20.0457ZM24.4337 22.2569C24.0038 22.3529 23.6033 22.5625 23.1903 22.9076C22.9195 23.1339 22.5218 23.5712 22.3149 23.8702C22.2372 23.9826 22.1517 24.0846 22.125 24.0969C22.0901 24.113 22.0162 24.0935 21.8628 24.0276C20.3298 23.3689 19.1647 23.4305 18.3171 24.2151C17.9372 24.5667 17.6074 25.1591 17.45 25.7725C17.3911 26.0022 17.3967 26.2847 17.4677 26.6622C17.5149 26.9129 17.6533 27.3162 17.715 27.3827C17.7632 27.4345 17.78 27.4347 22.4202 27.4347C26.9152 27.4347 27.0786 27.433 27.1244 27.3871C27.1771 27.3343 27.3244 26.8919 27.4225 26.4923C27.55 25.9724 27.5753 25.7553 27.5754 25.1817C27.5754 24.7188 27.5673 24.6032 27.5184 24.378C27.4498 24.062 27.3437 23.7654 27.1986 23.4844C26.9551 23.0128 26.2321 22.4856 25.5629 22.2916C25.2577 22.2032 24.745 22.1874 24.4337 22.2569ZM31.1446 22.4311C30.7539 22.4557 30.3279 22.5448 29.9196 22.6874C29.3562 22.8842 28.8399 23.2102 28.376 23.6622C28.148 23.8844 28.148 23.8844 28.163 24.0109C28.1803 24.1579 28.2189 24.2419 28.2691 24.2419C28.2885 24.2419 28.3702 24.1668 28.4505 24.075C28.8339 23.6368 29.6504 23.0892 29.9911 23.0417C30.0924 23.0276 30.0924 23.0276 30.0131 23.1005C29.9696 23.1405 29.8252 23.2481 29.6924 23.3395C29.3698 23.5614 28.8426 24.0937 28.5819 24.4607C28.2816 24.8834 28.2921 24.8517 28.2759 25.3877C28.2606 25.8938 28.1976 26.2976 28.0492 26.8425C27.9167 27.3291 27.9074 27.3827 27.9506 27.4101C27.9712 27.4232 28.2627 27.4341 28.5984 27.4343C29.3036 27.4347 29.1942 27.4779 29.4905 27.0826C29.5879 26.9527 29.6784 26.8397 29.6916 26.8315C29.7419 26.8003 29.7876 26.8495 29.885 27.0394C29.9402 27.1473 30.0279 27.2804 30.0799 27.3351C30.1725 27.4328 30.1778 27.4347 30.3596 27.4347C30.4615 27.4347 30.5661 27.4233 30.592 27.4094C30.6405 27.3833 30.9465 27.0025 30.9993 26.9023C31.0247 26.8541 31.0077 26.8041 30.8763 26.5419C30.6466 26.0831 30.5957 25.8066 30.6852 25.5018C30.8101 25.0756 31.1591 24.7658 31.5895 24.699C31.8139 24.6642 32.0233 24.6958 32.2975 24.8059C32.4104 24.8513 32.5109 24.8774 32.5302 24.8664C32.549 24.8557 32.6127 24.7859 32.6718 24.7113C32.8271 24.5153 32.8597 24.5035 32.9888 24.597C33.136 24.7037 33.1396 24.7743 33.007 24.9505C32.8796 25.1197 32.8737 25.1975 32.982 25.2775C33.0874 25.3553 33.3516 25.6691 33.4027 25.7772C33.4521 25.8816 33.4385 25.9123 33.2162 26.1988C33.0252 26.4449 32.9801 26.455 32.8878 26.2723C32.7442 25.988 32.5344 25.7513 32.4385 25.7654C32.3724 25.775 31.799 26.5118 31.799 26.587C31.799 26.611 31.8516 26.7299 31.9158 26.8511C31.9801 26.9723 32.0609 27.1438 32.0955 27.2323C32.13 27.3207 32.1727 27.4023 32.1904 27.4135C32.2313 27.4395 35.5226 27.4405 35.5634 27.4145C35.6227 27.3766 35.6507 27.2418 35.6656 26.9217C35.7093 25.9847 35.4255 25.0119 34.8839 24.2419C34.6715 23.9398 34.2236 23.4834 33.9162 23.2557C33.4758 22.9295 32.8297 22.6389 32.2785 22.5191C32.0717 22.4741 31.385 22.4037 31.2985 22.4186C31.2844 22.421 31.2151 22.4267 31.1446 22.4311ZM19.6692 24.1675C19.7555 24.2069 19.7917 24.2962 19.7626 24.3979C19.6613 24.7523 18.9564 25.2778 18.5302 25.3165C18.3954 25.3288 18.3755 25.3239 18.3153 25.2635C18.2323 25.1802 18.2323 25.1353 18.3149 24.9689C18.4636 24.6694 18.9146 24.3211 19.3268 24.1874C19.4929 24.1335 19.5834 24.1283 19.6692 24.1675ZM31.643 25.4334C31.4976 25.5317 31.4396 25.6429 31.4401 25.8228C31.4408 26.1189 31.5506 26.2035 31.6873 26.0131C31.731 25.9524 31.8317 25.8177 31.9111 25.7138C31.9906 25.6099 32.0556 25.5092 32.0556 25.4899C32.0556 25.3738 31.7859 25.3368 31.643 25.4334ZM12.8469 28.2686C12.5282 28.3464 12.2555 28.5741 12.0978 28.8942C12 29.0928 12 29.0928 12 29.4675C12 29.836 12.0014 29.8451 12.0825 30.017C12.1798 30.223 12.3959 30.4615 12.573 30.5582C12.8638 30.717 11.655 30.7048 27 30.7048C39.4963 30.7048 41.0174 30.7005 41.1522 30.6653C41.4916 30.5766 41.7417 30.3693 41.9022 30.0434C42 29.8449 42 29.8449 42 29.4702C42 29.0955 42 29.0955 41.9048 28.8955C41.7531 28.5767 41.4932 28.3615 41.1522 28.2724C41.0174 28.2371 39.4997 28.2331 26.9882 28.2351C16.0809 28.2368 12.9468 28.2442 12.8469 28.2686ZM16.0166 28.8122C16.0946 28.8827 16.1165 28.9531 16.0869 29.0382C16.035 29.1876 16.0586 29.1856 14.3731 29.1856C12.8301 29.1856 12.8301 29.1856 12.7551 29.1103C12.6731 29.0281 12.6639 28.9736 12.7159 28.8794C12.7894 28.7464 12.7586 28.7486 14.4161 28.7549C15.9192 28.7606 15.9611 28.7621 16.0166 28.8122ZM14.5086 31.3913C14.4514 31.4144 14.4734 31.5108 14.6665 32.0844C15.5824 34.8049 16.5477 37.2859 17.1899 38.5699C17.5684 39.3267 17.9353 39.8531 18.158 39.9591C18.2359 39.9962 19.054 40 27 40C35.0343 40 35.7634 39.9966 35.8442 39.9581C35.9718 39.8973 36.2013 39.6326 36.3915 39.3266C36.5613 39.0536 37.0732 38.055 37.1617 37.8242C37.1888 37.7534 37.2696 37.5653 37.3411 37.4061C37.5115 37.0273 37.9986 35.8096 38.2657 35.0949C38.7974 33.6722 39.5235 31.5754 39.5235 31.4629C39.5235 31.4313 39.5053 31.3985 39.4829 31.3899C39.4343 31.3711 14.5548 31.3726 14.5086 31.3913ZM19.6344 31.9993C19.7523 32.0618 19.84 32.1907 19.84 32.3012C19.84 32.4117 19.7523 32.5405 19.6344 32.6031C19.524 32.6617 19.524 32.6617 17.9647 32.6617C17.1071 32.6617 16.3871 32.6687 16.3648 32.6773C16.3425 32.6859 16.3242 32.7183 16.3242 32.7494C16.3242 32.7804 16.5783 33.4851 16.8888 34.3155C17.1993 35.1458 17.4534 35.8579 17.4534 35.8981C17.4534 36.0717 17.2845 36.2406 17.1108 36.2407C17.0013 36.2407 16.8701 36.1681 16.8151 36.0771C16.7883 36.0325 16.4635 35.185 16.0935 34.1937C15.4826 32.5571 15.4218 32.38 15.4325 32.2682C15.4456 32.1314 15.5164 32.034 15.6441 31.9771C15.706 31.9495 16.0953 31.9425 17.6226 31.9417C19.524 31.9407 19.524 31.9407 19.6344 31.9993Z" fill="#1C1A24"/>
</svg>
