<svg width="114" height="114" viewBox="0 0 114 114" fill="none" xmlns="http://www.w3.org/2000/svg">
<path fill-rule="evenodd" clip-rule="evenodd" d="M24.6168 18.5772C23.9963 18.894 23.2668 19.4622 22.9955 19.8399C22.7244 20.2176 20.7797 25.3645 18.6744 31.2776C15.7313 39.5434 14.8847 42.2289 15.0122 42.895C15.288 44.3339 16.3726 45.9646 17.6634 46.8803C18.7461 47.6485 19.1522 47.7575 21.2673 47.8469C24.7394 47.9938 25.3542 47.8071 27.2604 46.0261C28.1744 45.1716 29.0427 44.4728 29.1899 44.4728C29.3371 44.4728 29.8543 44.9712 30.3394 45.5803C31.7007 47.2902 33.2041 47.8885 36.1387 47.8885C39.0339 47.8885 40.235 47.4029 41.7457 45.621C42.2815 44.9897 42.8819 44.4728 43.0802 44.4728C43.2784 44.4728 43.9291 45.0329 44.5264 45.7178C46.0772 47.4959 47.071 47.8885 50.022 47.8885C52.9744 47.8885 54.4738 47.2933 55.8379 45.5803C56.323 44.9712 56.8783 44.4728 57.0717 44.4728C57.2655 44.4728 57.8182 44.9752 58.2999 45.5889C59.6479 47.3069 61.1144 47.8885 64.0987 47.8885C67.0829 47.8885 68.5494 47.3069 69.8974 45.5889C70.3791 44.9752 70.8845 44.4728 71.0204 44.4728C71.1561 44.4728 71.7345 44.9826 72.3056 45.6054C73.9012 47.3462 75.2678 47.8885 78.0584 47.8885C80.8681 47.8885 82.3461 47.2956 83.7954 45.5863C84.3148 44.9737 84.8377 44.4728 84.957 44.4728C85.0765 44.4728 85.9223 45.1716 86.8363 46.0261C88.7424 47.8071 89.3572 47.9938 92.8294 47.8469C94.9448 47.7575 95.3509 47.6485 96.4358 46.8797C97.8828 45.8538 98.9395 44.0703 98.9993 42.552C99.0314 41.7382 97.9809 38.8238 94.8647 31.083C92.5668 25.3753 90.3908 20.307 90.0287 19.8203C88.5902 17.8855 90.7151 18.0011 56.5827 18.0014C26.1893 18.0017 25.7285 18.0099 24.6168 18.5772ZM24.258 49.3771C23.9058 49.5485 23.5519 49.9561 23.4715 50.2832C23.3911 50.6099 23.3624 59.7244 23.4072 70.538C23.4887 90.1987 23.4887 90.1987 24.3376 91.8738C25.2803 93.734 26.9577 95.2229 28.6425 95.6951C30.092 96.1016 84.0046 96.1016 85.4542 95.6951C87.1389 95.2229 88.8163 93.734 89.7591 91.8738C90.608 90.1987 90.608 90.1987 90.6875 70.2115C90.7746 48.347 90.8621 49.5656 89.1745 49.138C87.5915 48.737 87.6468 48.0427 87.6468 68.3132C87.6468 81.7824 87.5546 87.2709 87.3152 88.0779C86.9054 89.4578 85.1541 91.512 83.9175 92.0628C83.1315 92.4132 79.0761 92.4702 56.7299 92.4437C30.4663 92.4127 30.4663 92.4127 29.4533 91.6327C28.2 90.6678 27.1927 89.3229 26.7708 88.0517C26.5438 87.3674 26.4498 81.6102 26.4498 68.3972C26.4498 54.2422 26.3678 49.6273 26.1114 49.3686C25.7031 48.9564 25.1173 48.9593 24.258 49.3771ZM53.6227 52.9984C50.4777 54.5997 48.1807 57.9639 47.9353 61.3275C47.7774 63.4911 48.0061 64.2958 48.8386 64.5067C50.447 64.914 56.6817 62.714 59.5865 60.7144C60.8237 59.8625 61.2658 59.9738 62.9035 61.5484C64.4224 63.0089 65.3125 63.3007 65.9363 62.5421C66.5246 61.8268 66.0826 59.1321 65.0304 57.0186C64.1362 55.2223 63.9966 55.0896 61.5701 53.7293C59.3913 52.5079 58.7869 52.2984 57.1989 52.2139C55.5892 52.1279 55.1371 52.227 53.6227 52.9984ZM59.4454 62.4547C56.8915 64.0501 52.2902 65.5943 48.8871 65.9979C47.8772 66.1178 47.2106 66.3441 47.113 66.6005C46.8862 67.1966 47.7458 68.848 48.5642 69.3894C48.9512 69.6453 49.7312 70.7082 50.2978 71.7517C51.6184 74.1845 53.5209 76.4363 54.7547 77.0272C56.0824 77.6631 58.0988 77.6153 59.4573 76.9159C60.7193 76.2661 62.6799 73.8907 63.9689 71.4491C64.4455 70.5471 65.0888 69.6721 65.3985 69.5044C66.2908 69.0225 67.0576 67.4994 67.0587 66.2071C67.0598 64.9906 66.7677 64.6823 65.6128 64.6823C64.826 64.6823 63.4289 63.9104 62.1942 62.7934C60.9489 61.6668 60.7467 61.6418 59.4454 62.4547ZM52.5079 78.8586C51.903 79.2978 50 80.5109 48.2788 81.5544C46.549 82.6036 44.6169 84.0357 43.9578 84.7569C42.5057 86.3472 41.4031 88.6471 41.3994 90.0937C41.3971 90.9863 41.519 91.2149 42.1199 91.4457C43.2717 91.8878 70.9722 91.8047 71.8541 91.3566C72.7881 90.8821 72.8673 89.9189 72.1349 87.9429C71.2762 85.6265 69.44 83.7257 66.2465 81.8473C64.7549 80.9703 62.9151 79.8116 62.1576 79.2722C61.0027 78.4498 60.6158 78.3183 59.7605 78.4578C56.6501 78.9645 56.345 78.9685 55.0463 78.5219C54.3086 78.268 53.6828 78.0605 53.6563 78.0605C53.6295 78.0605 53.1128 78.4197 52.5079 78.8586Z" fill="white"/>
</svg>
