<svg width="114" height="114" viewBox="0 0 114 114" fill="none" xmlns="http://www.w3.org/2000/svg">
<path fill-rule="evenodd" clip-rule="evenodd" d="M54.9769 20.0265C49.8338 20.4167 45.7054 21.5283 41.4021 23.6814C34.6744 27.0476 29.3004 32.438 25.8911 39.2399C24.0435 42.9261 22.9668 46.6204 22.4475 51.0553C22.3087 52.2404 22.2651 56.0355 22.3757 57.3102C22.4704 58.402 22.1807 58.3105 25.5411 58.3105C27.9588 58.3105 28.3775 58.2947 28.4558 58.2008C28.5276 58.1145 28.5294 57.9219 28.4643 57.3024C27.7328 50.3427 29.7906 43.086 34.1108 37.3907C35.7659 35.2088 38.161 32.8824 40.337 31.3432C45.0434 28.0141 50.2679 26.2488 56.0804 26.0235C57.3322 25.975 59.5641 26.0724 60.568 26.2194C64.5703 26.8053 67.7552 27.8421 70.836 29.5621C78.4534 33.8145 83.6486 41.0031 85.204 49.4431C85.6165 51.6813 85.8305 55.1106 85.5394 54.8167C85.5064 54.7834 85.3941 54.293 85.2897 53.7267C84.9395 51.8263 84.5351 50.584 83.7723 49.0659C81.4416 44.4268 76.8771 41.1835 71.6632 40.4618C70.4546 40.2945 67.9812 40.3453 66.7844 40.562C64.3503 41.0028 62.0563 41.9942 60.0407 43.4763C59.404 43.9446 58.6185 44.6615 58.6185 44.7744C58.6185 44.8144 58.7469 45.0494 58.9037 45.2969C59.0605 45.5443 59.3093 45.9848 59.4564 46.2758C59.7803 46.9165 59.9162 46.9518 60.3508 46.5077C60.7895 46.0593 62.034 45.1173 62.7382 44.7006C64.0916 43.8997 65.7345 43.3092 67.4178 43.0186C68.4207 42.8454 70.663 42.8454 71.6766 43.0186C76.0496 43.7658 79.6908 46.4571 81.6077 50.3591C82.6301 52.4404 83.023 54.3051 82.9509 56.7352C82.9198 57.7838 82.9319 58.1027 83.0052 58.1633C83.068 58.2152 84.4678 58.2569 87.1792 58.2877C92.0072 58.3426 91.5256 58.4485 91.6243 57.3102C91.7362 56.02 91.6909 52.2413 91.5488 51.0187C90.8805 45.2651 89.0193 40.0845 85.9991 35.5715C85.1917 34.3651 84.9773 34.0725 84.1073 32.9907C81.2583 29.448 77.9613 26.6571 73.9037 24.3532C73.0095 23.8454 70.9721 22.8849 69.8743 22.4535C66.8659 21.2713 64.0678 20.5682 60.8991 20.198C59.6695 20.0544 56.0071 19.9483 54.9769 20.0265ZM46.2187 23.567C46.1803 23.6036 45.3212 24.0466 44.3097 24.5514C40.276 26.5644 37.5767 28.377 34.5428 31.1096C31.4924 33.8572 29.0931 36.964 27.0071 40.8675C26.5875 41.6527 26.2087 42.3288 26.1652 42.3698C25.8789 42.6404 26.7588 40.357 27.5139 38.8701C28.9515 36.0392 30.6547 33.6989 32.9433 31.4096C35.0832 29.2691 37.0836 27.7329 39.6448 26.2632C41.4854 25.2069 44.2353 23.9849 45.6707 23.5853C46.0099 23.4909 46.3092 23.4809 46.2187 23.567ZM51.9239 34.5373C50.0158 34.7683 48.5701 35.2286 47.0982 36.074C45.5671 36.9536 44.2159 38.2191 43.1921 39.7329C42.4853 40.778 41.7745 42.4611 41.5208 43.6903C41.3348 44.5917 41.2313 45.7019 41.316 45.887C41.3915 46.0521 41.9327 46.2919 42.2299 46.2919C42.3624 46.2919 42.7642 45.9191 42.9983 45.5789C43.0601 45.489 43.1734 45.0438 43.2501 44.5895C43.4853 43.1958 44.0303 41.8214 44.8333 40.5977C45.223 40.0037 46.7748 38.4748 47.4369 38.0327C49.1031 36.9198 50.9017 36.3755 52.917 36.3744C54.5852 36.3734 55.6726 36.6084 57.143 37.2878C58.2325 37.7912 59.0967 38.4251 60.0725 39.4368C60.7209 40.109 61.0053 40.3552 61.1313 40.3533C61.2261 40.3519 61.5685 40.2117 61.8922 40.0419C62.6259 39.6567 62.6474 39.5748 62.1768 38.9585C60.5497 36.8271 57.7384 35.1541 54.9769 34.6737C54.327 34.5606 52.4307 34.4759 51.9239 34.5373ZM52.0172 37.2069C48.9897 37.524 46.2713 39.3907 44.9142 42.0847C44.4473 43.0116 44.177 43.9001 44.319 44.0415C44.3784 44.1007 44.7319 43.919 44.8627 43.762C45.0108 43.5842 46.2212 42.7577 46.7742 42.4567C48.3372 41.6061 50.1853 41.216 51.8525 41.3848C53.4594 41.5476 54.7763 42.0227 56.2981 42.9888C56.6202 43.1932 56.9278 43.3605 56.9818 43.3605C57.0357 43.3605 57.2357 43.2174 57.4262 43.0426C57.8877 42.6188 59.0581 41.7038 59.6346 41.3161C59.8899 41.1443 60.1173 40.956 60.1398 40.8977C60.2016 40.7373 59.8381 40.2654 59.1609 39.6268C57.7247 38.2726 55.8925 37.4326 53.8894 37.2101C53.1125 37.1238 52.8159 37.1232 52.0172 37.2069ZM49.6433 43.5004C48.411 43.7735 47.2627 44.3702 46.0788 45.3524C45.3025 45.9965 44.1625 47.2412 43.5694 48.0921C43.3465 48.4119 43.1015 48.7023 43.025 48.7374C42.9249 48.7832 42.7132 48.7276 42.2735 48.5401C37.8786 46.6652 34.5388 46.8406 32.109 49.0737C31.0201 50.0745 30.0746 51.7606 29.6234 53.5063C29.4545 54.16 29.4706 54.9643 29.6741 56.0387C29.8094 56.7522 30.2062 57.9 30.383 58.0891C30.521 58.2367 30.5694 58.2372 43.8711 58.2372C56.7569 58.2372 57.2254 58.2325 57.3567 58.1018C57.5077 57.9513 57.93 56.6923 58.2111 55.5549C58.5767 54.0753 58.6492 53.4575 58.6495 51.8248C58.6496 50.5072 58.6261 50.1782 58.4861 49.5375C58.2896 48.6379 57.9853 47.7937 57.5693 46.9941C56.8713 45.6517 54.7987 44.1513 52.8802 43.5992C52.0054 43.3474 50.5358 43.3026 49.6433 43.5004ZM68.8811 43.9962C67.7612 44.0661 66.54 44.3198 65.3696 44.7257C63.7544 45.2857 62.2744 46.2137 60.9445 47.5002C60.291 48.1324 60.291 48.1324 60.3338 48.4925C60.3836 48.911 60.4941 49.1499 60.638 49.1499C60.6938 49.1499 60.9279 48.9362 61.1582 48.6749C62.2573 47.4278 64.5978 45.8693 65.5746 45.7341C65.8648 45.6939 65.8648 45.6939 65.6377 45.9013C65.5127 46.0154 65.0989 46.3215 64.7181 46.5816C63.7934 47.2132 62.282 48.7283 61.5347 49.7729C60.6739 50.9758 60.704 50.8855 60.6575 52.4111C60.6136 53.8515 60.4332 55.0009 60.0078 56.5517C59.6279 57.9367 59.6011 58.0893 59.7249 58.1673C59.784 58.2045 60.6198 58.2355 61.5822 58.2361C63.6038 58.2374 63.29 58.3602 64.1394 57.2351C64.4186 56.8653 64.6781 56.5437 64.7159 56.5203C64.8601 56.4316 64.9912 56.5715 65.2702 57.1121C65.4287 57.4191 65.68 57.7979 65.8289 57.9538C66.0944 58.2318 66.1097 58.2372 66.6307 58.2372C66.9229 58.2372 67.2228 58.2048 67.2972 58.1651C67.4362 58.091 68.3132 57.007 68.4646 56.7221C68.5375 56.5848 68.4887 56.4425 68.1122 55.6961C67.4534 54.3902 67.3078 53.6035 67.5641 52.7359C67.9224 51.5229 68.9227 50.6412 70.1566 50.451C70.7999 50.3518 71.4001 50.4418 72.186 50.7553C72.5097 50.8844 72.7978 50.9587 72.8534 50.9273C72.9071 50.897 73.0897 50.6984 73.2591 50.4861C73.7044 49.9282 73.7979 49.8947 74.1679 50.1608C74.5898 50.4643 74.6002 50.6652 74.2201 51.1667C73.855 51.6485 73.8379 51.8698 74.1484 52.0974C74.4504 52.3188 75.208 53.2122 75.3545 53.5196C75.4961 53.8168 75.457 53.9043 74.8199 54.7196C74.2723 55.4201 74.1428 55.4488 73.8782 54.9288C73.4667 54.1197 72.8653 53.446 72.5904 53.486C72.4009 53.5136 70.7571 55.6104 70.7571 55.8245C70.7571 55.8929 70.9078 56.2311 71.092 56.5761C71.2763 56.9211 71.508 57.4093 71.6071 57.6611C71.7061 57.9128 71.8285 58.1449 71.879 58.1768C71.9963 58.251 81.4314 58.2538 81.5484 58.1796C81.7185 58.072 81.7987 57.6881 81.8414 56.7772C81.9666 54.1104 81.1531 51.3415 79.6006 49.1499C78.9916 48.2902 77.7077 46.9913 76.8263 46.3431C75.5641 45.4148 73.7118 44.5876 72.1317 44.2466C71.539 44.1186 69.5704 43.9182 69.3225 43.9606C69.282 43.9675 69.0834 43.9835 68.8811 43.9962ZM35.985 48.9382C36.2324 49.0505 36.3362 49.3044 36.2528 49.5939C35.9624 50.6027 33.9416 52.0983 32.72 52.2086C32.3335 52.2436 32.2764 52.2295 32.1038 52.0577C31.8659 51.8207 31.8658 51.6927 32.1027 51.2191C32.5291 50.3668 33.8219 49.3755 35.0034 48.995C35.4797 48.8416 35.7392 48.8266 35.985 48.9382ZM70.3099 52.5411C69.8931 52.8209 69.727 53.1374 69.7282 53.6495C69.7303 54.4922 70.0452 54.7329 70.437 54.1913C70.5622 54.0183 70.8509 53.6349 71.0786 53.3392C71.3064 53.0435 71.4927 52.7569 71.4927 52.7021C71.4927 52.3715 70.7195 52.2661 70.3099 52.5411ZM16.4277 60.6106C15.5142 60.8319 14.7324 61.4803 14.2804 62.3913C14 62.9564 14 62.9564 14 64.0229C14 65.0716 14.0039 65.0975 14.2365 65.5868C14.5154 66.1733 15.135 66.8521 15.6425 67.1273C16.4762 67.5793 13.011 67.5443 57 67.5443C92.8227 67.5443 97.1833 67.5322 97.5697 67.432C98.5427 67.1795 99.2595 66.5894 99.7196 65.6621C100 65.0969 100 65.0969 100 64.0305C100 62.9641 100 62.9641 99.7271 62.3949C99.2922 61.4874 98.5471 60.875 97.5697 60.6214C97.1831 60.5211 92.8326 60.5097 56.9662 60.5153C25.6987 60.5201 16.714 60.5413 16.4277 60.6106ZM25.5143 62.1579C25.7379 62.3584 25.8007 62.5587 25.7159 62.801C25.567 63.2263 25.6346 63.2206 20.803 63.2206C16.3796 63.2206 16.3796 63.2206 16.1646 63.0063C15.9296 62.7723 15.9031 62.6172 16.0522 62.3492C16.2629 61.9704 16.1748 61.9768 20.9261 61.9947C25.235 62.0109 25.355 62.0152 25.5143 62.1579ZM21.1912 69.4982C21.0274 69.5641 21.0903 69.8386 21.6439 71.4711C24.2695 79.2138 27.0368 86.2753 28.8778 89.9296C29.9628 92.0836 31.0144 93.5818 31.6529 93.8836C31.8763 93.9892 34.2215 94 57 94C80.0317 94 82.1217 93.9902 82.3532 93.8808C82.7192 93.7078 83.377 92.9542 83.9223 92.0835C84.4091 91.3063 85.8764 88.4643 86.1301 87.8075C86.2079 87.6059 86.4394 87.0704 86.6445 86.6175C87.133 85.5392 88.5292 82.0736 89.2949 80.0393C90.8191 75.99 92.9008 70.0223 92.9008 69.7021C92.9008 69.6122 92.8484 69.5187 92.7844 69.4942C92.6451 69.4409 21.3237 69.445 21.1912 69.4982ZM35.8853 71.2287C36.2232 71.4067 36.4748 71.7734 36.4748 72.088C36.4748 72.4025 36.2232 72.7692 35.8853 72.9472C35.5688 73.1139 35.5688 73.1139 31.0988 73.1139C28.6403 73.1139 26.5765 73.134 26.5124 73.1584C26.4484 73.1829 26.3961 73.2752 26.3961 73.3636C26.3961 73.452 27.1244 75.4577 28.0145 77.8209C28.9047 80.1841 29.633 82.211 29.633 82.3254C29.633 82.8194 29.1489 83.3001 28.651 83.3003C28.337 83.3006 27.9608 83.0939 27.8033 82.8347C27.7264 82.708 26.7955 80.2959 25.7347 77.4744C23.9834 72.8165 23.8092 72.3124 23.8398 71.9941C23.8774 71.6047 24.0802 71.3276 24.4465 71.1655C24.6238 71.087 25.7399 71.0672 30.118 71.0648C35.5688 71.062 35.5688 71.062 35.8853 71.2287Z" fill="#1C1A24"/>
</svg>
