<svg width="50" height="50" viewBox="0 0 50 50" fill="none" xmlns="http://www.w3.org/2000/svg">
<path d="M42.3567 26.701C39.4849 38.2189 27.8177 45.2285 16.2971 42.3563C4.7813 39.4848 -2.2291 27.8183 0.643966 16.3012C3.51451 4.78201 15.1817 -2.22813 26.6987 0.643354C38.2185 3.51483 45.2288 15.1825 42.3567 26.701Z" fill="#50AF95"/>
<path fill-rule="evenodd" clip-rule="evenodd" d="M24.0726 22.8252C23.9289 22.8359 23.1866 22.8802 21.5307 22.8802C20.2136 22.8802 19.2785 22.8407 18.9504 22.8252C13.8606 22.6013 10.0614 21.7152 10.0614 20.6544C10.0614 19.5936 13.8606 18.7087 18.9504 18.4813V21.9427C19.2833 21.9667 20.2364 22.023 21.5534 22.023C23.1339 22.023 23.9253 21.9571 24.0678 21.9439V18.4837C29.1469 18.7099 32.9377 19.596 32.9377 20.6544C32.9377 21.7129 29.1481 22.5989 24.0678 22.824L24.0726 22.8252ZM24.0726 18.1257V15.0282H31.1608V10.3047H11.8622V15.0282H18.9492V18.1245C13.1889 18.3891 8.85693 19.5301 8.85693 20.8975C8.85693 22.2648 13.1889 23.4047 18.9492 23.6705V33.5964H24.0714V23.6669C29.8186 23.4023 34.1434 22.2624 34.1434 20.8963C34.1434 19.5301 29.8222 18.3903 24.0714 18.1245L24.0726 18.1257Z" fill="white"/>
<g clip-path="url(#clip0_111_1949)">
<rect x="28.8" y="28.7969" width="19.2" height="19.2" rx="9.6" fill="white"/>
<path d="M47.716 40.7981C46.4471 45.8874 41.2918 48.9847 36.2013 47.7156C31.1129 46.4468 28.0153 41.2918 29.2848 36.2029C30.5532 31.113 35.7084 28.0155 40.7974 29.2843C45.8875 30.5531 48.9849 35.7086 47.7159 40.7982L47.716 40.7981Z" fill="#F3BA2F"/>
<path fill-rule="evenodd" clip-rule="evenodd" d="M38.5013 35.0293L36.0411 37.4893L34.6097 36.0579L38.5013 32.1667L42.3942 36.059L40.9627 37.4904L38.5013 35.0293ZM33.5988 37.0684L32.1673 38.5L33.5987 39.9311L35.0303 38.4997L33.5988 37.0684ZM36.0411 39.5109L38.5013 41.9707L40.9627 39.5097L42.3949 40.9403L42.3942 40.941L38.5013 44.8333L34.6077 40.9401L36.0411 39.5109ZM43.4039 37.0692L41.9724 38.5006L43.4039 39.9319L44.8354 38.5005L43.4039 37.0692Z" fill="white"/>
<path d="M39.9532 38.4992H39.9538L38.5013 37.0468L37.05 38.4978L37.048 38.4997L37.05 38.5018L38.5013 39.9532L39.9539 38.5008L39.9546 38.4999L39.9532 38.4992Z" fill="white"/>
</g>
<rect x="27.8" y="27.7969" width="21.2" height="21.2" rx="10.6" stroke="white" stroke-width="2"/>
<defs>
<clipPath id="clip0_111_1949">
<rect x="28.8" y="28.7969" width="19.2" height="19.2" rx="9.6" fill="white"/>
</clipPath>
</defs>
</svg>
