<svg width="344" height="260" viewBox="0 0 344 260" fill="none" xmlns="http://www.w3.org/2000/svg">
<path d="M163.042 45.1494C167.041 38.2835 176.959 38.2835 180.958 45.1494C184.094 50.5341 191.237 51.9551 196.195 48.1803C202.517 43.3672 211.68 47.1629 212.747 55.0363C213.583 61.2111 219.639 65.2577 225.664 63.6675C233.347 61.6399 240.36 68.6535 238.332 76.3357C236.742 82.3605 240.789 88.4168 246.964 89.2532C254.837 90.3198 258.633 99.4835 253.82 105.805C250.045 110.763 251.466 117.906 256.851 121.042C263.716 125.041 263.716 134.959 256.851 138.958C251.466 142.094 250.045 149.237 253.82 154.195C258.633 160.517 254.837 169.68 246.964 170.747C240.789 171.583 236.742 177.639 238.332 183.664C240.36 191.347 233.347 198.36 225.664 196.333C219.639 194.742 213.583 198.789 212.747 204.964C211.68 212.837 202.517 216.633 196.195 211.82C191.237 208.045 184.094 209.466 180.958 214.851C176.959 221.716 167.041 221.716 163.042 214.851C159.906 209.466 152.763 208.045 147.805 211.82C141.483 216.633 132.32 212.837 131.253 204.964C130.417 198.789 124.361 194.742 118.336 196.333C110.653 198.36 103.64 191.347 105.668 183.664C107.258 177.639 103.211 171.583 97.0363 170.747C89.1629 169.68 85.3672 160.517 90.1803 154.195C93.9551 149.237 92.5341 142.094 87.1494 138.958C80.2835 134.959 80.2835 125.041 87.1494 121.042C92.5341 117.906 93.9551 110.763 90.1803 105.805C85.3672 99.4835 89.1629 90.3198 97.0363 89.2532C103.211 88.4168 107.258 82.3605 105.668 76.3357C103.64 68.6535 110.653 61.6399 118.336 63.6675C124.361 65.2577 130.417 61.2111 131.253 55.0363C132.32 47.1629 141.483 43.3672 147.805 48.1803C152.763 51.9551 159.906 50.5341 163.042 45.1494Z" fill="#F3AB3F"/>
<circle cx="172" cy="130" r="60" fill="white"/>
<path fill-rule="evenodd" clip-rule="evenodd" d="M151.415 95.0452C150.243 95.1115 150.159 95.1892 150.031 96.3165C149.943 97.0913 150.054 99.2143 150.196 99.4809C150.37 99.8063 150.699 99.894 151.748 99.894C152.465 99.894 152.743 99.922 152.767 99.9966C152.785 100.053 152.839 101.484 152.888 103.176C152.937 104.868 153.014 106.567 153.058 106.95C153.502 110.779 154.742 113.769 157.14 116.796C158.033 117.924 160.419 120.353 162.161 121.907C163.917 123.475 165.883 125.446 166.432 126.191C166.917 126.849 167.462 127.917 167.585 128.451C167.631 128.652 167.669 129.375 167.67 130.059C167.673 131.512 167.567 131.962 166.985 132.985C166.241 134.294 165.404 135.187 162.324 137.956C157.086 142.665 155.322 145.01 153.913 149.136C153.179 151.283 153.003 152.593 152.887 156.753C152.839 158.491 152.785 159.959 152.767 160.015C152.743 160.089 152.465 160.117 151.748 160.117C150.698 160.117 150.37 160.205 150.196 160.532C150.055 160.797 149.947 162.957 150.036 163.738C150.122 164.496 150.269 164.775 150.653 164.911C150.983 165.029 193.009 165.03 193.353 164.913C193.526 164.854 193.655 164.714 193.793 164.437C193.976 164.068 193.987 163.965 193.979 162.678C193.962 160.217 193.896 160.118 192.276 160.118C191.728 160.118 191.26 160.084 191.234 160.042C191.209 160.001 191.152 158.571 191.107 156.863C191.063 155.156 190.989 153.43 190.942 153.029C190.568 149.788 189.332 146.579 187.478 144.036C186.282 142.395 183.886 139.906 181.105 137.416C178.594 135.168 177.456 133.885 176.824 132.59C176.355 131.631 176.31 131.365 176.342 129.791C176.37 128.423 176.374 128.398 176.645 127.79C177.35 126.21 178.257 125.137 180.853 122.809C186.841 117.442 188.742 114.973 190.1 110.806C190.488 109.615 190.806 108.175 190.942 106.991C190.988 106.585 191.063 104.856 191.107 103.148C191.152 101.441 191.209 100.01 191.234 99.969C191.26 99.9278 191.717 99.894 192.252 99.894C193.331 99.894 193.588 99.8209 193.773 99.4606C193.953 99.1104 194.061 97.4152 193.963 96.4667C193.871 95.5772 193.715 95.2289 193.351 95.1029C193.087 95.0112 152.99 94.9561 151.415 95.0452ZM188.597 103.012C188.585 104.704 188.538 106.464 188.492 106.922C188.393 107.897 188.042 109.401 187.676 110.417L187.417 111.135H171.998H156.579L156.419 110.704C156.149 109.977 155.94 109.243 155.71 108.219C155.518 107.363 155.48 106.963 155.42 105.104C155.334 102.487 155.324 100.022 155.397 99.9485C155.427 99.9183 162.914 99.903 172.034 99.9144L188.617 99.9351L188.597 103.012ZM170.69 129.846C170.917 130.074 171.23 130.314 171.385 130.379C172.049 130.658 172.818 130.432 173.377 129.794C173.552 129.594 173.717 129.431 173.745 129.431C173.773 129.431 173.796 129.762 173.796 130.166C173.796 131.014 173.877 131.47 174.217 132.542C174.518 133.492 175.04 134.55 175.557 135.257C176.135 136.048 177.834 137.758 180.043 139.773C184.122 143.493 185.524 145.13 186.804 147.664C187.715 149.466 188.187 150.96 188.457 152.897C188.649 154.271 188.731 160.012 188.559 160.079C188.252 160.197 187.738 159.943 186.526 159.078C183.602 156.988 177.246 152.569 174.606 150.791C173.162 149.818 173.06 149.764 172.504 149.677C172.068 149.609 171.789 149.611 171.41 149.681C170.824 149.791 170.355 150.094 164.243 154.32C162.925 155.231 162.111 155.8 159.975 157.301C159.537 157.609 158.498 158.346 157.667 158.938C156.543 159.739 156.071 160.029 155.826 160.068C155.644 160.097 155.455 160.096 155.406 160.066C155.343 160.026 155.333 159.151 155.374 157.009C155.456 152.754 155.55 151.93 156.171 150.067C156.77 148.268 157.822 146.277 158.923 144.856C159.723 143.824 161.821 141.705 164.039 139.688C166.171 137.749 167.719 136.186 168.391 135.293C168.957 134.542 169.473 133.499 169.842 132.364C170.102 131.567 170.148 131.305 170.184 130.437C170.207 129.884 170.237 129.431 170.252 129.431C170.266 129.431 170.463 129.618 170.69 129.846ZM171.607 131.758C171.353 131.9 171.103 132.296 171.102 132.559C171.101 133.003 171.725 133.507 172.158 133.412C172.471 133.343 172.814 132.96 172.864 132.624C172.965 131.951 172.202 131.426 171.607 131.758ZM172.614 134.328C172.237 134.718 172.179 134.958 172.375 135.323C172.816 136.145 174.045 135.831 174.04 134.897C174.037 134.381 173.675 134.026 173.152 134.026C172.976 134.026 172.823 134.112 172.614 134.328ZM170.197 136.071C170.011 136.259 169.959 136.385 169.959 136.649C169.959 137.537 170.748 137.944 171.382 137.384C171.902 136.925 171.845 136.362 171.24 135.992C170.854 135.755 170.484 135.783 170.197 136.071ZM172.816 138.967C172.447 139.217 172.212 139.628 172.282 139.905C172.311 140.022 172.441 140.225 172.569 140.354C172.84 140.626 173.245 140.668 173.635 140.466C173.939 140.308 174.041 140.112 174.041 139.685C174.041 139.408 173.993 139.298 173.788 139.105C173.648 138.974 173.486 138.867 173.427 138.867C173.368 138.867 173.269 138.847 173.207 138.823C173.144 138.799 172.969 138.864 172.816 138.967ZM170.236 142.1C169.413 142.926 170.512 144.141 171.385 143.371C171.545 143.23 171.696 143.031 171.722 142.928C171.823 142.521 171.215 141.821 170.761 141.821C170.589 141.821 170.43 141.905 170.236 142.1ZM172.752 145.005C172.491 145.207 172.246 145.601 172.246 145.822C172.245 145.924 172.371 146.145 172.524 146.314C172.771 146.584 172.849 146.621 173.184 146.621C173.511 146.621 173.599 146.583 173.803 146.353C174.32 145.771 173.982 144.854 173.252 144.858C173.08 144.859 172.855 144.925 172.752 145.005ZM169.168 147.392C168.844 147.595 168.734 147.796 168.734 148.185C168.734 148.426 168.793 148.545 169.025 148.764C169.548 149.26 169.906 149.2 170.352 148.541C170.836 147.828 169.907 146.927 169.168 147.392ZM175.348 148.442C175.121 148.526 174.863 148.817 174.772 149.094C174.648 149.474 174.796 149.907 175.106 150.068C175.377 150.209 175.86 150.227 176.087 150.105C176.284 149.999 176.491 149.606 176.491 149.338C176.491 149.097 176.156 148.673 175.832 148.505C175.587 148.377 175.541 148.371 175.348 148.442Z" fill="#F3AB3F"/>
</svg>
