<svg width="54" height="54" viewBox="0 0 54 54" fill="none" xmlns="http://www.w3.org/2000/svg">
<rect width="54" height="54" rx="27" fill="white"/>
<path fill-rule="evenodd" clip-rule="evenodd" d="M15.374 13.2072C15.1513 13.3209 14.8894 13.5249 14.792 13.6605C14.6948 13.7961 13.9966 15.6437 13.2409 17.7663C12.1844 20.7335 11.8805 21.6976 11.9263 21.9367C12.0253 22.4532 12.4146 23.0386 12.878 23.3673C13.2666 23.6431 13.4124 23.6822 14.1717 23.7143C15.4181 23.767 15.6388 23.7 16.323 23.0606C16.6511 22.7539 16.9628 22.503 17.0157 22.503C17.0685 22.503 17.2542 22.682 17.4283 22.9006C17.917 23.5144 18.4567 23.7292 19.5101 23.7292C20.5494 23.7292 20.9806 23.5549 21.5229 22.9152C21.7152 22.6886 21.9308 22.503 22.0019 22.503C22.0731 22.503 22.3067 22.7041 22.5211 22.95C23.0778 23.5883 23.4345 23.7292 24.4939 23.7292C25.5537 23.7292 26.092 23.5155 26.5816 22.9006C26.7558 22.682 26.9551 22.503 27.0246 22.503C27.0941 22.503 27.2925 22.6834 27.4654 22.9037C27.9493 23.5204 28.4758 23.7292 29.547 23.7292C30.6183 23.7292 31.1447 23.5204 31.6287 22.9037C31.8016 22.6834 31.983 22.503 32.0318 22.503C32.0805 22.503 32.2881 22.686 32.4931 22.9096C33.0659 23.5345 33.5565 23.7292 34.5582 23.7292C35.5668 23.7292 36.0974 23.5164 36.6176 22.9028C36.8041 22.6829 36.9918 22.503 37.0346 22.503C37.0776 22.503 37.3812 22.7539 37.7093 23.0606C38.3935 23.7 38.6142 23.767 39.8606 23.7143C40.62 23.6822 40.7658 23.6431 41.1552 23.3671C41.6747 22.9988 42.054 22.3586 42.0755 21.8135C42.087 21.5214 41.7099 20.4752 40.5912 17.6964C39.7664 15.6476 38.9852 13.8282 38.8553 13.6534C38.3389 12.9589 39.1017 13.0004 26.849 13.0005C15.9385 13.0006 15.7731 13.0036 15.374 13.2072ZM15.2453 24.2636C15.1188 24.3251 14.9918 24.4714 14.9629 24.5888C14.9341 24.7061 14.9237 27.978 14.9398 31.8598C14.9691 38.9175 14.9691 38.9175 15.2738 39.5188C15.6123 40.1866 16.2144 40.7211 16.8192 40.8906C17.3395 41.0365 36.6928 41.0365 37.2131 40.8906C37.8179 40.7211 38.42 40.1866 38.7585 39.5188C39.0632 38.9175 39.0632 38.9175 39.0917 31.7426C39.123 23.8938 39.1544 24.3312 38.5486 24.1778C37.9804 24.0338 38.0002 23.7846 38.0002 31.0611C38.0002 35.8963 37.9671 37.8665 37.8812 38.1562C37.7341 38.6515 37.1054 39.3889 36.6615 39.5867C36.3793 39.7124 34.9236 39.7329 26.9019 39.7234C17.4739 39.7122 17.4739 39.7122 17.1102 39.4323C16.6603 39.0859 16.2987 38.6031 16.1473 38.1468C16.0658 37.9011 16.0321 35.8344 16.0321 31.0913C16.0321 26.01 16.0026 24.3534 15.9106 24.2605C15.764 24.1126 15.5537 24.1136 15.2453 24.2636ZM25.7864 25.5635C24.6575 26.1384 23.8329 27.346 23.7448 28.5535C23.6881 29.3301 23.7702 29.619 24.0691 29.6947C24.6464 29.8409 26.8845 29.0512 27.9273 28.3334C28.3714 28.0276 28.5301 28.0675 29.118 28.6328C29.6633 29.157 29.9828 29.2618 30.2067 28.9895C30.4179 28.7327 30.2592 27.7654 29.8815 27.0067C29.5605 26.3618 29.5104 26.3142 28.6394 25.8259C27.8572 25.3875 27.6403 25.3123 27.0702 25.2819C26.4924 25.251 26.3301 25.2866 25.7864 25.5635ZM27.8767 28.9581C26.9599 29.5308 25.3081 30.0851 24.0865 30.23C23.724 30.273 23.4846 30.3543 23.4496 30.4463C23.3682 30.6603 23.6768 31.2531 23.9706 31.4475C24.1095 31.5393 24.3895 31.9209 24.5929 32.2955C25.067 33.1688 25.7499 33.9771 26.1928 34.1893C26.6694 34.4175 27.3933 34.4004 27.8809 34.1493C28.3339 33.916 29.0377 33.0633 29.5005 32.1869C29.6716 31.863 29.9025 31.549 30.0136 31.4888C30.3339 31.3158 30.6092 30.769 30.6096 30.3051C30.61 29.8684 30.5051 29.7578 30.0906 29.7578C29.8081 29.7578 29.3066 29.4806 28.8634 29.0797C28.4163 28.6753 28.3438 28.6663 27.8767 28.9581ZM25.3863 34.8467C25.1691 35.0043 24.486 35.4398 23.8681 35.8144C23.2471 36.191 22.5536 36.7051 22.317 36.964C21.7957 37.5349 21.3999 38.3605 21.3986 38.8798C21.3978 39.2002 21.4415 39.2823 21.6572 39.3651C22.0707 39.5238 32.0145 39.494 32.331 39.3332C32.6663 39.1628 32.6948 38.817 32.4319 38.1077C32.1236 37.2762 31.4644 36.5938 30.3181 35.9196C29.7826 35.6047 29.1222 35.1888 28.8502 34.9951C28.4357 34.6999 28.2968 34.6527 27.9897 34.7028C26.8732 34.8847 26.7637 34.8861 26.2975 34.7258C26.0326 34.6347 25.808 34.5602 25.7985 34.5602C25.7889 34.5602 25.6034 34.6891 25.3863 34.8467Z" fill="#53B669"/>
</svg>
