<svg width="344" height="260" viewBox="0 0 344 260" fill="none" xmlns="http://www.w3.org/2000/svg">
<path d="M163.042 45.1494C167.041 38.2835 176.959 38.2835 180.958 45.1494C184.094 50.5341 191.237 51.9551 196.195 48.1803C202.517 43.3672 211.68 47.1629 212.747 55.0363C213.583 61.2111 219.639 65.2577 225.664 63.6675C233.347 61.6399 240.36 68.6535 238.332 76.3357C236.742 82.3605 240.789 88.4168 246.964 89.2532C254.837 90.3198 258.633 99.4835 253.82 105.805C250.045 110.763 251.466 117.906 256.851 121.042C263.716 125.041 263.716 134.959 256.851 138.958C251.466 142.094 250.045 149.237 253.82 154.195C258.633 160.517 254.837 169.68 246.964 170.747C240.789 171.583 236.742 177.639 238.332 183.664C240.36 191.347 233.347 198.36 225.664 196.333C219.639 194.742 213.583 198.789 212.747 204.964C211.68 212.837 202.517 216.633 196.195 211.82C191.237 208.045 184.094 209.466 180.958 214.851C176.959 221.716 167.041 221.716 163.042 214.851C159.906 209.466 152.763 208.045 147.805 211.82C141.483 216.633 132.32 212.837 131.253 204.964C130.417 198.789 124.361 194.742 118.336 196.333C110.653 198.36 103.64 191.347 105.668 183.664C107.258 177.639 103.211 171.583 97.0363 170.747C89.1629 169.68 85.3672 160.517 90.1803 154.195C93.9551 149.237 92.5341 142.094 87.1494 138.958C80.2835 134.959 80.2835 125.041 87.1494 121.042C92.5341 117.906 93.9551 110.763 90.1803 105.805C85.3672 99.4835 89.1629 90.3198 97.0363 89.2532C103.211 88.4168 107.258 82.3605 105.668 76.3357C103.64 68.6535 110.653 61.6399 118.336 63.6675C124.361 65.2577 130.417 61.2111 131.253 55.0363C132.32 47.1629 141.483 43.3672 147.805 48.1803C152.763 51.9551 159.906 50.5341 163.042 45.1494Z" fill="#53B669"/>
<circle cx="172" cy="130" r="60" fill="white"/>
<rect x="146.199" y="133.961" width="9.16373" height="24.1303" transform="rotate(-45 146.199 133.961)" fill="#D9D9D9"/>
<rect x="146.199" y="133.961" width="9.16373" height="24.1303" transform="rotate(-45 146.199 133.961)" fill="url(#paint0_linear_158_1782)"/>
<rect x="163.18" y="151.016" width="9.33498" height="50.0879" transform="rotate(-135 163.18 151.016)" fill="#D9D9D9"/>
<rect x="163.18" y="151.016" width="9.33498" height="50.0879" transform="rotate(-135 163.18 151.016)" fill="url(#paint1_linear_158_1782)"/>
<defs>
<linearGradient id="paint0_linear_158_1782" x1="146.199" y1="133.961" x2="160.409" y2="137.431" gradientUnits="userSpaceOnUse">
<stop stop-color="#53B6A4"/>
<stop offset="1" stop-color="#53B669"/>
</linearGradient>
<linearGradient id="paint1_linear_158_1782" x1="163.18" y1="151.016" x2="178.301" y2="152.828" gradientUnits="userSpaceOnUse">
<stop stop-color="#53B6A4"/>
<stop offset="1" stop-color="#53B669"/>
</linearGradient>
</defs>
</svg>
