<svg width="16" height="16" viewBox="0 0 16 16" fill="none" xmlns="http://www.w3.org/2000/svg">
<g clip-path="url(#clip0_148_2588)">
<path d="M7.99967 4.66536H4.99967C4.55765 4.66536 4.13372 4.48977 3.82116 4.17721C3.5086 3.86465 3.33301 3.44073 3.33301 2.9987C3.33301 2.55667 3.5086 2.13275 3.82116 1.82019C4.13372 1.50763 4.55765 1.33203 4.99967 1.33203C7.33301 1.33203 7.99967 4.66536 7.99967 4.66536ZM7.99967 4.66536H10.9997C11.4417 4.66536 11.8656 4.48977 12.1782 4.17721C12.4907 3.86465 12.6663 3.44073 12.6663 2.9987C12.6663 2.55667 12.4907 2.13275 12.1782 1.82019C11.8656 1.50763 11.4417 1.33203 10.9997 1.33203C8.66634 1.33203 7.99967 4.66536 7.99967 4.66536ZM7.99967 4.66536L7.99968 14.6654M1.33301 9.33203H14.6663M1.33301 6.7987L1.33301 12.532C1.33301 13.2788 1.33301 13.6521 1.47833 13.9374C1.60616 14.1882 1.81014 14.3922 2.06102 14.52C2.34624 14.6654 2.7196 14.6654 3.46634 14.6654L12.533 14.6654C13.2797 14.6654 13.6531 14.6654 13.9383 14.52C14.1892 14.3922 14.3932 14.1882 14.521 13.9374C14.6663 13.6521 14.6663 13.2788 14.6663 12.532V6.7987C14.6663 6.05196 14.6663 5.67859 14.521 5.39338C14.3932 5.1425 14.1892 4.93852 13.9383 4.81069C13.6531 4.66537 13.2797 4.66537 12.533 4.66537L3.46634 4.66537C2.7196 4.66536 2.34624 4.66536 2.06102 4.81069C1.81014 4.93852 1.60616 5.14249 1.47833 5.39338C1.33301 5.67859 1.33301 6.05196 1.33301 6.7987Z" stroke="white" stroke-width="2" stroke-linecap="round" stroke-linejoin="round"/>
</g>
<defs>
<clipPath id="clip0_148_2588">
<rect width="16" height="16" fill="white"/>
</clipPath>
</defs>
</svg>
