<svg width="20" height="20" viewBox="0 0 20 20" fill="none" xmlns="http://www.w3.org/2000/svg">
<g clip-path="url(#clip0_375_1679)">
<path d="M9.99974 3.95833C11.4747 3.95833 12.7956 4.46667 13.8372 5.45833L16.6914 2.60417C14.9581 0.991667 12.6956 0 9.99974 0C6.09141 0 2.71224 2.24167 1.06641 5.50833L4.39141 8.0875C5.17891 5.71667 7.39141 3.95833 9.99974 3.95833Z" fill="#EA4335"/>
<path d="M19.575 10.2318C19.575 9.5776 19.5125 8.94427 19.4167 8.33594H10V12.0943H15.3917C15.15 13.3276 14.45 14.3776 13.4 15.0859L16.6208 17.5859C18.5 15.8443 19.575 13.2693 19.575 10.2318Z" fill="#4285F4"/>
<path d="M4.3875 11.912C4.1875 11.3078 4.07083 10.6661 4.07083 9.99948C4.07083 9.33281 4.18333 8.69115 4.3875 8.08698L1.0625 5.50781C0.383333 6.85781 0 8.38281 0 9.99948C0 11.6161 0.383333 13.1411 1.06667 14.4911L4.3875 11.912Z" fill="#FBBC05"/>
<path d="M10 19.9979C12.7 19.9979 14.9708 19.1104 16.6208 17.5771L13.4 15.0771C12.5042 15.6812 11.35 16.0354 10 16.0354C7.39167 16.0354 5.17917 14.2771 4.3875 11.9062L1.0625 14.4854C2.7125 17.7562 6.09167 19.9979 10 19.9979Z" fill="#34A853"/>
</g>
<defs>
<clipPath id="clip0_375_1679">
<rect width="20" height="20" fill="white"/>
</clipPath>
</defs>
</svg>
