<svg width="160" height="48" viewBox="0 0 160 48" fill="none" xmlns="http://www.w3.org/2000/svg">
<path d="M154.353 0H5.64706C2.52827 0 0 2.57884 0 5.76V42.24C0 45.4212 2.52827 48 5.64706 48H154.353C157.472 48 160 45.4212 160 42.24V5.76C160 2.57884 157.472 0 154.353 0Z" fill="#F2F2F3"/>
<path fill-rule="evenodd" clip-rule="evenodd" d="M11.7795 10.5169C11.4728 10.8527 11.2969 11.3701 11.2969 12.0424V35.9484C11.2969 36.6207 11.4728 37.1379 11.7911 37.4619L11.8742 37.5335L25.0065 24.1386V23.8375L11.8626 10.4453L11.7795 10.5169Z" fill="url(#paint0_linear_809_3785)"/>
<path fill-rule="evenodd" clip-rule="evenodd" d="M29.3723 28.6222L24.9922 24.1531V23.8403L29.3737 19.3711L29.4684 19.4309L34.6509 22.4351C36.1348 23.2882 36.1348 24.694 34.6509 25.559L29.4684 28.5632L29.3723 28.6222Z" fill="url(#paint1_linear_809_3785)"/>
<path fill-rule="evenodd" clip-rule="evenodd" d="M29.4677 28.5619L24.9929 23.9961L11.7773 37.4759C12.26 38.005 13.0724 38.0648 13.9804 37.5475L29.4677 28.5619Z" fill="url(#paint2_linear_809_3785)"/>
<path fill-rule="evenodd" clip-rule="evenodd" d="M29.4677 19.4304L13.9804 10.4566C13.0738 9.92747 12.26 9.99908 11.7773 10.5282L24.9915 23.9948L29.4677 19.4304Z" fill="url(#paint3_linear_809_3785)"/>
<path d="M52.4071 15.465C52.0211 15.765 51.5726 16.005 51.0616 16.185C50.5506 16.365 50.0065 16.455 49.4292 16.455C48.2858 16.455 47.3685 16.0837 46.6774 15.3413C45.9862 14.5987 45.6406 13.6163 45.6406 12.3938C45.6406 11.1187 45.9843 10.0875 46.6719 9.3C47.3631 8.51251 48.284 8.11875 49.4347 8.11875C50.1296 8.11875 50.727 8.26313 51.227 8.55188C51.727 8.84062 52.1075 9.24563 52.3685 9.76685L51.5523 10.1494C51.3502 9.77434 51.069 9.48938 50.7087 9.29438C50.3483 9.09563 49.9237 8.99625 49.4347 8.99625C48.5855 8.99625 47.9016 9.30376 47.3833 9.91872C46.8686 10.5301 46.6112 11.3306 46.6112 12.3206C46.6112 13.3369 46.8704 14.1356 47.3888 14.7169C47.9108 15.2943 48.602 15.5831 49.4623 15.5831C49.841 15.5831 50.205 15.5325 50.5542 15.4312C50.9035 15.3301 51.2123 15.18 51.4807 14.9813V13.0125H49.5891V12.1575H52.4071V15.465ZM58.6387 13.6031H54.5634C54.5634 14.3156 54.7288 14.8369 55.0597 15.1669C55.3943 15.4932 55.7913 15.6563 56.2509 15.6563C56.5965 15.6563 56.8998 15.5756 57.1608 15.4143C57.4256 15.2494 57.6443 15.0057 57.8171 14.6831L58.556 15.0657C58.3575 15.4781 58.0578 15.8138 57.6572 16.0725C57.2601 16.3275 56.7712 16.455 56.1903 16.455C55.4402 16.455 54.8244 16.2019 54.3428 15.6956C53.8649 15.1894 53.6259 14.445 53.6259 13.4625C53.6259 12.5888 53.8686 11.865 54.3538 11.2912C54.8391 10.7138 55.4605 10.425 56.2178 10.425C56.9862 10.425 57.5818 10.6631 58.0046 11.1394C58.4274 11.6119 58.6387 12.2719 58.6387 13.1194V13.6031ZM57.7123 12.8325C57.7123 12.3338 57.5781 11.9419 57.3097 11.6569C57.0414 11.3681 56.6719 11.2237 56.2013 11.2237C55.7454 11.2237 55.3722 11.3775 55.0818 11.685C54.7951 11.9925 54.6241 12.375 54.5689 12.8325H57.7123ZM62.8355 15.9543C62.67 16.1231 62.4881 16.2469 62.2895 16.3257C62.091 16.4044 61.8576 16.4437 61.5891 16.4437C61.1442 16.4437 60.8005 16.3181 60.5579 16.0669C60.3153 15.8119 60.1939 15.4481 60.1939 14.9756V11.3475H59.2233V10.56H60.1939V9.19875L61.0983 9.03563V10.56H62.6094V11.3475H61.0983V14.8969C61.0983 15.1706 61.1498 15.3694 61.2528 15.4932C61.3557 15.6169 61.5174 15.6787 61.738 15.6787C61.8483 15.6787 61.9531 15.6563 62.0524 15.6112C62.1554 15.5662 62.2619 15.48 62.3722 15.3525L62.8355 15.9543ZM67.0653 9.26062C66.8704 9.26062 66.7123 9.195 66.591 9.06376C66.4696 8.92875 66.409 8.77125 66.409 8.59125C66.409 8.41125 66.4696 8.25563 66.591 8.12438C66.7123 7.98938 66.8704 7.92188 67.0653 7.92188C67.2601 7.92188 67.4182 7.98938 67.5395 8.12438C67.6609 8.25563 67.7215 8.41125 67.7215 8.59125C67.7215 8.77125 67.6609 8.92875 67.5395 9.06376C67.4182 9.195 67.2601 9.26062 67.0653 9.26062ZM67.5064 16.32H66.602V10.56H67.5064V16.32ZM72.1442 15.9543C71.9789 16.1231 71.7969 16.2469 71.5984 16.3257C71.3998 16.4044 71.1664 16.4437 70.8979 16.4437C70.4531 16.4437 70.1093 16.3181 69.8667 16.0669C69.6241 15.8119 69.5027 15.4481 69.5027 14.9756V11.3475H68.5322V10.56H69.5027V9.19875L70.4071 9.03563V10.56H71.9182V11.3475H70.4071V14.8969C70.4071 15.1706 70.4586 15.3694 70.5616 15.4932C70.6645 15.6169 70.8263 15.6787 71.0468 15.6787C71.1571 15.6787 71.2619 15.6563 71.3612 15.6112C71.4642 15.5662 71.5708 15.48 71.6811 15.3525L72.1442 15.9543ZM78.3153 16.455C77.4366 16.455 76.7491 16.1888 76.2528 15.6563C75.7564 15.12 75.5083 14.4037 75.5083 13.5075C75.5083 12.5813 75.784 11.8369 76.3355 11.2743C76.8869 10.7081 77.5762 10.425 78.4034 10.425C79.2491 10.425 79.9182 10.7006 80.4108 11.2519C80.9072 11.7994 81.1554 12.5213 81.1554 13.4175C81.1554 14.2837 80.8998 15.0075 80.3888 15.5888C79.8814 16.1662 79.1903 16.455 78.3153 16.455ZM78.3649 15.6563C78.9347 15.6563 79.387 15.4631 79.7215 15.0769C80.0597 14.6869 80.2289 14.145 80.2289 13.4512C80.2289 12.7912 80.0597 12.2569 79.7215 11.8481C79.387 11.4356 78.9347 11.2294 78.3649 11.2294C77.795 11.2294 77.3299 11.4375 76.9697 11.8538C76.613 12.2662 76.4347 12.8062 76.4347 13.4738C76.4347 14.175 76.613 14.715 76.9697 15.0938C77.3299 15.4688 77.795 15.6563 78.3649 15.6563ZM87.1774 16.32H86.273V12.9C86.273 12.3338 86.1664 11.9138 85.9531 11.64C85.7399 11.3625 85.4219 11.2237 84.999 11.2237C84.5211 11.2237 84.1332 11.3963 83.8355 11.7413C83.5413 12.0825 83.3943 12.5138 83.3943 13.035V16.32H82.4898V10.56H83.3943V11.3813H83.4163C83.6296 11.0625 83.8906 10.8244 84.1994 10.6669C84.5083 10.5057 84.8649 10.425 85.2693 10.425C85.8869 10.425 86.3594 10.6294 86.6866 11.0381C87.0138 11.4431 87.1774 12.03 87.1774 12.7987V16.32Z" fill="#1C1A24"/>
<path d="M58.5248 35.9123C57.8238 36.4416 57.0116 36.8713 56.0882 37.2013C55.1648 37.5244 54.2043 37.686 53.2068 37.686C50.9758 37.686 49.2065 37.0157 47.8988 35.6751C46.5912 34.3344 45.9375 32.5297 45.9375 30.2609C45.9375 27.9304 46.5912 26.0397 47.8988 24.5891C49.2065 23.1316 50.905 22.4029 52.9944 22.4029C54.3559 22.4029 55.5018 22.6778 56.432 23.2279C57.3621 23.771 58.0664 24.5135 58.545 25.4554L56.5331 26.4453C56.1758 25.806 55.7074 25.3316 55.1277 25.0222C54.548 24.7128 53.8775 24.5582 53.1158 24.5582C51.7475 24.5582 50.632 25.0566 49.7693 26.0535C48.9132 27.0503 48.4853 28.391 48.4853 30.0754C48.4853 31.801 48.9132 33.1416 49.7693 34.0972C50.632 35.0529 51.7677 35.5307 53.1765 35.5307C53.7223 35.5307 54.2515 35.4619 54.7638 35.3245C55.276 35.1801 55.7276 34.9703 56.1185 34.6954V31.6325H52.9034V29.5185H58.5248V35.9123ZM65.0973 37.686C63.4594 37.686 62.1586 37.1944 61.1947 36.2113C60.2309 35.2282 59.749 33.9047 59.749 32.2409C59.7557 30.5566 60.2679 29.2023 61.2857 28.1778C62.3034 27.1466 63.6246 26.631 65.2489 26.631C66.8801 26.631 68.1674 27.1363 69.1111 28.1469C70.0547 29.1575 70.5265 30.4638 70.5265 32.0656C70.5265 33.7019 70.0278 35.0494 69.0302 36.1082C68.0393 37.1601 66.7284 37.686 65.0973 37.686ZM65.1882 35.7369C66.1184 35.7369 66.8396 35.4138 67.3519 34.7676C67.8641 34.1144 68.1203 33.2344 68.1203 32.1276C68.1203 31.0619 67.8608 30.2059 67.3417 29.5598C66.8295 28.9066 66.1117 28.5801 65.1882 28.5801C64.2648 28.5801 63.5268 28.9169 62.9741 29.5907C62.4215 30.2576 62.145 31.1238 62.145 32.1894C62.145 33.2963 62.4181 34.1659 62.964 34.7985C63.5099 35.4241 64.2514 35.7369 65.1882 35.7369ZM76.5632 37.686C74.9253 37.686 73.6245 37.1944 72.6606 36.2113C71.6967 35.2282 71.2149 33.9047 71.2149 32.2409C71.2216 30.5566 71.7338 29.2023 72.7516 28.1778C73.7693 27.1466 75.0904 26.631 76.7148 26.631C78.346 26.631 79.6333 27.1363 80.5769 28.1469C81.5206 29.1575 81.9924 30.4638 81.9924 32.0656C81.9924 33.7019 81.4936 35.0494 80.4961 36.1082C79.5052 37.1601 78.1943 37.686 76.5632 37.686ZM76.6541 35.7369C77.5843 35.7369 78.3055 35.4138 78.8178 34.7676C79.33 34.1144 79.5862 33.2344 79.5862 32.1276C79.5862 31.0619 79.3267 30.2059 78.8076 29.5598C78.2954 28.9066 77.5776 28.5801 76.6541 28.5801C75.7307 28.5801 74.9927 28.9169 74.44 29.5907C73.8873 30.2576 73.6109 31.1238 73.6109 32.1894C73.6109 33.2963 73.884 34.1659 74.4299 34.7985C74.9758 35.4241 75.7173 35.7369 76.6541 35.7369ZM92.9427 36.83C92.9427 38.6106 92.4675 39.9856 91.5171 40.9551C90.5735 41.9245 89.2625 42.4091 87.5842 42.4091C86.5125 42.4091 85.579 42.2131 84.7836 41.8213C83.9883 41.4363 83.321 40.8829 82.7818 40.1609L84.4904 38.8616C84.8814 39.4185 85.3228 39.8344 85.8149 40.1094C86.3137 40.3844 86.9135 40.5219 87.6145 40.5219C88.5514 40.5219 89.2793 40.247 89.7984 39.6969C90.324 39.1469 90.5869 38.3288 90.5869 37.2425V36.0256H90.5465C90.169 36.5688 89.7074 36.9813 89.1614 37.2632C88.6222 37.545 87.9515 37.686 87.1495 37.686C85.8014 37.686 84.7196 37.2254 83.9041 36.3041C83.0885 35.376 82.6807 34.0835 82.6807 32.4266C82.6807 30.6116 83.1458 29.1919 84.0759 28.1676C85.0128 27.1432 86.1856 26.631 87.5943 26.631C88.2076 26.631 88.7738 26.7478 89.2928 26.9816C89.8119 27.2153 90.2297 27.5522 90.5465 27.9923H90.5869V26.8785H92.9427V36.83ZM90.6071 32.5297V31.3025C90.6071 30.5463 90.3578 29.9034 89.859 29.3741C89.3603 28.8448 88.7165 28.5801 87.9279 28.5801C87.0518 28.5801 86.3575 28.9031 85.8453 29.5494C85.333 30.1957 85.0769 31.1169 85.0769 32.3131C85.0769 33.3788 85.3128 34.2176 85.7846 34.8294C86.2632 35.4344 86.9237 35.7369 87.7662 35.7369C88.6088 35.7369 89.2928 35.4413 89.8185 34.85C90.3443 34.2588 90.6071 33.4854 90.6071 32.5297ZM94.9552 37.4385V21.8047H97.311V37.4385H94.9552ZM108.2 32.7463H101.053C101.073 33.7638 101.343 34.5304 101.862 35.046C102.388 35.5548 103.031 35.8091 103.793 35.8091C104.332 35.8091 104.81 35.6819 105.228 35.4276C105.646 35.1663 106 34.7813 106.29 34.2725L108.1 35.2728C107.628 36.0428 107.025 36.6376 106.29 37.0569C105.562 37.4763 104.703 37.686 103.712 37.686C102.188 37.686 100.968 37.2184 100.052 36.2835C99.135 35.3485 98.6766 34.0045 98.6766 32.2513C98.6766 30.5806 99.1453 29.2263 100.082 28.1882C101.026 27.1501 102.205 26.631 103.621 26.631C105.077 26.631 106.202 27.0744 106.998 27.9613C107.799 28.8482 108.2 30.1338 108.2 31.8182V32.7463ZM105.926 31.0344C105.926 30.2094 105.724 29.57 105.319 29.1163C104.915 28.6625 104.362 28.4357 103.661 28.4357C102.927 28.4357 102.33 28.6866 101.872 29.1884C101.414 29.6835 101.137 30.2988 101.043 31.0344H105.926ZM116.21 32.2925V37.4385H113.803V22.6504H118.272C119.937 22.6504 121.214 23.0491 122.104 23.8466C123 24.6373 123.448 25.7785 123.448 27.2704C123.448 28.7897 122.95 30.0066 121.952 30.9209C120.955 31.8353 119.61 32.2925 117.918 32.2925H116.21ZM116.21 24.6613V30.2713H117.807C118.811 30.2713 119.58 30.0204 120.112 29.5185C120.651 29.0098 120.921 28.2948 120.921 27.3735C120.921 26.4866 120.668 25.8129 120.163 25.3523C119.664 24.8916 118.922 24.6613 117.939 24.6613H116.21ZM124.622 37.4385V21.8047H126.978V37.4385H124.622ZM136.918 37.4385H134.643V36.1288H134.602C134.238 36.6376 133.793 37.026 133.268 37.2941C132.742 37.5553 132.155 37.686 131.509 37.686C130.551 37.686 129.766 37.4076 129.153 36.8507C128.546 36.2938 128.243 35.565 128.243 34.6645C128.243 33.6951 128.546 32.9181 129.153 32.3338C129.766 31.7425 130.642 31.3816 131.782 31.251L134.652 30.9209V30.4157C134.652 29.7625 134.474 29.2744 134.117 28.9513C133.759 28.6213 133.291 28.4563 132.711 28.4563C132.138 28.4563 131.656 28.5869 131.266 28.8482C130.874 29.1094 130.551 29.4841 130.294 29.9723L128.535 29.0544C128.886 28.3463 129.439 27.7653 130.194 27.3116C130.949 26.8578 131.846 26.631 132.883 26.631C134.191 26.631 135.189 26.9816 135.876 27.6829C136.57 28.3772 136.918 29.3878 136.918 30.7147V37.4385ZM134.652 33.1484V32.571L132.155 32.8494C131.582 32.9113 131.164 33.0729 130.902 33.3341C130.639 33.5953 130.507 33.946 130.507 34.386C130.507 34.8328 130.656 35.1973 130.952 35.4791C131.255 35.7541 131.646 35.8916 132.125 35.8916C132.88 35.8916 133.49 35.6338 133.955 35.1182C134.42 34.5956 134.652 33.9391 134.652 33.1484ZM148.171 26.8785L143.358 39.5422C143.001 40.4841 142.519 41.1956 141.912 41.6769C141.313 42.165 140.582 42.4091 139.718 42.4091C139.301 42.4091 138.906 42.361 138.535 42.2647C138.171 42.1753 137.825 42.031 137.494 41.8316L138.516 40.1404C138.725 40.2641 138.913 40.3501 139.081 40.3982C139.25 40.4532 139.426 40.4806 139.607 40.4806C139.924 40.4806 140.194 40.3982 140.416 40.2331C140.646 40.075 140.851 39.7829 141.033 39.3566L141.791 37.5622L137.727 26.8785H140.294L142.671 33.8806C142.745 34.0938 142.802 34.2829 142.842 34.4479C142.883 34.6128 142.93 34.8157 142.984 35.0563H143.034C143.082 34.8157 143.129 34.6163 143.176 34.4582C143.23 34.3 143.291 34.1144 143.358 33.9013L145.754 26.8785H148.171Z" fill="#1C1A24"/>
<defs>
<linearGradient id="paint0_linear_809_3785" x1="32.8303" y1="2.58978" x2="4.41705" y2="10.0173" gradientUnits="userSpaceOnUse">
<stop stop-color="#047ED6"/>
<stop offset="1" stop-color="#50E6FF"/>
</linearGradient>
<linearGradient id="paint1_linear_809_3785" x1="36.5836" y1="23.9956" x2="21.8912" y2="23.9956" gradientUnits="userSpaceOnUse">
<stop stop-color="#FFDA1C"/>
<stop offset="1" stop-color="#FEB705"/>
</linearGradient>
<linearGradient id="paint2_linear_809_3785" x1="27.0306" y1="26.4772" x2="9.64677" y2="55.1666" gradientUnits="userSpaceOnUse">
<stop stop-color="#D9414F"/>
<stop offset="1" stop-color="#8C193F"/>
</linearGradient>
<linearGradient id="paint3_linear_809_3785" x1="8.44842" y1="2.56158" x2="16.2036" y2="15.3762" gradientUnits="userSpaceOnUse">
<stop stop-color="#33C481"/>
<stop offset="1" stop-color="#61E3A7"/>
</linearGradient>
</defs>
</svg>
