<svg width="904" height="224" viewBox="0 0 904 224" fill="none" xmlns="http://www.w3.org/2000/svg">
<path d="M17.2858 9.5H11.5378V8.696C11.5378 7.28 11.8018 6.332 14.1898 5.3C15.7978 4.592 16.0978 4.184 16.0978 3.224V3.176C16.0978 2.348 15.4978 1.76 14.5018 1.76C13.4218 1.76 12.7738 2.396 12.7138 3.452H11.6218C11.7058 1.88 12.8098 0.835999 14.5018 0.835999C16.0858 0.835999 17.1898 1.832 17.1898 3.164V3.236C17.1898 4.424 16.7578 5.192 14.6938 6.116C12.9058 6.908 12.6778 7.436 12.6658 8.564H17.2858V9.5ZM21.1584 9.644C19.1784 9.644 18.0624 8.084 18.0624 5.36V5.12C18.0624 2.408 19.1904 0.835999 21.1584 0.835999C23.1504 0.835999 24.2664 2.408 24.2664 5.12V5.36C24.2664 8.084 23.1504 9.644 21.1584 9.644ZM21.1584 8.732C22.4544 8.732 23.1744 7.676 23.1744 5.444V5.024C23.1744 2.816 22.4544 1.748 21.1584 1.748C19.8864 1.748 19.1544 2.816 19.1544 5.024V5.444C19.1544 7.676 19.8864 8.732 21.1584 8.732ZM28.3012 9.644C26.3212 9.644 25.2052 8.084 25.2052 5.36V5.12C25.2052 2.408 26.3332 0.835999 28.3012 0.835999C30.2932 0.835999 31.4092 2.408 31.4092 5.12V5.36C31.4092 8.084 30.2932 9.644 28.3012 9.644ZM28.3012 8.732C29.5972 8.732 30.3172 7.676 30.3172 5.444V5.024C30.3172 2.816 29.5972 1.748 28.3012 1.748C27.0292 1.748 26.2972 2.816 26.2972 5.024V5.444C26.2972 7.676 27.0292 8.732 28.3012 8.732Z" fill="#8D8B93"/>
<path d="M16.8059 54H15.7739V47.028C15.2819 47.52 14.7059 47.844 14.0459 48.024V47.004C14.8379 46.764 15.4859 46.248 15.9899 45.48H16.8059V54ZM21.3353 54.144C19.6793 54.144 18.4553 53.172 18.3353 51.6H19.4393C19.5233 52.68 20.3753 53.232 21.3593 53.232C22.4873 53.232 23.2913 52.476 23.2913 51.36V51.156C23.2913 50.064 22.5113 49.332 21.3713 49.332C20.5913 49.332 19.9073 49.716 19.5833 50.268L18.6593 50.196L19.4153 45.48H24.0113V46.416H20.2193L19.7633 49.152C20.1953 48.72 20.8673 48.456 21.5993 48.456C23.1593 48.456 24.3593 49.548 24.3593 51.168V51.312C24.3593 52.968 23.0993 54.144 21.3353 54.144ZM28.3012 54.144C26.3212 54.144 25.2052 52.584 25.2052 49.86V49.62C25.2052 46.908 26.3332 45.336 28.3012 45.336C30.2932 45.336 31.4092 46.908 31.4092 49.62V49.86C31.4092 52.584 30.2932 54.144 28.3012 54.144ZM28.3012 53.232C29.5972 53.232 30.3172 52.176 30.3172 49.944V49.524C30.3172 47.316 29.5972 46.248 28.3012 46.248C27.0292 46.248 26.2972 47.316 26.2972 49.524V49.944C26.2972 52.176 27.0292 53.232 28.3012 53.232Z" fill="#8D8B93"/>
<path d="M16.6536 98.5H15.6216V91.528C15.1296 92.02 14.5536 92.344 13.8936 92.524V91.504C14.6856 91.264 15.3336 90.748 15.8376 89.98H16.6536V98.5ZM21.1584 98.644C19.1784 98.644 18.0624 97.084 18.0624 94.36V94.12C18.0624 91.408 19.1904 89.836 21.1584 89.836C23.1504 89.836 24.2664 91.408 24.2664 94.12V94.36C24.2664 97.084 23.1504 98.644 21.1584 98.644ZM21.1584 97.732C22.4544 97.732 23.1744 96.676 23.1744 94.444V94.024C23.1744 91.816 22.4544 90.748 21.1584 90.748C19.8864 90.748 19.1544 91.816 19.1544 94.024V94.444C19.1544 96.676 19.8864 97.732 21.1584 97.732ZM28.3012 98.644C26.3212 98.644 25.2052 97.084 25.2052 94.36V94.12C25.2052 91.408 26.3332 89.836 28.3012 89.836C30.2932 89.836 31.4092 91.408 31.4092 94.12V94.36C31.4092 97.084 30.2932 98.644 28.3012 98.644ZM28.3012 97.732C29.5972 97.732 30.3172 96.676 30.3172 94.444V94.024C30.3172 91.816 29.5972 90.748 28.3012 90.748C27.0292 90.748 26.2972 91.816 26.2972 94.024V94.444C26.2972 96.676 27.0292 97.732 28.3012 97.732Z" fill="#8D8B93"/>
<path d="M21.3353 143.144C19.6793 143.144 18.4553 142.172 18.3353 140.6H19.4393C19.5233 141.68 20.3753 142.232 21.3593 142.232C22.4873 142.232 23.2913 141.476 23.2913 140.36V140.156C23.2913 139.064 22.5113 138.332 21.3713 138.332C20.5913 138.332 19.9073 138.716 19.5833 139.268L18.6593 139.196L19.4153 134.48H24.0113V135.416H20.2193L19.7633 138.152C20.1953 137.72 20.8673 137.456 21.5993 137.456C23.1593 137.456 24.3593 138.548 24.3593 140.168V140.312C24.3593 141.968 23.0993 143.144 21.3353 143.144ZM28.3012 143.144C26.3212 143.144 25.2052 141.584 25.2052 138.86V138.62C25.2052 135.908 26.3332 134.336 28.3012 134.336C30.2932 134.336 31.4092 135.908 31.4092 138.62V138.86C31.4092 141.584 30.2932 143.144 28.3012 143.144ZM28.3012 142.232C29.5972 142.232 30.3172 141.176 30.3172 138.944V138.524C30.3172 136.316 29.5972 135.248 28.3012 135.248C27.0292 135.248 26.2972 136.316 26.2972 138.524V138.944C26.2972 141.176 27.0292 142.232 28.3012 142.232Z" fill="#8D8B93"/>
<path d="M28.3012 187.644C26.3212 187.644 25.2052 186.084 25.2052 183.36V183.12C25.2052 180.408 26.3332 178.836 28.3012 178.836C30.2932 178.836 31.4092 180.408 31.4092 183.12V183.36C31.4092 186.084 30.2932 187.644 28.3012 187.644ZM28.3012 186.732C29.5972 186.732 30.3172 185.676 30.3172 183.444V183.024C30.3172 180.816 29.5972 179.748 28.3012 179.748C27.0292 179.748 26.2972 180.816 26.2972 183.024V183.444C26.2972 185.676 27.0292 186.732 28.3012 186.732Z" fill="#8D8B93"/>
<rect x="40" y="183" width="864" height="1" fill="#F2F2F3"/>
<rect x="40" y="139" width="864" height="1" fill="#F2F2F3"/>
<rect x="40" y="94" width="864" height="1" fill="#F2F2F3"/>
<rect x="40" y="49" width="864" height="1" fill="#F2F2F3"/>
<rect x="40" y="5" width="864" height="1" fill="#F2F2F3"/>
<path d="M473.763 78.6579C449.877 78.6579 374.58 94.3947 342.4 94.3947C310.22 94.3947 265.257 138.868 222.498 138.868C179.739 138.868 123.755 91.6579 95.102 91.6579C66.449 91.6579 40 113.553 40 113.553V183H904V80.7105C880.113 80.7105 862.945 66 839.641 66C816.337 66 747.51 132.026 716.653 132.026C685.796 132.026 646.757 80.8947 610.963 94.3947C575.17 107.895 497.65 78.6579 473.763 78.6579Z" fill="url(#paint0_linear_727_4652)"/>
<path d="M904 80.7371C880.113 80.7371 862.945 66 839.641 66C816.337 66 747.51 132.146 716.653 132.146C685.796 132.146 649.117 80.7371 615.29 94.446C581.463 108.155 497.65 78.6808 473.763 78.6808C449.877 78.6808 374.58 94.446 342.4 94.446C310.22 94.446 265.257 139 222.498 139C179.739 139 123.755 91.7042 95.102 91.7042C66.449 91.7042 40 113.639 40 113.639" stroke="#53B669" stroke-width="2"/>
<path d="M90.722 204H89.69V197.028C89.198 197.52 88.622 197.844 87.962 198.024V197.004C88.754 196.764 89.402 196.248 89.906 195.48H90.722V204ZM97.8056 204H92.0576V203.196C92.0576 201.78 92.3216 200.832 94.7096 199.8C96.3176 199.092 96.6176 198.684 96.6176 197.724V197.676C96.6176 196.848 96.0176 196.26 95.0216 196.26C93.9416 196.26 93.2936 196.896 93.2336 197.952H92.1416C92.2256 196.38 93.3296 195.336 95.0216 195.336C96.6056 195.336 97.7096 196.332 97.7096 197.664V197.736C97.7096 198.924 97.2776 199.692 95.2136 200.616C93.4256 201.408 93.1976 201.936 93.1856 203.064H97.8056V204ZM100.49 199.236H99.1701V197.832H100.49V199.236ZM100.49 204H99.1701V202.596H100.49V204ZM105.106 204.144C103.126 204.144 102.01 202.584 102.01 199.86V199.62C102.01 196.908 103.138 195.336 105.106 195.336C107.098 195.336 108.214 196.908 108.214 199.62V199.86C108.214 202.584 107.098 204.144 105.106 204.144ZM105.106 203.232C106.402 203.232 107.122 202.176 107.122 199.944V199.524C107.122 197.316 106.402 196.248 105.106 196.248C103.834 196.248 103.102 197.316 103.102 199.524V199.944C103.102 202.176 103.834 203.232 105.106 203.232ZM112.249 204.144C110.269 204.144 109.153 202.584 109.153 199.86V199.62C109.153 196.908 110.281 195.336 112.249 195.336C114.241 195.336 115.357 196.908 115.357 199.62V199.86C115.357 202.584 114.241 204.144 112.249 204.144ZM112.249 203.232C113.545 203.232 114.265 202.176 114.265 199.944V199.524C114.265 197.316 113.545 196.248 112.249 196.248C110.977 196.248 110.245 197.316 110.245 199.524V199.944C110.245 202.176 110.977 203.232 112.249 203.232Z" fill="#8D8B93"/>
<path d="M213.829 204H212.797V197.028C212.305 197.52 211.729 197.844 211.069 198.024V197.004C211.861 196.764 212.509 196.248 213.013 195.48H213.829V204ZM218.359 204.144C216.523 204.144 215.347 203.16 215.251 201.516H216.343C216.451 202.632 217.171 203.184 218.383 203.184C219.427 203.184 220.279 202.644 220.279 201.684V201.468C220.279 200.52 219.511 200.052 218.479 200.052H217.543V199.152H218.455C219.319 199.152 220.039 198.696 220.039 197.796V197.592C220.039 196.788 219.331 196.26 218.383 196.26C217.255 196.26 216.595 196.86 216.523 197.952H215.455C215.527 196.38 216.691 195.336 218.371 195.336C219.919 195.336 221.083 196.248 221.083 197.58V197.724C221.083 198.636 220.519 199.284 219.703 199.548C220.663 199.764 221.359 200.472 221.359 201.54V201.684C221.359 203.136 220.063 204.144 218.359 204.144ZM224.242 199.236H222.922V197.832H224.242V199.236ZM224.242 204H222.922V202.596H224.242V204ZM228.858 204.144C226.878 204.144 225.762 202.584 225.762 199.86V199.62C225.762 196.908 226.89 195.336 228.858 195.336C230.85 195.336 231.966 196.908 231.966 199.62V199.86C231.966 202.584 230.85 204.144 228.858 204.144ZM228.858 203.232C230.154 203.232 230.874 202.176 230.874 199.944V199.524C230.874 197.316 230.154 196.248 228.858 196.248C227.586 196.248 226.854 197.316 226.854 199.524V199.944C226.854 202.176 227.586 203.232 228.858 203.232ZM236.001 204.144C234.021 204.144 232.905 202.584 232.905 199.86V199.62C232.905 196.908 234.033 195.336 236.001 195.336C237.993 195.336 239.109 196.908 239.109 199.62V199.86C239.109 202.584 237.993 204.144 236.001 204.144ZM236.001 203.232C237.297 203.232 238.017 202.176 238.017 199.944V199.524C238.017 197.316 237.297 196.248 236.001 196.248C234.729 196.248 233.997 197.316 233.997 199.524V199.944C233.997 202.176 234.729 203.232 236.001 203.232Z" fill="#8D8B93"/>
<path d="M337.226 204H336.194V197.028C335.702 197.52 335.126 197.844 334.466 198.024V197.004C335.258 196.764 335.906 196.248 336.41 195.48H337.226V204ZM343.746 204H342.702V201.852H338.394V200.952L342.702 195.48H343.746V200.952H344.97V201.852H343.746V204ZM342.702 196.884L339.438 200.964H342.702V196.884ZM347.697 199.236H346.377V197.832H347.697V199.236ZM347.697 204H346.377V202.596H347.697V204ZM352.313 204.144C350.333 204.144 349.217 202.584 349.217 199.86V199.62C349.217 196.908 350.345 195.336 352.313 195.336C354.305 195.336 355.421 196.908 355.421 199.62V199.86C355.421 202.584 354.305 204.144 352.313 204.144ZM352.313 203.232C353.609 203.232 354.329 202.176 354.329 199.944V199.524C354.329 197.316 353.609 196.248 352.313 196.248C351.041 196.248 350.309 197.316 350.309 199.524V199.944C350.309 202.176 351.041 203.232 352.313 203.232ZM359.456 204.144C357.476 204.144 356.36 202.584 356.36 199.86V199.62C356.36 196.908 357.488 195.336 359.456 195.336C361.448 195.336 362.564 196.908 362.564 199.62V199.86C362.564 202.584 361.448 204.144 359.456 204.144ZM359.456 203.232C360.752 203.232 361.472 202.176 361.472 199.944V199.524C361.472 197.316 360.752 196.248 359.456 196.248C358.184 196.248 357.452 197.316 357.452 199.524V199.944C357.452 202.176 358.184 203.232 359.456 203.232Z" fill="#8D8B93"/>
<path d="M460.673 204H459.641V197.028C459.149 197.52 458.573 197.844 457.913 198.024V197.004C458.705 196.764 459.353 196.248 459.857 195.48H460.673V204ZM465.202 204.144C463.546 204.144 462.322 203.172 462.202 201.6H463.306C463.39 202.68 464.242 203.232 465.226 203.232C466.354 203.232 467.158 202.476 467.158 201.36V201.156C467.158 200.064 466.378 199.332 465.238 199.332C464.458 199.332 463.774 199.716 463.45 200.268L462.526 200.196L463.282 195.48H467.878V196.416H464.086L463.63 199.152C464.062 198.72 464.734 198.456 465.466 198.456C467.026 198.456 468.226 199.548 468.226 201.168V201.312C468.226 202.968 466.966 204.144 465.202 204.144ZM471.109 199.236H469.789V197.832H471.109V199.236ZM471.109 204H469.789V202.596H471.109V204ZM475.725 204.144C473.745 204.144 472.629 202.584 472.629 199.86V199.62C472.629 196.908 473.757 195.336 475.725 195.336C477.717 195.336 478.833 196.908 478.833 199.62V199.86C478.833 202.584 477.717 204.144 475.725 204.144ZM475.725 203.232C477.021 203.232 477.741 202.176 477.741 199.944V199.524C477.741 197.316 477.021 196.248 475.725 196.248C474.453 196.248 473.721 197.316 473.721 199.524V199.944C473.721 202.176 474.453 203.232 475.725 203.232ZM482.868 204.144C480.888 204.144 479.772 202.584 479.772 199.86V199.62C479.772 196.908 480.9 195.336 482.868 195.336C484.86 195.336 485.976 196.908 485.976 199.62V199.86C485.976 202.584 484.86 204.144 482.868 204.144ZM482.868 203.232C484.164 203.232 484.884 202.176 484.884 199.944V199.524C484.884 197.316 484.164 196.248 482.868 196.248C481.596 196.248 480.864 197.316 480.864 199.524V199.944C480.864 202.176 481.596 203.232 482.868 203.232Z" fill="#8D8B93"/>
<path d="M584.103 204H583.071V197.028C582.579 197.52 582.003 197.844 581.343 198.024V197.004C582.135 196.764 582.783 196.248 583.287 195.48H584.103V204ZM588.716 204.144C586.808 204.144 585.572 202.704 585.572 199.944V199.5C585.572 196.884 586.712 195.336 588.728 195.336C590.276 195.336 591.344 196.224 591.572 197.676H590.528C590.36 196.728 589.712 196.212 588.728 196.212C587.384 196.212 586.556 197.1 586.556 199.608V199.872C586.88 199.128 587.72 198.516 588.896 198.516C590.42 198.516 591.644 199.548 591.644 201.168V201.312C591.644 202.944 590.42 204.144 588.716 204.144ZM588.728 203.244C589.784 203.244 590.564 202.512 590.564 201.36V201.156C590.564 200.1 589.82 199.404 588.716 199.404C587.612 199.404 586.82 200.148 586.82 201.18V201.36C586.82 202.452 587.624 203.244 588.728 203.244ZM594.539 199.236H593.219V197.832H594.539V199.236ZM594.539 204H593.219V202.596H594.539V204ZM599.155 204.144C597.175 204.144 596.059 202.584 596.059 199.86V199.62C596.059 196.908 597.187 195.336 599.155 195.336C601.147 195.336 602.263 196.908 602.263 199.62V199.86C602.263 202.584 601.147 204.144 599.155 204.144ZM599.155 203.232C600.451 203.232 601.171 202.176 601.171 199.944V199.524C601.171 197.316 600.451 196.248 599.155 196.248C597.883 196.248 597.151 197.316 597.151 199.524V199.944C597.151 202.176 597.883 203.232 599.155 203.232ZM606.298 204.144C604.318 204.144 603.202 202.584 603.202 199.86V199.62C603.202 196.908 604.33 195.336 606.298 195.336C608.29 195.336 609.406 196.908 609.406 199.62V199.86C609.406 202.584 608.29 204.144 606.298 204.144ZM606.298 203.232C607.594 203.232 608.314 202.176 608.314 199.944V199.524C608.314 197.316 607.594 196.248 606.298 196.248C605.026 196.248 604.294 197.316 604.294 199.524V199.944C604.294 202.176 605.026 203.232 606.298 203.232Z" fill="#8D8B93"/>
<path d="M707.913 204H706.881V197.028C706.389 197.52 705.813 197.844 705.153 198.024V197.004C705.945 196.764 706.593 196.248 707.097 195.48H707.913V204ZM711.542 204H710.402C710.834 201.312 711.95 198.864 713.81 196.416H709.214V195.48H715.046V196.284C713.102 198.72 711.938 201.252 711.542 204ZM717.588 199.236H716.268V197.832H717.588V199.236ZM717.588 204H716.268V202.596H717.588V204ZM722.204 204.144C720.224 204.144 719.108 202.584 719.108 199.86V199.62C719.108 196.908 720.236 195.336 722.204 195.336C724.196 195.336 725.312 196.908 725.312 199.62V199.86C725.312 202.584 724.196 204.144 722.204 204.144ZM722.204 203.232C723.5 203.232 724.22 202.176 724.22 199.944V199.524C724.22 197.316 723.5 196.248 722.204 196.248C720.932 196.248 720.2 197.316 720.2 199.524V199.944C720.2 202.176 720.932 203.232 722.204 203.232ZM729.347 204.144C727.367 204.144 726.251 202.584 726.251 199.86V199.62C726.251 196.908 727.379 195.336 729.347 195.336C731.339 195.336 732.455 196.908 732.455 199.62V199.86C732.455 202.584 731.339 204.144 729.347 204.144ZM729.347 203.232C730.643 203.232 731.363 202.176 731.363 199.944V199.524C731.363 197.316 730.643 196.248 729.347 196.248C728.075 196.248 727.343 197.316 727.343 199.524V199.944C727.343 202.176 728.075 203.232 729.347 203.232Z" fill="#8D8B93"/>
<path d="M830.952 204H829.92V197.028C829.428 197.52 828.852 197.844 828.192 198.024V197.004C828.984 196.764 829.632 196.248 830.136 195.48H830.952V204ZM835.445 204.144C833.693 204.144 832.397 203.208 832.397 201.732V201.612C832.397 200.532 833.141 199.8 834.065 199.536C833.273 199.236 832.709 198.564 832.709 197.676V197.556C832.709 196.248 833.897 195.336 835.445 195.336C836.993 195.336 838.193 196.248 838.193 197.556V197.676C838.193 198.564 837.617 199.236 836.825 199.536C837.737 199.8 838.505 200.532 838.505 201.612V201.732C838.505 203.208 837.221 204.144 835.445 204.144ZM835.445 199.104C836.393 199.104 837.149 198.6 837.149 197.724V197.604C837.149 196.716 836.417 196.224 835.445 196.224C834.497 196.224 833.753 196.716 833.753 197.604V197.724C833.753 198.6 834.497 199.104 835.445 199.104ZM835.445 203.232C836.573 203.232 837.413 202.668 837.413 201.684V201.564C837.413 200.58 836.549 200.016 835.445 200.016C834.353 200.016 833.501 200.58 833.501 201.564V201.684C833.501 202.668 834.329 203.232 835.445 203.232ZM841.4 199.236H840.08V197.832H841.4V199.236ZM841.4 204H840.08V202.596H841.4V204ZM846.016 204.144C844.036 204.144 842.92 202.584 842.92 199.86V199.62C842.92 196.908 844.048 195.336 846.016 195.336C848.008 195.336 849.124 196.908 849.124 199.62V199.86C849.124 202.584 848.008 204.144 846.016 204.144ZM846.016 203.232C847.312 203.232 848.032 202.176 848.032 199.944V199.524C848.032 197.316 847.312 196.248 846.016 196.248C844.744 196.248 844.012 197.316 844.012 199.524V199.944C844.012 202.176 844.744 203.232 846.016 203.232ZM853.159 204.144C851.179 204.144 850.063 202.584 850.063 199.86V199.62C850.063 196.908 851.191 195.336 853.159 195.336C855.151 195.336 856.267 196.908 856.267 199.62V199.86C856.267 202.584 855.151 204.144 853.159 204.144ZM853.159 203.232C854.455 203.232 855.175 202.176 855.175 199.944V199.524C855.175 197.316 854.455 196.248 853.159 196.248C851.887 196.248 851.155 197.316 851.155 199.524V199.944C851.155 202.176 851.887 203.232 853.159 203.232Z" fill="#8D8B93"/>
<defs>
<linearGradient id="paint0_linear_727_4652" x1="472" y1="63.2315" x2="472" y2="183" gradientUnits="userSpaceOnUse">
<stop stop-color="#53B669"/>
<stop offset="1" stop-color="white" stop-opacity="0"/>
</linearGradient>
</defs>
</svg>
