<svg width="372" height="56" viewBox="0 0 372 56" fill="none" xmlns="http://www.w3.org/2000/svg">
<rect x="1" y="55.6875" width="371" height="0.312859" fill="#F2F2F3"/>
<rect x="1" y="41.9219" width="371" height="0.312859" fill="#F2F2F3"/>
<rect x="1" y="27.8398" width="371" height="0.312859" fill="#F2F2F3"/>
<rect x="1" y="13.7656" width="371" height="0.312859" fill="#F2F2F3"/>
<rect x="1" width="371" height="0.312859" fill="#F2F2F3"/>
<path d="M187.257 23.0422C177 23.0422 144.668 27.9656 130.85 27.9656C117.032 27.9656 97.725 41.8796 79.3643 41.8796C61.0036 41.8796 36.9643 27.1093 24.6607 27.1093C12.3571 27.1093 1 33.9593 1 33.9593V55.6866H372V23.6844C361.743 23.6844 354.371 19.082 344.364 19.082C334.358 19.082 304.804 39.739 291.554 39.739C278.304 39.739 261.54 23.742 246.171 27.9656C230.801 32.1892 197.514 23.0422 187.257 23.0422Z" fill="url(#paint0_linear_727_2997)"/>
<path d="M372 23.6927C361.743 23.6927 354.371 19.082 344.364 19.082C334.358 19.082 304.804 39.7763 291.554 39.7763C278.304 39.7763 262.554 23.6927 248.028 27.9816C233.503 32.2706 197.514 23.0493 187.257 23.0493C177 23.0493 144.668 27.9816 130.85 27.9816C117.032 27.9816 97.725 41.9208 79.3643 41.9208C61.0036 41.9208 36.9643 27.1238 24.6607 27.1238C12.3571 27.1238 1 33.9862 1 33.9862" stroke="#53B669" stroke-width="2"/>
<defs>
<linearGradient id="paint0_linear_727_2997" x1="186.5" y1="18.2159" x2="186.5" y2="55.6866" gradientUnits="userSpaceOnUse">
<stop stop-color="#53B669"/>
<stop offset="1" stop-color="white" stop-opacity="0"/>
</linearGradient>
</defs>
</svg>
