<svg width="176" height="52" viewBox="0 0 176 52" fill="none" xmlns="http://www.w3.org/2000/svg">
<path fill-rule="evenodd" clip-rule="evenodd" d="M94.6602 0.0248397C90.4454 0.231693 87.6219 1.06734 85.6993 2.67694C84.1109 4.00678 83.1463 5.99371 82.8151 8.61791C82.7225 9.35221 82.6762 10.1737 82.6548 11.4643C82.6396 12.3827 82.6216 12.5548 82.5234 12.7225C82.3943 12.9428 82.1488 13.099 81.8679 13.1396C81.7743 13.1531 81.0568 13.1624 80.0895 13.1627C79.0134 13.163 78.4231 13.1714 78.3345 13.1878C77.9844 13.2523 77.7134 13.5032 77.6353 13.8349C77.6111 13.9379 77.6053 14.6739 77.6051 17.7212C77.6047 21.8652 77.5957 21.598 77.7433 21.8305C77.8896 22.061 78.0997 22.1887 78.3995 22.2296C78.5102 22.2447 79.1733 22.2538 80.1883 22.254C81.9724 22.2545 82.0068 22.2568 82.2351 22.3939C82.4047 22.4957 82.5283 22.6538 82.6083 22.8711C82.6269 22.9217 82.6366 26.5836 82.6449 36.6881C82.6561 50.4363 82.6561 50.4363 82.7063 50.5826C82.7698 50.7674 82.893 50.9302 83.0507 51.0377C83.2916 51.202 82.8407 51.1902 88.8541 51.1899C93.2972 51.1896 94.2866 51.1842 94.3789 51.1596C94.6842 51.078 94.8913 50.8841 95.0063 50.572C95.0247 50.5222 95.0345 46.7979 95.0427 36.7556C95.054 23.0074 95.054 23.0074 95.1042 22.8612C95.1957 22.5948 95.3963 22.3933 95.6581 22.3049C95.7649 22.2688 95.9934 22.2647 98.5753 22.2527C100.461 22.2439 101.404 22.2318 101.46 22.2156C101.698 22.1464 101.919 21.9741 102.018 21.7818C102.132 21.5567 102.13 21.6565 102.13 17.7084C102.13 13.6995 102.134 13.8517 102.003 13.6103C101.9 13.4221 101.701 13.2658 101.478 13.2002C101.426 13.1849 100.378 13.1725 98.429 13.1642C95.4759 13.1517 95.4582 13.1514 95.3194 13.1038C95.0689 13.018 94.9087 12.869 94.7906 12.6119C94.7409 12.5036 94.739 12.4783 94.7411 11.9368C94.7434 11.3253 94.7764 10.9895 94.8745 10.5796C95.1785 9.30952 96.0954 8.52088 97.6255 8.21338C98.5398 8.02963 99.5107 7.99269 100.806 8.09241C101.372 8.13595 101.483 8.12522 101.709 8.00533C101.95 7.87705 102.104 7.65132 102.152 7.35784C102.183 7.16037 102.184 1.48352 102.152 1.20689C102.107 0.808713 101.888 0.529631 101.534 0.418228C101.328 0.353447 100.113 0.21529 98.6541 0.0908132C97.6516 0.00528617 95.7116 -0.0267555 94.6602 0.0248397ZM0.652519 0.842195C0.366873 0.921692 0.17015 1.1044 0.0556441 1.3966C0 1.53856 0 1.53856 0 26.0001C0 50.4616 0 50.4616 0.0548566 50.6016C0.17375 50.9049 0.36469 51.0799 0.663769 51.1596C0.830904 51.2042 11.9724 51.2041 12.1391 51.1596C12.4443 51.078 12.6514 50.8841 12.7665 50.572C12.7849 50.5221 12.7946 45.2701 12.8029 30.9616C12.8136 12.2965 12.8159 11.4132 12.8542 11.2843C12.9314 11.0246 13.1368 10.7991 13.3654 10.7229C13.5505 10.6613 13.7728 10.6443 14.8954 10.606C16.8752 10.5385 18.3791 10.5551 19.4293 10.656C21.8614 10.8898 23.6617 11.6324 24.9798 12.9456C25.4552 13.4192 25.8283 13.9335 26.1339 14.5362C26.6271 15.5091 26.8883 16.5508 26.9802 17.9109C27.0133 18.4008 26.9947 19.6731 26.9451 20.3185C26.6738 23.8495 25.6009 26.9835 23.6983 29.8028C22.7435 31.2177 21.6813 32.4129 20.1268 33.8214C18.7847 35.0375 18.7168 35.1105 18.6413 35.4186C18.5461 35.8074 18.7082 36.1514 19.0737 36.3359C19.3026 36.4515 19.3757 36.4562 20.9368 36.4577C22.354 36.459 22.8442 36.4438 23.7044 36.3721C27.8323 36.0282 31.3496 34.6774 34.0997 32.38C36.774 30.146 38.658 27.0011 39.4517 23.4462C39.8052 21.8627 39.9476 20.493 39.9476 18.6759C39.9476 17.7046 39.9289 17.2438 39.8584 16.4821C39.5765 13.4351 38.7051 10.8456 37.1437 8.41494C36.309 7.11566 35.2333 5.90084 34.0359 4.90532C32.51 3.63666 30.5687 2.56066 28.6107 1.89831C26.7972 1.28482 24.9847 0.951573 22.8156 0.832812C22.155 0.79663 0.78372 0.805676 0.652519 0.842195ZM57.679 12.3775C55.3697 12.4546 53.201 12.7883 51.3294 13.3545C48.6803 14.1559 46.3695 15.497 44.7299 17.1843C42.8407 19.1285 41.7245 21.4935 41.3786 24.285C41.3261 24.7087 41.3218 24.9268 41.3641 25.028C41.4043 25.1241 41.5367 25.2381 41.6425 25.2674C41.7006 25.2836 43.312 25.2909 46.7451 25.2908C52.2729 25.2905 51.9504 25.2988 52.1971 25.151C52.3715 25.0465 52.4632 24.9117 52.7171 24.3861C52.8402 24.1314 52.9932 23.8385 53.0573 23.7352C53.5378 22.9604 54.2963 22.3272 55.1776 21.9651C56.0727 21.5973 57.2477 21.4141 58.4679 21.452C60.17 21.5049 61.3646 21.9399 62.2471 22.8282C63.083 23.6696 63.4299 24.8208 63.4032 26.6644C63.3956 27.1938 63.3956 27.1938 63.3222 27.3426C63.1875 27.6161 62.955 27.7834 62.6418 27.8324C62.5613 27.8449 60.678 27.972 58.4567 28.1146C56.2353 28.2573 54.2355 28.3896 54.0128 28.4086C50.6235 28.6976 47.8189 29.4137 45.4738 30.5887C43.7196 31.4676 42.3518 32.5719 41.3286 33.9351C40.6269 34.87 40.0851 36.0301 39.7837 37.2427C39.5455 38.2013 39.4443 39.0836 39.4438 40.2054C39.4434 41.3132 39.5427 42.1785 39.7813 43.146C40.2375 44.9962 41.1263 46.5909 42.47 47.9699C44.4718 50.0243 47.1411 51.2673 50.3002 51.6161C51.0285 51.6965 51.4328 51.7167 52.2915 51.7156C53.3549 51.7142 53.9746 51.666 54.8673 51.5152C56.7841 51.1914 58.5909 50.4323 60.0536 49.3363C61.1472 48.5169 62.0559 47.5436 62.8395 46.3524C62.9819 46.1358 63.119 45.9358 63.1441 45.908C63.2069 45.8382 63.3014 45.8419 63.3602 45.9166C63.4066 45.9757 63.4068 45.9849 63.4068 48.1231C63.4068 50.3637 63.4118 50.4965 63.5039 50.6951C63.5761 50.8508 63.7973 51.0599 63.9581 51.1246C64.0931 51.1789 64.0931 51.1789 69.6057 51.1789C75.1184 51.1789 75.1184 51.1789 75.2486 51.1264C75.4163 51.0587 75.6196 50.8715 75.6969 50.7137C75.73 50.646 75.7667 50.5155 75.7811 50.4138C75.8001 50.2805 75.8048 46.8739 75.7993 37.2844C75.7924 25.1749 75.7894 24.3124 75.7529 23.9874C75.5783 22.4328 75.2375 21.2436 74.611 20.0035C73.7032 18.2065 72.2442 16.5934 70.4495 15.4026C69.4943 14.7688 68.2703 14.1499 67.1082 13.7131C64.4152 12.7008 61.2833 12.2572 57.679 12.3775ZM119.838 12.3774C115.865 12.5125 112.589 13.3412 109.866 14.8998C108.761 15.5316 107.846 16.2238 107 17.0669C106.366 17.6985 105.885 18.2879 105.41 19.0135C104.864 19.8498 104.398 20.8153 104.087 21.7586C103.766 22.731 103.502 24.0565 103.495 24.732C103.492 25.0165 103.492 25.0165 103.562 25.1033C103.6 25.151 103.666 25.2103 103.708 25.235C103.784 25.2796 103.83 25.2801 108.842 25.2859C114.426 25.2923 114.094 25.3004 114.344 25.1511C114.517 25.0474 114.61 24.9115 114.854 24.4074C115.206 23.6796 115.415 23.3684 115.823 22.9627C116.508 22.2825 117.367 21.8465 118.456 21.6266C119.831 21.349 121.478 21.3977 122.583 21.7487C124.125 22.2389 125.103 23.2954 125.406 24.7982C125.514 25.3356 125.539 25.627 125.54 26.4276C125.543 27.2494 125.543 27.2492 125.396 27.4692C125.255 27.6799 125.075 27.7865 124.78 27.8334C124.704 27.8454 122.825 27.972 120.603 28.1147C116.368 28.3867 116.065 28.4084 115.248 28.4989C112.283 28.8273 109.812 29.5025 107.666 30.5708C107.059 30.8726 106.643 31.11 106.181 31.4173C103.608 33.1278 102.132 35.4189 101.716 38.3434C101.614 39.0624 101.602 39.2744 101.603 40.2321C101.603 41.2036 101.62 41.4429 101.737 42.2009C101.99 43.8254 102.625 45.405 103.541 46.6844C103.907 47.1963 104.232 47.5767 104.718 48.0645C105.174 48.5228 105.515 48.8186 106.012 49.189C107.807 50.5266 109.971 51.3428 112.447 51.6161C113.173 51.6963 113.58 51.7166 114.438 51.7157C115.284 51.7149 115.776 51.6875 116.412 51.6061C120.085 51.1357 123.065 49.3055 125.003 46.3299C125.136 46.1257 125.265 45.9358 125.29 45.908C125.354 45.8382 125.448 45.842 125.507 45.9166C125.553 45.9757 125.554 45.9854 125.554 48.1161C125.554 49.4064 125.563 50.3189 125.577 50.4138C125.622 50.7345 125.831 51.014 126.111 51.1267C126.24 51.1789 126.24 51.1789 131.753 51.1789C137.265 51.1789 137.265 51.1789 137.395 51.1264C137.563 51.0587 137.766 50.8715 137.844 50.7137C137.877 50.646 137.913 50.5155 137.928 50.4138C137.947 50.2806 137.952 46.868 137.946 37.2844C137.938 23.0944 137.949 24.2314 137.816 23.335C137.583 21.7634 137.02 20.2795 136.157 18.9572C135.472 17.909 134.548 16.8949 133.545 16.0932C131.982 14.8429 129.942 13.8364 127.676 13.1979C125.413 12.5604 122.727 12.2791 119.838 12.3774ZM156.807 12.3774C152.568 12.5212 148.972 13.4929 146.247 15.2307C145.187 15.9065 144.239 16.7302 143.485 17.6296C142.058 19.3326 141.286 21.2986 141.102 23.6926C141.072 24.0832 141.072 25.2401 141.102 25.6299C141.205 26.9611 141.513 28.1561 142.047 29.287C142.849 30.9873 144.42 32.6158 146.302 33.6969C147.596 34.4406 149.215 35.0712 150.968 35.5149C151.734 35.7088 151.948 35.7521 155.749 36.485C159.394 37.1876 160.03 37.3237 160.756 37.5565C161.645 37.8414 162.231 38.1312 162.727 38.5298C163.249 38.95 163.535 39.4185 163.638 40.0208C163.692 40.3397 163.673 40.8651 163.596 41.1573C163.331 42.1604 162.493 42.8854 161.116 43.3028C159.873 43.6796 157.947 43.7589 156.537 43.4915C154.898 43.1809 153.806 42.5107 153.026 41.3389C152.823 41.0334 152.68 40.7505 152.452 40.2058C152.349 39.9592 152.23 39.7098 152.189 39.6516C152.093 39.5187 151.931 39.3946 151.781 39.3402C151.67 39.2998 151.465 39.298 146.085 39.2916C142.334 39.2872 140.479 39.2926 140.426 39.308C140.302 39.3435 140.219 39.4445 140.208 39.5728C140.189 39.7799 140.344 40.6912 140.518 41.3987C141.068 43.6316 142.194 45.6448 143.779 47.23C145.034 48.485 146.639 49.5352 148.513 50.3273C151.141 51.4377 154.459 52.0002 158.382 52C159.586 51.9999 160.381 51.9644 161.42 51.8641C165.801 51.4409 169.461 50.0285 172.085 47.7479C172.441 47.4389 173.153 46.7152 173.437 46.3749C175.173 44.2926 176 41.9555 176 39.1334C176 37.571 175.755 36.2993 175.219 35.0793C174.505 33.4542 173.208 32.0773 171.421 31.047C169.996 30.2251 168.309 29.5862 166.156 29.0522C165.393 28.863 165.268 28.8371 161.246 28.0363C157.562 27.3026 157.211 27.2292 156.559 27.0568C155.189 26.6942 154.301 26.2981 153.766 25.8107C153.494 25.5628 153.268 25.2077 153.142 24.8297C153.072 24.6201 153.004 24.1959 153.004 23.9637C153.004 23.7726 153.064 23.3499 153.118 23.1552C153.285 22.5543 153.723 22.0084 154.372 21.5906C154.97 21.206 155.879 20.9075 156.852 20.7759C157.29 20.7167 158.639 20.7165 159.08 20.7755C160.546 20.9719 161.521 21.4318 162.387 22.3355C162.857 22.8258 163.111 23.2572 163.399 24.0537C163.624 24.6777 163.738 24.8532 163.998 24.9771C164.117 25.0342 164.186 25.0498 164.395 25.0671C164.541 25.0792 166.763 25.0882 169.644 25.0884C174.64 25.0888 174.64 25.0888 174.741 25.0381C174.927 24.944 174.946 24.8357 174.896 24.1174C174.76 22.1466 174.141 20.3659 173.008 18.6886C171.573 16.5653 169.367 14.9044 166.447 13.7483C163.861 12.7245 160.531 12.251 156.807 12.3774ZM62.7138 35.1271C63.0694 35.2024 63.3093 35.4522 63.3738 35.8142C63.4125 36.0313 63.4196 37.7156 63.3833 38.0752C63.2236 39.6585 62.305 41.0777 60.8287 42.0216C59.7815 42.6911 58.592 43.0366 57.0742 43.1121C55.3121 43.1998 53.7681 42.822 52.7966 42.0653C52.3089 41.6854 51.9428 41.1591 51.7561 40.5696C51.6353 40.188 51.6059 39.9614 51.6059 39.4108C51.6057 38.7306 51.68 38.3555 51.9106 37.8714C52.0685 37.54 52.2419 37.2907 52.5032 37.0194C53.2503 36.2436 54.2529 35.7994 55.7349 35.5876C56.2073 35.52 56.1078 35.5277 59.3904 35.3046C60.8384 35.2063 62.0686 35.1221 62.1243 35.1177C62.3544 35.0994 62.6018 35.1033 62.7138 35.1271ZM125.043 35.1865C125.316 35.3141 125.48 35.5365 125.53 35.8443C125.568 36.0828 125.56 37.823 125.519 38.1733C125.431 38.9294 125.161 39.6671 124.741 40.297C123.829 41.6672 122.446 42.5692 120.702 42.9319C119.333 43.2166 117.712 43.1812 116.534 42.8408C115.121 42.4325 114.212 41.6326 113.887 40.5112C113.777 40.1326 113.754 39.9397 113.753 39.4108C113.752 38.7011 113.828 38.3401 114.089 37.8132C114.263 37.4635 114.449 37.21 114.736 36.9328C115.592 36.1054 116.785 35.6598 118.533 35.5152C119.878 35.4039 124.379 35.1049 124.622 35.1107C124.873 35.1166 124.907 35.1228 125.043 35.1865Z" fill="url(#paint0_linear_1112_2722)"/>
<defs>
<linearGradient id="paint0_linear_1112_2722" x1="-9.82577" y1="60.8634" x2="181.361" y2="-0.727848" gradientUnits="userSpaceOnUse">
<stop stop-color="#3C9B51"/>
<stop offset="1" stop-color="#53B669"/>
</linearGradient>
</defs>
</svg>
