<svg width="32" height="32" viewBox="0 0 32 32" fill="none" xmlns="http://www.w3.org/2000/svg">
<path d="M31.5211 19.8705C29.3839 28.442 20.7014 33.6584 12.128 31.521C3.55816 29.3841 -1.65885 20.702 0.479227 12.1312C2.61543 3.55871 11.2979 -1.65814 19.8687 0.478775C28.4415 2.61569 33.6584 11.2986 31.5211 19.8705Z" fill="#7950DD"/>
<path d="M20.9267 12.6273C20.5697 12.4074 20.1056 12.4074 19.7128 12.6273L16.928 14.313L15.0357 15.4123L12.2509 17.0981C11.8939 17.3179 11.4297 17.3179 11.037 17.0981L8.82343 15.7788C8.4664 15.559 8.21647 15.1559 8.21647 14.7161V12.1143C8.21647 11.6745 8.43069 11.2714 8.82343 11.0515L11.0013 9.76895C11.3583 9.54908 11.8225 9.54908 12.2152 9.76895L14.3931 11.0515C14.7501 11.2714 15 11.6745 15 12.1143V13.8L16.8923 12.6639V10.9783C16.8923 10.5385 16.6781 10.1354 16.2853 9.91554L12.2509 7.49694C11.8939 7.27706 11.4297 7.27706 11.037 7.49694L6.93117 9.91554C6.53844 10.1354 6.32422 10.5385 6.32422 10.9783V15.8521C6.32422 16.2918 6.53844 16.6949 6.93117 16.9148L11.037 19.3334C11.394 19.5533 11.8582 19.5533 12.2509 19.3334L15.0357 17.6844L16.928 16.5484L19.7128 14.8993C20.0699 14.6795 20.534 14.6795 20.9267 14.8993L23.1046 16.1819C23.4617 16.4018 23.7116 16.8049 23.7116 17.2446V19.8465C23.7116 20.2862 23.4974 20.6893 23.1046 20.9092L20.9267 22.2284C20.5697 22.4483 20.1056 22.4483 19.7128 22.2284L17.535 20.9458C17.1779 20.726 16.928 20.3229 16.928 19.8831V18.1974L15.0357 19.3334V21.0191C15.0357 21.4588 15.25 21.862 15.6427 22.0818L19.7485 24.5005C20.1056 24.7203 20.5697 24.7203 20.9624 24.5005L25.0683 22.0818C25.4253 21.862 25.6752 21.4588 25.6752 21.0191V16.1453C25.6752 15.7055 25.461 15.3024 25.0683 15.0826L20.9267 12.6273Z" fill="white"/>
</svg>
