<svg width="100" height="100" viewBox="0 0 100 100" fill="none" xmlns="http://www.w3.org/2000/svg">
<path d="M12.4994 20.8364C11.9473 20.8285 11.3991 20.9306 10.8868 21.1364C10.3744 21.3423 9.90806 21.648 9.51486 22.0357C9.12165 22.4234 8.80941 22.8853 8.5963 23.3947C8.38318 23.9042 8.27344 24.4508 8.27344 25.003C8.27344 25.5552 8.38318 26.1019 8.5963 26.6113C8.80941 27.1207 9.12165 27.5827 9.51486 27.9704C9.90806 28.358 10.3744 28.6637 10.8868 28.8696C11.3991 29.0755 11.9473 29.1775 12.4994 29.1697H87.4994C88.0516 29.1775 88.5998 29.0755 89.1121 28.8696C89.6245 28.6637 90.0908 28.358 90.484 27.9704C90.8772 27.5827 91.1895 27.1207 91.4026 26.6113C91.6157 26.1019 91.7255 25.5552 91.7255 25.003C91.7255 24.4508 91.6157 23.9042 91.4026 23.3947C91.1895 22.8853 90.8772 22.4234 90.484 22.0357C90.0908 21.648 89.6245 21.3423 89.1121 21.1364C88.5998 20.9306 88.0516 20.8285 87.4994 20.8364H12.4994ZM12.4994 45.8364C11.9473 45.8285 11.3991 45.9305 10.8868 46.1364C10.3744 46.3423 9.90806 46.648 9.51486 47.0357C9.12165 47.4234 8.80941 47.8853 8.5963 48.3947C8.38318 48.9041 8.27344 49.4508 8.27344 50.003C8.27344 50.5552 8.38318 51.1019 8.5963 51.6113C8.80941 52.1207 9.12165 52.5827 9.51486 52.9704C9.90806 53.358 10.3744 53.6637 10.8868 53.8696C11.3991 54.0755 11.9473 54.1775 12.4994 54.1697H87.4994C88.0516 54.1775 88.5998 54.0755 89.1121 53.8696C89.6245 53.6637 90.0908 53.358 90.484 52.9704C90.8772 52.5827 91.1895 52.1207 91.4026 51.6113C91.6157 51.1019 91.7255 50.5552 91.7255 50.003C91.7255 49.4508 91.6157 48.9041 91.4026 48.3947C91.1895 47.8853 90.8772 47.4234 90.484 47.0357C90.0908 46.648 89.6245 46.3423 89.1121 46.1364C88.5998 45.9305 88.0516 45.8285 87.4994 45.8364H12.4994ZM12.4994 70.8364C11.9473 70.8285 11.3991 70.9306 10.8868 71.1364C10.3744 71.3423 9.90806 71.648 9.51486 72.0357C9.12165 72.4234 8.80941 72.8853 8.5963 73.3947C8.38318 73.9041 8.27344 74.4508 8.27344 75.003C8.27344 75.5552 8.38318 76.1019 8.5963 76.6113C8.80941 77.1207 9.12165 77.5827 9.51486 77.9704C9.90806 78.358 10.3744 78.6637 10.8868 78.8696C11.3991 79.0755 11.9473 79.1775 12.4994 79.1697H87.4994C88.0516 79.1775 88.5998 79.0755 89.1121 78.8696C89.6245 78.6637 90.0908 78.358 90.484 77.9704C90.8772 77.5827 91.1895 77.1207 91.4026 76.6113C91.6157 76.1019 91.7255 75.5552 91.7255 75.003C91.7255 74.4508 91.6157 73.9041 91.4026 73.3947C91.1895 72.8853 90.8772 72.4234 90.484 72.0357C90.0908 71.648 89.6245 71.3423 89.1121 71.1364C88.5998 70.9306 88.0516 70.8285 87.4994 70.8364H12.4994Z" fill="#1C1A24"/>
</svg>
