<svg width="26" height="24" viewBox="0 0 26 24" fill="none" xmlns="http://www.w3.org/2000/svg">
<path d="M23.8152 0.898438L14.4351 7.83716L16.184 3.74674L23.8152 0.898438Z" fill="#E17726" stroke="#E17726" stroke-width="0.25" stroke-linecap="round" stroke-linejoin="round"/>
<path d="M2.18465 0.898438L11.4791 7.89427L9.81582 3.75388L2.18465 0.898438ZM20.4381 16.9817L17.9396 20.7937L23.2864 22.2643L24.814 17.0674L20.4381 16.9817ZM1.19238 17.0674L2.71291 22.2643L8.04545 20.7937L5.56121 16.9817L1.19238 17.0674Z" fill="#E27625" stroke="#E27625" stroke-width="0.25" stroke-linecap="round" stroke-linejoin="round"/>
<path d="M7.75998 10.5422L6.27515 12.7838L11.5577 13.0265L11.3864 7.33701L7.75998 10.5494V10.5422ZM18.2395 10.5494L14.5559 7.26562L14.4346 13.0265L19.7171 12.7838L18.2395 10.5494ZM8.04552 20.7933L11.2508 19.2513L8.49525 17.1098L8.04552 20.7933ZM14.7558 19.2442L17.9396 20.7933L17.5113 17.1026L14.7558 19.2442Z" fill="#E27625" stroke="#E27625" stroke-width="0.25" stroke-linecap="round" stroke-linejoin="round"/>
<path d="M17.94 20.7919L14.7562 19.25L15.0132 21.3202L14.9846 22.1982L17.94 20.7919ZM8.0459 20.7919L11.0156 22.1982L10.9941 21.3202L11.2511 19.25L8.0459 20.7919Z" fill="#D5BFB2" stroke="#D5BFB2" stroke-width="0.25" stroke-linecap="round" stroke-linejoin="round"/>
<path d="M11.0656 15.7363L8.42432 14.9653L10.2946 14.1087L11.0727 15.7363H11.0656ZM14.9276 15.7363L15.7128 14.1016L17.5903 14.9582L14.9276 15.7434V15.7363Z" fill="#233447" stroke="#233447" stroke-width="0.25" stroke-linecap="round" stroke-linejoin="round"/>
<path d="M8.04551 20.7908L8.50952 16.9788L5.56128 17.0644L8.04551 20.7908ZM17.4899 16.9788L17.9396 20.7908L20.4381 17.0644L17.4899 16.9788ZM19.7243 12.7812L14.4417 13.024L14.9271 15.7366L15.7124 14.0948L17.5898 14.9514L19.7243 12.7812ZM8.42386 14.9585L10.2942 14.1019L11.0723 15.7295L11.5648 13.0168L6.28228 12.7812L8.42386 14.9585Z" fill="#CC6228" stroke="#CC6228" stroke-width="0.25" stroke-linecap="round" stroke-linejoin="round"/>
<path d="M6.28296 12.7812L8.49593 17.1001L8.42454 14.9585L6.28296 12.7812ZM17.5905 14.9585L17.5049 17.1001L19.7178 12.7812L17.5905 14.9585ZM11.5655 13.024L11.0658 15.7366L11.694 18.9347L11.8368 14.7158L11.5655 13.024ZM14.4352 13.024L14.1783 14.7087L14.3068 18.9347L14.9278 15.7295L14.4352 13.0168V13.024Z" fill="#E27525" stroke="#E27525" stroke-width="0.25" stroke-linecap="round" stroke-linejoin="round"/>
<path d="M14.9272 15.7319L14.3061 18.9371L14.7558 19.2512L17.5042 17.1097L17.5899 14.9609L14.9272 15.7319ZM8.42389 14.9609L8.49527 17.1025L11.2508 19.2441L11.6934 18.9371L11.0723 15.7319L8.41675 14.9609H8.42389Z" fill="#F5841F" stroke="#F5841F" stroke-width="0.25" stroke-linecap="round" stroke-linejoin="round"/>
<path d="M14.9918 22.2032L15.0132 21.3251L14.7705 21.1253H11.2297L10.9941 21.3251L11.0156 22.2032L8.0459 20.7969L9.08814 21.6535L11.194 23.1026H14.799L16.9121 21.6464L17.94 20.7969L14.9846 22.2032H14.9918Z" fill="#C0AC9D" stroke="#C0AC9D" stroke-width="0.25" stroke-linecap="round" stroke-linejoin="round"/>
<path d="M14.7562 19.2445L14.3065 18.9375H11.6937L11.2511 19.2516L10.9941 21.3218L11.2297 21.1219H14.7705L15.0132 21.3218L14.7562 19.2516V19.2445Z" fill="#282432" stroke="#282432" stroke-width="0.25" stroke-linecap="round" stroke-linejoin="round"/>
<path d="M24.2148 8.2869L25 4.46774L23.815 0.898438L14.749 7.60873L18.2397 10.5427L23.1654 11.9776L24.2504 10.714L23.7793 10.3714L24.5289 9.68606L23.9578 9.24347L24.7073 8.67238L24.2076 8.2869H24.2148ZM1 4.4606L1.79952 8.2869L1.28554 8.66524L2.04938 9.23633L1.47829 9.68606L2.2207 10.3714L1.74955 10.714L2.83462 11.9776L7.76026 10.5498L11.251 7.60159L2.18501 0.898438L1 4.4606Z" fill="#763E1A" stroke="#763E1A" stroke-width="0.25" stroke-linecap="round" stroke-linejoin="round"/>
<path d="M23.165 11.9808L18.2394 10.5531L19.7242 12.7875L17.5112 17.1063L20.4381 17.0706H24.814L23.165 11.9808ZM7.7599 10.546L2.83426 11.9808L1.19238 17.0706H5.56835L8.49518 17.1063L6.28221 12.7875L7.76704 10.546H7.7599ZM14.4345 13.0302L14.7557 7.60485L16.1835 3.75H9.81582L11.2435 7.60485L11.5648 13.0302L11.6861 14.7292V18.941H14.306L14.3203 14.7292L14.4345 13.0302Z" fill="#F5841F" stroke="#F5841F" stroke-width="0.25" stroke-linecap="round" stroke-linejoin="round"/>
</svg>
