<svg width="89" height="26" viewBox="0 0 89 26" fill="none" xmlns="http://www.w3.org/2000/svg">
<g style="mix-blend-mode:luminosity">
<path fill-rule="evenodd" clip-rule="evenodd" d="M42.5282 2.39221C42.9705 1.57735 43.6864 0.977837 44.6759 0.593687C45.677 0.197896 47.0099 0 48.6746 0C49.21 0 49.7514 0.0291023 50.2985 0.0873069C50.5804 0.110804 50.8328 0.137265 51.0554 0.16669C51.2413 0.191256 51.3343 0.203539 51.4172 0.255884C51.4861 0.29942 51.5504 0.372708 51.5845 0.446766C51.6255 0.53581 51.6255 0.637245 51.6255 0.840114V3.48982C51.6255 3.59385 51.6255 3.64587 51.6202 3.67998C51.5872 3.89269 51.4401 4.03291 51.2261 4.05581C51.1918 4.05949 51.1326 4.05667 51.0144 4.05104C50.7816 4.02776 50.5488 4.01612 50.3159 4.01612C49.4661 4.01612 48.8492 4.17327 48.465 4.48758C48.0209 4.84845 47.9231 5.34831 47.9055 5.86777C47.8974 6.10957 47.8933 6.23047 47.9407 6.32938C47.9816 6.41448 48.0531 6.48843 48.1368 6.53214C48.234 6.58294 48.3632 6.58294 48.6215 6.58294H50.8929C51.1432 6.58294 51.2684 6.58294 51.364 6.63166C51.4481 6.67452 51.5165 6.7429 51.5594 6.82701C51.6081 6.92263 51.6081 7.04781 51.6081 7.29816V10.4077C51.6081 10.658 51.6081 10.7832 51.5594 10.8788C51.5165 10.9629 51.4481 11.0313 51.364 11.0742C51.2684 11.1229 51.1432 11.1229 50.8929 11.1229H48.7786C48.5283 11.1229 48.4031 11.1229 48.3075 11.1716C48.2234 11.2145 48.155 11.2829 48.1121 11.367C48.0634 11.4626 48.0634 11.5878 48.0634 11.8381V24.8832C48.0634 25.1335 48.0634 25.2587 48.0147 25.3543C47.9718 25.4384 47.9035 25.5068 47.8193 25.5497C47.7237 25.5984 47.5985 25.5984 47.3482 25.5984H42.5798C42.3295 25.5984 42.2043 25.5984 42.1087 25.5497C42.0246 25.5068 41.9562 25.4384 41.9133 25.3543C41.8646 25.2587 41.8646 25.1335 41.8646 24.8832V11.8381C41.8646 11.5878 41.8646 11.4626 41.8159 11.367C41.773 11.2829 41.7047 11.2145 41.6205 11.1716C41.5249 11.1229 41.3998 11.1229 41.1494 11.1229H40.0479C39.7976 11.1229 39.6724 11.1229 39.5768 11.0742C39.4927 11.0313 39.4243 10.9629 39.3814 10.8788C39.3327 10.7832 39.3327 10.658 39.3327 10.4077V7.29816C39.3327 7.04781 39.3327 6.92263 39.3814 6.82701C39.4243 6.7429 39.4927 6.67452 39.5768 6.63166C39.6724 6.58294 39.7976 6.58294 40.0479 6.58294H41.1494C41.3986 6.58294 41.5232 6.58294 41.6186 6.53451C41.7027 6.49178 41.7706 6.42418 41.8138 6.34022C41.8627 6.24507 41.8633 6.11929 41.8645 5.86773C41.8703 4.67142 41.9369 3.46578 42.5282 2.39221ZM11.2388 0.401612C13.1129 0.401612 14.7427 0.774121 16.1279 1.51914C17.5132 2.25252 18.5842 3.28856 19.3408 4.62727C20.1091 5.95433 20.4933 7.52004 20.4933 9.32438V9.3593C20.4933 11.152 20.1091 12.7177 19.3408 14.0564C18.5842 15.3835 17.5132 16.4137 16.1279 17.1471C14.7427 17.8688 13.1129 18.2297 11.2388 18.2297C10.5482 18.2297 10.2029 18.2297 10.1325 18.2056C9.83022 18.102 9.73158 17.8463 9.88601 17.5666C9.92198 17.5015 10.2019 17.2477 10.7619 16.7401C12.2673 15.3754 14.0151 13.0058 14.0151 9.3593C14.0151 9.34566 14.0151 9.32438 14.0151 9.32438Cnan nan nan nan nan nanCnan nan nan nan 14.0151 9.32438C14.0151 8.00895 13.631 7.01366 12.8627 6.33848C11.4837 5.10806 9.41956 5.25916 7.62326 5.31291C7.36563 5.32062 7.23682 5.32448 7.14411 5.37419C7.06091 5.4188 6.99734 5.48429 6.95524 5.56879C6.90833 5.66294 6.90833 5.78894 6.90833 6.04094V24.8832C6.90833 25.1335 6.90833 25.2587 6.85961 25.3543C6.81675 25.4384 6.74837 25.5068 6.66426 25.5497C6.56864 25.5984 6.44346 25.5984 6.19311 25.5984H1.21522C0.964868 25.5984 0.839693 25.5984 0.744072 25.5497C0.659962 25.5068 0.591578 25.4384 0.548721 25.3543C0.5 25.2587 0.5 25.1335 0.5 24.8832V1.11683C0.5 0.86648 0.5 0.741305 0.548721 0.645684C0.591578 0.561574 0.659962 0.49319 0.744072 0.450333C0.839693 0.401612 0.964868 0.401612 1.21522 0.401612H11.2388ZM23.3109 25.1269C24.2771 25.6158 25.3946 25.8603 26.6634 25.8603C27.4899 25.8603 28.2466 25.7439 28.9334 25.5111C29.6202 25.2783 30.2314 24.9407 30.7669 24.4983C31.2912 24.0652 31.7318 23.5483 32.0888 22.9477C32.1029 22.924 32.1284 22.9093 32.1559 22.9093C32.1988 22.9093 32.2336 22.9441 32.2336 22.987V24.8832C32.2336 25.1335 32.2336 25.2587 32.2823 25.3543C32.3252 25.4384 32.3936 25.5068 32.4777 25.5497C32.5733 25.5984 32.6985 25.5984 32.9488 25.5984H37.7172C37.9675 25.5984 38.0927 25.5984 38.1883 25.5497C38.2724 25.5068 38.3408 25.4384 38.3837 25.3543C38.4324 25.2587 38.4324 25.1335 38.4324 24.8832V12.6071C38.4324 11.3266 38.0774 10.2033 37.3673 9.23707C36.6688 8.27087 35.6793 7.52004 34.3988 6.98455C33.13 6.44907 31.6458 6.18133 29.9462 6.18133C28.1768 6.18133 26.6518 6.44325 25.3713 6.96709C24.1024 7.49093 23.113 8.21849 22.4029 9.14977C21.6928 10.081 21.2853 11.1695 21.1806 12.415C21.1711 12.5375 21.268 12.642 21.3908 12.642H26.1644C26.3631 12.642 26.4624 12.642 26.5347 12.6164C26.6124 12.589 26.6465 12.5673 26.7042 12.5086C26.7581 12.4539 26.8155 12.331 26.9304 12.0854C27.0885 11.7473 27.3277 11.4619 27.6587 11.2277C28.136 10.8901 28.7937 10.7213 29.6319 10.7213C30.4817 10.7213 31.1277 10.925 31.5701 11.3324C32.1393 11.8417 32.2269 12.5289 32.2359 13.2298C32.2389 13.4625 32.2404 13.5789 32.1959 13.6726C32.1571 13.7543 32.0927 13.8239 32.0142 13.8689C31.9242 13.9204 31.8042 13.9281 31.5642 13.9435L27.9032 14.1786C26.2735 14.2834 24.8882 14.5803 23.7474 15.0692C22.6066 15.5465 21.7335 16.2042 21.1282 17.0423C20.5345 17.8805 20.2376 18.899 20.2376 20.0981V20.1155C20.2376 21.2214 20.5054 22.2109 21.0409 23.0839C21.588 23.9454 22.3447 24.6264 23.3109 25.1269ZM32.2336 18.2779C32.2336 18.0117 32.2336 17.8785 32.1806 17.7796C32.1341 17.6927 32.0601 17.6236 31.9702 17.5831C31.8679 17.5371 31.7351 17.5462 31.4695 17.5644L28.8985 17.7408C28.0371 17.7873 27.391 17.9852 26.9603 18.3345C26.5296 18.672 26.3142 19.126 26.3142 19.6964V19.7139C26.3142 20.3076 26.5412 20.7674 26.9952 21.0934C27.4608 21.4077 28.072 21.5648 28.8287 21.5648C29.4922 21.5648 30.0742 21.4484 30.5748 21.2156C31.087 20.9711 31.4886 20.6394 31.7796 20.2203C32.0823 19.7896 32.2336 19.3123 32.2336 18.7884V18.2779ZM54.4117 25.1269C55.3779 25.6158 56.4954 25.8603 57.7643 25.8603C58.5908 25.8603 59.3474 25.7439 60.0342 25.5111C60.7211 25.2783 61.3322 24.9407 61.8677 24.4983C62.392 24.0652 62.8327 23.5483 63.1896 22.9477C63.2037 22.924 63.2292 22.9093 63.2568 22.9093C63.2997 22.9093 63.3344 22.9441 63.3344 22.987V24.8832C63.3344 25.1335 63.3344 25.2587 63.3832 25.3543C63.426 25.4384 63.4944 25.5068 63.5785 25.5497C63.6741 25.5984 63.7993 25.5984 64.0497 25.5984H68.818C69.0684 25.5984 69.1935 25.5984 69.2892 25.5497C69.3733 25.5068 69.4417 25.4384 69.4845 25.3543C69.5332 25.2587 69.5332 25.1335 69.5332 24.8832V12.6071C69.5332 11.3266 69.1782 10.2033 68.4681 9.23707C67.7696 8.27087 66.7802 7.52004 65.4997 6.98455C64.2308 6.44907 62.7466 6.18133 61.047 6.18133C59.2776 6.18133 57.7526 6.44325 56.4721 6.96709C55.2033 7.49093 54.2138 8.21849 53.5037 9.14977C52.7936 10.081 52.3862 11.1695 52.2814 12.415C52.272 12.5375 52.3688 12.642 52.4916 12.642H57.2652C57.4639 12.642 57.5632 12.642 57.6355 12.6164C57.7132 12.589 57.7473 12.5673 57.8051 12.5086C57.8589 12.4539 57.9163 12.331 58.0312 12.0854C58.1893 11.7473 58.4285 11.4619 58.7596 11.2277C59.2368 10.8901 59.8946 10.7213 60.7327 10.7213C61.5825 10.7213 62.2286 10.925 62.6709 11.3324C63.2401 11.8417 63.3277 12.5289 63.3367 13.2298C63.3397 13.4625 63.3412 13.5789 63.2967 13.6726C63.258 13.7543 63.1935 13.8239 63.115 13.8689C63.025 13.9204 62.905 13.9281 62.6651 13.9435L59.004 14.1786C57.3743 14.2834 55.989 14.5803 54.8482 15.0692C53.7074 15.5465 52.8343 16.2042 52.229 17.0423C51.6353 17.8805 51.3385 18.899 51.3385 20.0981V20.1155C51.3385 21.2214 51.6062 22.2109 52.1417 23.0839C52.6888 23.9454 53.4455 24.6264 54.4117 25.1269ZM63.3344 18.2779C63.3344 18.0117 63.3344 17.8785 63.2815 17.7796C63.2349 17.6927 63.1609 17.6236 63.0711 17.5831C62.9688 17.5371 62.8359 17.5462 62.5703 17.5644L59.9993 17.7408C59.1379 17.7873 58.4918 17.9852 58.0611 18.3345C57.6304 18.672 57.415 19.126 57.415 19.6964V19.7139C57.415 20.3076 57.642 20.7674 58.096 21.0934C58.5617 21.4077 59.1728 21.5648 59.9295 21.5648C60.593 21.5648 61.1751 21.4484 61.6756 21.2156C62.1878 20.9711 62.5894 20.6394 62.8805 20.2203C63.1831 19.7896 63.3344 19.3123 63.3344 18.7884V18.2779ZM79.7754 26C77.8896 26 76.2947 25.7439 74.991 25.2317C73.6872 24.7079 72.6744 23.9803 71.9527 23.049C71.2309 22.1178 70.8002 21.0351 70.6605 19.8012C70.6512 19.7174 70.7169 19.6441 70.8012 19.6441H76.0914C76.2865 19.6441 76.3841 19.6441 76.4595 19.6721C76.534 19.6998 76.5802 19.731 76.6338 19.7897C76.688 19.8492 76.7319 19.958 76.8198 20.1755C76.9957 20.6114 77.2571 20.9931 77.6626 21.2854C78.1748 21.6463 78.879 21.8267 79.7754 21.8267C80.3225 21.8267 80.794 21.7627 81.1898 21.6347C81.5855 21.5066 81.8882 21.3262 82.0977 21.0934C82.3073 20.8489 82.412 20.5695 82.412 20.2552V20.2377C82.412 19.8187 82.2374 19.4811 81.8882 19.225C81.5506 18.9572 80.9569 18.7361 80.1071 18.5615L76.7546 17.9154C75.5206 17.6709 74.4788 17.2984 73.629 16.7979C72.7908 16.2857 72.1564 15.657 71.7257 14.912C71.3066 14.167 71.0971 13.3114 71.0971 12.3452V12.3277C71.0971 11.0589 71.4347 9.97045 72.1098 9.06246C72.7966 8.14283 73.7745 7.43273 75.0434 6.93217C76.3238 6.43161 77.8255 6.18133 79.5484 6.18133C81.3876 6.18133 82.9301 6.46653 84.1757 7.03694C85.4329 7.5957 86.3874 8.34654 87.0393 9.28946C87.6912 10.2207 88.023 11.2568 88.0346 12.3976C88.0346 12.4747 87.9721 12.5373 87.8949 12.5373H83.0085C82.7942 12.5373 82.687 12.5373 82.6096 12.5075C82.5285 12.4763 82.4891 12.4487 82.4323 12.3831C82.3779 12.3204 82.33 12.1882 82.2343 11.9236C82.1017 11.5575 81.885 11.2382 81.5564 10.9657C81.0792 10.5583 80.4098 10.3546 79.5484 10.3546C79.0478 10.3546 78.6113 10.4244 78.2388 10.5641C77.8663 10.6922 77.5752 10.8784 77.3657 11.1229C77.1678 11.3557 77.0689 11.6409 77.0689 11.9785V11.996C77.0689 12.2637 77.1387 12.5024 77.2784 12.7119C77.4181 12.9214 77.6626 13.1019 78.0118 13.2532C78.361 13.4045 78.8383 13.5442 79.4436 13.6723L82.7787 14.3358C84.8159 14.7316 86.2885 15.3486 87.1965 16.1867C88.1161 17.0132 88.5759 18.1366 88.5759 19.5567V19.5742C88.5759 20.878 88.2034 22.013 87.4584 22.9792C86.7134 23.9454 85.6832 24.6904 84.3677 25.2142C83.0523 25.7381 81.5215 26 79.7754 26Z" fill="url(#paint0_linear_1111_1284)"/>
</g>
<defs>
<linearGradient id="paint0_linear_1111_1284" x1="-4.41713" y1="30.4317" x2="91.2433" y2="-0.412082" gradientUnits="userSpaceOnUse">
<stop stop-color="#3C9B51"/>
<stop offset="1" stop-color="#53B669"/>
</linearGradient>
</defs>
</svg>
