<svg width="89" height="26" viewBox="0 0 89 26" fill="none" xmlns="http://www.w3.org/2000/svg">
<path fill-rule="evenodd" clip-rule="evenodd" d="M42.0282 2.39221C42.4705 1.57735 43.1864 0.977837 44.1759 0.593687C45.177 0.197896 46.5099 0 48.1746 0C48.71 0 49.2514 0.0291023 49.7985 0.0873069C50.0804 0.110804 50.3328 0.137265 50.5554 0.16669C50.7413 0.191256 50.8343 0.203539 50.9172 0.255884C50.9861 0.29942 51.0504 0.372708 51.0845 0.446766C51.1255 0.53581 51.1255 0.637245 51.1255 0.840114V3.48982C51.1255 3.59385 51.1255 3.64587 51.1202 3.67998C51.0872 3.89269 50.9401 4.03291 50.7261 4.05581C50.6918 4.05949 50.6326 4.05667 50.5144 4.05104C50.2816 4.02776 50.0488 4.01612 49.8159 4.01612C48.9661 4.01612 48.3492 4.17327 47.965 4.48758C47.5209 4.84845 47.4231 5.34831 47.4055 5.86777C47.3974 6.10957 47.3933 6.23047 47.4407 6.32938C47.4816 6.41448 47.5531 6.48843 47.6368 6.53214C47.734 6.58294 47.8632 6.58294 48.1215 6.58294H50.3929C50.6432 6.58294 50.7684 6.58294 50.864 6.63166C50.9481 6.67452 51.0165 6.7429 51.0594 6.82701C51.1081 6.92263 51.1081 7.04781 51.1081 7.29816V10.4077C51.1081 10.658 51.1081 10.7832 51.0594 10.8788C51.0165 10.9629 50.9481 11.0313 50.864 11.0742C50.7684 11.1229 50.6432 11.1229 50.3929 11.1229H48.2786C48.0283 11.1229 47.9031 11.1229 47.8075 11.1716C47.7234 11.2145 47.655 11.2829 47.6121 11.367C47.5634 11.4626 47.5634 11.5878 47.5634 11.8381V24.8832C47.5634 25.1335 47.5634 25.2587 47.5147 25.3543C47.4718 25.4384 47.4035 25.5068 47.3193 25.5497C47.2237 25.5984 47.0985 25.5984 46.8482 25.5984H42.0798C41.8295 25.5984 41.7043 25.5984 41.6087 25.5497C41.5246 25.5068 41.4562 25.4384 41.4133 25.3543C41.3646 25.2587 41.3646 25.1335 41.3646 24.8832V11.8381C41.3646 11.5878 41.3646 11.4626 41.3159 11.367C41.273 11.2829 41.2047 11.2145 41.1205 11.1716C41.0249 11.1229 40.8998 11.1229 40.6494 11.1229H39.5479C39.2976 11.1229 39.1724 11.1229 39.0768 11.0742C38.9927 11.0313 38.9243 10.9629 38.8814 10.8788C38.8327 10.7832 38.8327 10.658 38.8327 10.4077V7.29816C38.8327 7.04781 38.8327 6.92263 38.8814 6.82701C38.9243 6.7429 38.9927 6.67452 39.0768 6.63166C39.1724 6.58294 39.2976 6.58294 39.5479 6.58294H40.6494C40.8986 6.58294 41.0232 6.58294 41.1186 6.53451C41.2027 6.49178 41.2706 6.42418 41.3138 6.34022C41.3627 6.24507 41.3633 6.11929 41.3645 5.86773C41.3703 4.67142 41.4369 3.46578 42.0282 2.39221ZM10.7388 0.401612C12.6129 0.401612 14.2427 0.774121 15.6279 1.51914C17.0132 2.25252 18.0842 3.28856 18.8408 4.62727C19.6091 5.95433 19.9933 7.52004 19.9933 9.32438V9.3593C19.9933 11.152 19.6091 12.7177 18.8408 14.0564C18.0842 15.3835 17.0132 16.4137 15.6279 17.1471C14.2427 17.8688 12.6129 18.2297 10.7388 18.2297C10.0482 18.2297 9.70292 18.2297 9.63251 18.2056C9.33022 18.102 9.23158 17.8463 9.38601 17.5666C9.42198 17.5015 9.70194 17.2477 10.2619 16.7401C11.7673 15.3754 13.5151 13.0058 13.5151 9.3593C13.5151 9.34566 13.5151 9.32438 13.5151 9.32438Cnan nan nan nan nan nanCnan nan nan nan 13.5151 9.32438C13.5151 8.00895 13.131 7.01366 12.3627 6.33848C10.9837 5.10806 8.91956 5.25916 7.12326 5.31291C6.86563 5.32062 6.73682 5.32448 6.64411 5.37419C6.56091 5.4188 6.49734 5.48429 6.45524 5.56879C6.40833 5.66294 6.40833 5.78894 6.40833 6.04094V24.8832C6.40833 25.1335 6.40833 25.2587 6.35961 25.3543C6.31675 25.4384 6.24837 25.5068 6.16426 25.5497C6.06864 25.5984 5.94346 25.5984 5.69311 25.5984H0.715218C0.464868 25.5984 0.339693 25.5984 0.244072 25.5497C0.159962 25.5068 0.0915778 25.4384 0.0487213 25.3543C0 25.2587 0 25.1335 0 24.8832V1.11683C0 0.86648 0 0.741305 0.0487213 0.645684C0.0915778 0.561574 0.159962 0.49319 0.244072 0.450333C0.339693 0.401612 0.464868 0.401612 0.715218 0.401612H10.7388ZM22.8109 25.1269C23.7771 25.6158 24.8946 25.8603 26.1634 25.8603C26.9899 25.8603 27.7466 25.7439 28.4334 25.5111C29.1202 25.2783 29.7314 24.9407 30.2669 24.4983C30.7912 24.0652 31.2318 23.5483 31.5888 22.9477C31.6029 22.924 31.6284 22.9093 31.6559 22.9093C31.6988 22.9093 31.7336 22.9441 31.7336 22.987V24.8832C31.7336 25.1335 31.7336 25.2587 31.7823 25.3543C31.8252 25.4384 31.8936 25.5068 31.9777 25.5497C32.0733 25.5984 32.1985 25.5984 32.4488 25.5984H37.2172C37.4675 25.5984 37.5927 25.5984 37.6883 25.5497C37.7724 25.5068 37.8408 25.4384 37.8837 25.3543C37.9324 25.2587 37.9324 25.1335 37.9324 24.8832V12.6071C37.9324 11.3266 37.5774 10.2033 36.8673 9.23707C36.1688 8.27087 35.1793 7.52004 33.8988 6.98455C32.63 6.44907 31.1458 6.18133 29.4462 6.18133C27.6768 6.18133 26.1518 6.44325 24.8713 6.96709C23.6024 7.49093 22.613 8.21849 21.9029 9.14977C21.1928 10.081 20.7853 11.1695 20.6806 12.415C20.6711 12.5375 20.768 12.642 20.8908 12.642H25.6644C25.8631 12.642 25.9624 12.642 26.0347 12.6164C26.1124 12.589 26.1465 12.5673 26.2042 12.5086C26.2581 12.4539 26.3155 12.331 26.4304 12.0854C26.5885 11.7473 26.8277 11.4619 27.1587 11.2277C27.636 10.8901 28.2937 10.7213 29.1319 10.7213C29.9817 10.7213 30.6277 10.925 31.0701 11.3324C31.6393 11.8417 31.7269 12.5289 31.7359 13.2298C31.7389 13.4625 31.7404 13.5789 31.6959 13.6726C31.6571 13.7543 31.5927 13.8239 31.5142 13.8689C31.4242 13.9204 31.3042 13.9281 31.0642 13.9435L27.4032 14.1786C25.7735 14.2834 24.3882 14.5803 23.2474 15.0692C22.1066 15.5465 21.2335 16.2042 20.6282 17.0423C20.0345 17.8805 19.7376 18.899 19.7376 20.0981V20.1155C19.7376 21.2214 20.0054 22.2109 20.5409 23.0839C21.088 23.9454 21.8447 24.6264 22.8109 25.1269ZM31.7336 18.2779C31.7336 18.0117 31.7336 17.8785 31.6806 17.7796C31.6341 17.6927 31.5601 17.6236 31.4702 17.5831C31.3679 17.5371 31.2351 17.5462 30.9695 17.5644L28.3985 17.7408C27.5371 17.7873 26.891 17.9852 26.4603 18.3345C26.0296 18.672 25.8142 19.126 25.8142 19.6964V19.7139C25.8142 20.3076 26.0412 20.7674 26.4952 21.0934C26.9608 21.4077 27.572 21.5648 28.3287 21.5648C28.9922 21.5648 29.5742 21.4484 30.0748 21.2156C30.587 20.9711 30.9886 20.6394 31.2796 20.2203C31.5823 19.7896 31.7336 19.3123 31.7336 18.7884V18.2779ZM53.9117 25.1269C54.8779 25.6158 55.9954 25.8603 57.2643 25.8603C58.0908 25.8603 58.8474 25.7439 59.5342 25.5111C60.2211 25.2783 60.8322 24.9407 61.3677 24.4983C61.892 24.0652 62.3327 23.5483 62.6896 22.9477C62.7037 22.924 62.7292 22.9093 62.7568 22.9093C62.7997 22.9093 62.8344 22.9441 62.8344 22.987V24.8832C62.8344 25.1335 62.8344 25.2587 62.8832 25.3543C62.926 25.4384 62.9944 25.5068 63.0785 25.5497C63.1741 25.5984 63.2993 25.5984 63.5497 25.5984H68.318C68.5684 25.5984 68.6935 25.5984 68.7892 25.5497C68.8733 25.5068 68.9417 25.4384 68.9845 25.3543C69.0332 25.2587 69.0332 25.1335 69.0332 24.8832V12.6071C69.0332 11.3266 68.6782 10.2033 67.9681 9.23707C67.2696 8.27087 66.2802 7.52004 64.9997 6.98455C63.7308 6.44907 62.2466 6.18133 60.547 6.18133C58.7776 6.18133 57.2526 6.44325 55.9721 6.96709C54.7033 7.49093 53.7138 8.21849 53.0037 9.14977C52.2936 10.081 51.8862 11.1695 51.7814 12.415C51.772 12.5375 51.8688 12.642 51.9916 12.642H56.7652C56.9639 12.642 57.0632 12.642 57.1355 12.6164C57.2132 12.589 57.2473 12.5673 57.3051 12.5086C57.3589 12.4539 57.4163 12.331 57.5312 12.0854C57.6893 11.7473 57.9285 11.4619 58.2596 11.2277C58.7368 10.8901 59.3946 10.7213 60.2327 10.7213C61.0825 10.7213 61.7286 10.925 62.1709 11.3324C62.7401 11.8417 62.8277 12.5289 62.8367 13.2298C62.8397 13.4625 62.8412 13.5789 62.7967 13.6726C62.758 13.7543 62.6935 13.8239 62.615 13.8689C62.525 13.9204 62.405 13.9281 62.1651 13.9435L58.504 14.1786C56.8743 14.2834 55.489 14.5803 54.3482 15.0692C53.2074 15.5465 52.3343 16.2042 51.729 17.0423C51.1353 17.8805 50.8385 18.899 50.8385 20.0981V20.1155C50.8385 21.2214 51.1062 22.2109 51.6417 23.0839C52.1888 23.9454 52.9455 24.6264 53.9117 25.1269ZM62.8344 18.2779C62.8344 18.0117 62.8344 17.8785 62.7815 17.7796C62.7349 17.6927 62.6609 17.6236 62.5711 17.5831C62.4688 17.5371 62.3359 17.5462 62.0703 17.5644L59.4993 17.7408C58.6379 17.7873 57.9918 17.9852 57.5611 18.3345C57.1304 18.672 56.915 19.126 56.915 19.6964V19.7139C56.915 20.3076 57.142 20.7674 57.596 21.0934C58.0617 21.4077 58.6728 21.5648 59.4295 21.5648C60.093 21.5648 60.6751 21.4484 61.1756 21.2156C61.6878 20.9711 62.0894 20.6394 62.3805 20.2203C62.6831 19.7896 62.8344 19.3123 62.8344 18.7884V18.2779ZM79.2754 26C77.3896 26 75.7947 25.7439 74.491 25.2317C73.1872 24.7079 72.1744 23.9803 71.4527 23.049C70.7309 22.1178 70.3002 21.0351 70.1605 19.8012C70.1512 19.7174 70.2169 19.6441 70.3012 19.6441H75.5914C75.7865 19.6441 75.8841 19.6441 75.9595 19.6721C76.034 19.6998 76.0802 19.731 76.1338 19.7897C76.188 19.8492 76.2319 19.958 76.3198 20.1755C76.4957 20.6114 76.7571 20.9931 77.1626 21.2854C77.6748 21.6463 78.379 21.8267 79.2754 21.8267C79.8225 21.8267 80.294 21.7627 80.6898 21.6347C81.0855 21.5066 81.3882 21.3262 81.5977 21.0934C81.8073 20.8489 81.912 20.5695 81.912 20.2552V20.2377C81.912 19.8187 81.7374 19.4811 81.3882 19.225C81.0506 18.9572 80.4569 18.7361 79.6071 18.5615L76.2546 17.9154C75.0206 17.6709 73.9788 17.2984 73.129 16.7979C72.2908 16.2857 71.6564 15.657 71.2257 14.912C70.8066 14.167 70.5971 13.3114 70.5971 12.3452V12.3277C70.5971 11.0589 70.9347 9.97045 71.6098 9.06246C72.2966 8.14283 73.2745 7.43273 74.5434 6.93217C75.8238 6.43161 77.3255 6.18133 79.0484 6.18133C80.8876 6.18133 82.4301 6.46653 83.6757 7.03694C84.9329 7.5957 85.8874 8.34654 86.5393 9.28946C87.1912 10.2207 87.523 11.2568 87.5346 12.3976C87.5346 12.4747 87.4721 12.5373 87.3949 12.5373H82.5085C82.2942 12.5373 82.187 12.5373 82.1096 12.5075C82.0285 12.4763 81.9891 12.4487 81.9323 12.3831C81.8779 12.3204 81.83 12.1882 81.7343 11.9236C81.6017 11.5575 81.385 11.2382 81.0564 10.9657C80.5792 10.5583 79.9098 10.3546 79.0484 10.3546C78.5478 10.3546 78.1113 10.4244 77.7388 10.5641C77.3663 10.6922 77.0752 10.8784 76.8657 11.1229C76.6678 11.3557 76.5689 11.6409 76.5689 11.9785V11.996C76.5689 12.2637 76.6387 12.5024 76.7784 12.7119C76.9181 12.9214 77.1626 13.1019 77.5118 13.2532C77.861 13.4045 78.3383 13.5442 78.9436 13.6723L82.2787 14.3358C84.3159 14.7316 85.7885 15.3486 86.6965 16.1867C87.6161 17.0132 88.0759 18.1366 88.0759 19.5567V19.5742C88.0759 20.878 87.7034 22.013 86.9584 22.9792C86.2134 23.9454 85.1832 24.6904 83.8677 25.2142C82.5523 25.7381 81.0215 26 79.2754 26Z" fill="url(#paint0_linear_1111_2169)"/>
<defs>
<linearGradient id="paint0_linear_1111_2169" x1="-4.91713" y1="30.4317" x2="90.7433" y2="-0.412082" gradientUnits="userSpaceOnUse">
<stop stop-color="#3C9B51"/>
<stop offset="1" stop-color="#53B669"/>
</linearGradient>
</defs>
</svg>
