<svg width="24" height="24" viewBox="0 0 24 24" fill="none" xmlns="http://www.w3.org/2000/svg">
<path d="M23.6408 14.9029C22.0379 21.3315 15.5261 25.2438 9.096 23.6407C2.66862 22.0381 -1.24414 15.5265 0.35942 9.09837C1.96157 2.66903 8.47343 -1.24361 14.9015 0.359081C21.3311 1.96177 25.2438 8.47393 23.6408 14.9029Z" fill="#7950DD"/>
<path d="M15.695 9.47146C15.4273 9.30655 15.0792 9.30655 14.7846 9.47146L12.696 10.7357L11.2768 11.5602L9.18818 12.8245C8.92042 12.9894 8.57231 12.9894 8.27776 12.8245L6.61757 11.8351C6.3498 11.6702 6.16236 11.3679 6.16236 11.038V9.08668C6.16236 8.75687 6.32302 8.45454 6.61757 8.28964L8.25098 7.32769C8.51875 7.16279 8.86684 7.16279 9.16141 7.32769L10.7948 8.28964C11.0626 8.45454 11.25 8.75687 11.25 9.08668V10.3509L12.6692 9.49894V8.23467C12.6692 7.90486 12.5086 7.60254 12.214 7.43763L9.18818 5.62368C8.92042 5.45877 8.57231 5.45877 8.27776 5.62368L5.19838 7.43763C4.90383 7.60254 4.74316 7.90486 4.74316 8.23467V11.8901C4.74316 12.2199 4.90383 12.5222 5.19838 12.6871L8.27776 14.501C8.54553 14.666 8.89365 14.666 9.18818 14.501L11.2768 13.2642L12.696 12.4123L14.7846 11.1755C15.0524 11.0106 15.4005 11.0106 15.695 11.1755L17.3285 12.1374C17.5963 12.3023 17.7837 12.6047 17.7837 12.9345V14.8858C17.7837 15.2156 17.623 15.518 17.3285 15.6829L15.695 16.6723C15.4273 16.8372 15.0792 16.8372 14.7846 16.6723L13.1512 15.7104C12.8834 15.5455 12.696 15.2431 12.696 14.9133V13.649L11.2768 14.501V15.7653C11.2768 16.0951 11.4375 16.3974 11.732 16.5623L14.8114 18.3763C15.0792 18.5412 15.4273 18.5412 15.7218 18.3763L18.8012 16.5623C19.069 16.3974 19.2564 16.0951 19.2564 15.7653V12.1099C19.2564 11.7801 19.0958 11.4778 18.8012 11.3129L15.695 9.47146Z" fill="white"/>
</svg>
