<svg width="264" height="264" viewBox="0 0 264 264" fill="none" xmlns="http://www.w3.org/2000/svg">
<path fill-rule="evenodd" clip-rule="evenodd" d="M0 31.8047V63.6094H31.8047H63.6094V31.8047V0H31.8047H0V31.8047ZM72.7559 18.2929V36.5858H77.3291H81.9024V32.0126V27.4394H86.4756H91.0488V32.0126V36.5858H100.195H109.342V41.1591V45.7323H104.769H100.195V50.0976V54.463H95.622H91.0488V50.0976V45.7323H81.9024H72.7559V54.6709V63.6094H77.3291H81.9024V59.0362V54.463H86.4756H91.0488V63.6094V72.7559H95.622H100.195V77.3291V81.9024H109.342H118.488V86.4756V91.0488H104.769H91.0488V95.622V100.195H100.195H109.342V109.342V118.488H104.769H100.195V127.427V136.365H91.0488H81.9024V132V127.635H77.3291H72.7559V123.061V118.488H77.3291H81.9024V109.342V100.195H77.3291H72.7559V91.0488V81.9024H68.1827H63.6094V77.3291V72.7559H50.0976H36.5858V77.3291V81.9024H32.0126H27.4394V86.4756V91.0488H18.2929H9.14646V86.4756V81.9024H13.7197H18.2929V77.3291V72.7559H9.14646H0V86.4756V100.195H4.57323H9.14646V104.769V109.342H4.57323H0V118.488V127.635H4.57323H9.14646V118.488V109.342H13.7197H18.2929V113.915V118.488H27.4394H36.5858V104.769V91.0488H45.5244H54.463V95.622V100.195H59.0362H63.6094V104.769V109.342H54.6709H45.7323V113.915V118.488H54.6709H63.6094V123.061V127.635H59.0362H54.463V132V136.365H59.0362H63.6094V132V127.635H68.1827H72.7559V136.573V145.512H63.6094H54.463V150.085V154.658H50.0976H45.7323V159.231V163.805H50.0976H54.463V168.378V172.951H50.0976H45.7323V177.524V182.098H36.5858H27.4394V186.671V191.244H50.0976H72.7559V195.817V200.391H77.3291H81.9024V191.244V182.098H68.1827H54.463V177.524V172.951H59.0362H63.6094V168.378V163.805H59.0362H54.463V159.231V154.658H63.6094H72.7559V159.231V163.805H86.4756H100.195V172.951V182.098H95.622H91.0488V186.671V191.244H95.622H100.195V195.817V200.391H95.622H91.0488V204.964V209.537H95.622H100.195V204.964V200.391H109.342H118.488V204.964V209.537H113.915H109.342V214.11V218.683H113.915H118.488V223.049V227.414H113.915H109.342V236.561V245.707H104.769H100.195V232.195V218.683H95.622H91.0488V223.049V227.414H86.4756H81.9024V218.476V209.537H77.3291H72.7559V218.476V227.414H77.3291H81.9024V236.561V245.707H77.3291H72.7559V254.854V264H81.9024H91.0488V254.854V245.707H95.622H100.195V250.28V254.854H104.769H109.342V259.427V264H122.854H136.365V259.427V254.854H150.085H163.805V259.427V264H172.951H182.098V259.427V254.854H191.244H200.391V259.427V264H204.964H209.537V259.427V254.854H214.11H218.683V259.427V264H232.195H245.707V259.427V254.854H250.28H254.854V250.28V245.707H259.427H264V236.561V227.414H259.427H254.854V213.902V200.391H259.427H264V191.244V182.098H259.427H254.854V177.524V172.951H259.427H264V159.231V145.512H259.427H254.854V140.939V136.365H245.707H236.561V140.939V145.512H227.622H218.683V140.939V136.365H223.049H227.414V132V127.635H231.987H236.561V123.061V118.488H245.707H254.854V109.342V100.195H259.427H264V95.622V91.0488H259.427H254.854V95.622V100.195H250.28H245.707V104.769V109.342H236.561H227.414V113.915V118.488H223.049H218.683V104.769V91.0488H223.049H227.414V95.622V100.195H231.987H236.561V95.622V91.0488H241.134H245.707V86.4756V81.9024H254.854H264V77.3291V72.7559H245.707H227.414V77.3291V81.9024H223.049H218.683V77.3291V72.7559H214.11H209.537V91.0488V109.342H204.964H200.391V104.769V100.195H195.817H191.244V95.622V91.0488H195.817H200.391V86.4756V81.9024H195.817H191.244V77.3291V72.7559H186.671H182.098V68.1827V63.6094H186.671H191.244V59.0362V54.463H186.671H182.098V59.0362V63.6094H177.524H172.951V45.5244V27.4394H177.524H182.098V36.5858V45.7323H186.671H191.244V36.5858V27.4394H186.671H182.098V22.8661V18.2929H177.524H172.951V13.7197V9.14646H182.098H191.244V4.57323V0H177.524H163.805V9.14646V18.2929H159.231H154.658V22.8661V27.4394H159.231H163.805V36.5858V45.7323H159.231H154.658V41.1591V36.5858H150.085H145.512V27.4394V18.2929H140.939H136.365V27.4394V36.5858H127.427H118.488V32.0126V27.4394H113.915H109.342V22.8661V18.2929H113.915H118.488V13.7197V9.14646H123.061H127.635V4.57323V0H123.061H118.488V4.57323V9.14646H113.915H109.342V4.57323V0H104.769H100.195V13.7197V27.4394H95.622H91.0488V22.8661V18.2929H86.4756H81.9024V9.14646V0H77.3291H72.7559V18.2929ZM136.365 4.57323V9.14646H140.939H145.512V4.57323V0H140.939H136.365V4.57323ZM200.391 31.8047V63.6094H232.195H264V31.8047V0H232.195H200.391V31.8047ZM54.463 31.8047V54.463H31.8047H9.14646V31.8047V9.14646H31.8047H54.463V31.8047ZM254.854 31.8047V54.463H232.195H209.537V31.8047V9.14646H232.195H254.854V31.8047ZM18.2929 32.0126V45.7323H32.0126H45.7323V32.0126V18.2929H32.0126H18.2929V32.0126ZM172.951 22.8661V27.4394H168.378H163.805V22.8661V18.2929H168.378H172.951V22.8661ZM218.683 32.0126V45.7323H232.195H245.707V32.0126V18.2929H232.195H218.683V32.0126ZM145.512 41.1591V45.7323H150.085H154.658V50.0976V54.463H159.231H163.805V59.0362V63.6094H168.378H172.951V68.1827V72.7559H168.378H163.805V68.1827V63.6094H159.231H154.658V68.1827V72.7559H145.512H136.365V81.9024V91.0488H132H127.635V86.4756V81.9024H123.061H118.488V68.1827V54.463H123.061H127.635V63.6094V72.7559H132H136.365V63.6094V54.463H140.939H145.512V50.0976V45.7323H140.939H136.365V41.1591V36.5858H140.939H145.512V41.1591ZM109.342 59.0362V63.6094H104.769H100.195V59.0362V54.463H104.769H109.342V59.0362ZM145.512 59.0362V63.6094H150.085H154.658V59.0362V54.463H150.085H145.512V59.0362ZM63.6094 86.4756V91.0488H59.0362H54.463V86.4756V81.9024H59.0362H63.6094V86.4756ZM154.658 86.4756V91.0488H163.805H172.951V95.622V100.195H168.378H163.805V109.342V118.488H168.378H172.951V113.915V109.342H177.524H182.098V113.915V118.488H200.391H218.683V123.061V127.635H214.11H209.537V136.573V145.512H214.11H218.683V154.658V163.805H223.049H227.414V159.231V154.658H231.987H236.561V150.085V145.512H241.134H245.707V154.658V163.805H241.134H236.561V168.378V172.951H241.134H245.707V177.524V182.098H241.134H236.561V186.671V191.244H241.134H245.707V200.391V209.537H236.561H227.414V195.817V182.098H223.049H218.683V172.951V163.805H214.11H209.537V168.378V172.951H204.964H200.391V177.524V182.098H191.244H182.098V186.671V191.244H177.524H172.951V195.817V200.391H177.524H182.098V213.902V227.414H177.524H172.951V223.049V218.683H168.378H163.805V227.622V236.561H172.951H182.098V241.134V245.707H177.524H172.951V250.28V254.854H168.378H163.805V245.707V236.561H154.658H145.512V241.134V245.707H140.939H136.365V250.28V254.854H132H127.635V250.28V245.707H123.061H118.488V241.134V236.561H123.061H127.635V231.987V227.414H136.573H145.512V223.049V218.683H140.939H136.365V214.11V209.537H132H127.635V214.11V218.683H123.061H118.488V214.11V209.537H123.061H127.635V204.964V200.391H141.146H154.658V191.244V182.098H145.512H136.365V186.671V191.244H132H127.635V186.671V182.098H123.061H118.488V186.671V191.244H109.342H100.195V186.671V182.098H104.769H109.342V177.524V172.951H113.915H118.488V168.378V163.805H123.061H127.635V159.231V154.658H132H136.365V141.146V127.635H140.939H145.512V123.061V118.488H150.085H154.658V113.915V109.342H145.512H136.365V113.915V118.488H127.427H118.488V109.342V100.195H123.061H127.635V104.769V109.342H132H136.365V104.769V100.195H145.512H154.658V95.622V91.0488H150.085H145.512V86.4756V81.9024H150.085H154.658V86.4756ZM236.561 86.4756V91.0488H231.987H227.414V86.4756V81.9024H231.987H236.561V86.4756ZM27.4394 132V136.365H22.8661H18.2929V140.939V145.512H9.14646H0V154.658V163.805H4.57323H9.14646V159.231V154.658H13.7197H18.2929V150.085V145.512H22.8661H27.4394V150.085V154.658H32.0126H36.5858V150.085V145.512H41.1591H45.7323V140.939V136.365H41.1591H36.5858V132V127.635H32.0126H27.4394V132ZM127.635 136.573V145.512H123.061H118.488V150.085V154.658H113.915H109.342V159.231V163.805H104.769H100.195V154.658V145.512H109.342H118.488V140.939V136.365H113.915H109.342V132V127.635H118.488H127.635V136.573ZM163.805 132V136.365H154.658H145.512V145.512V154.658H140.939H136.365V159.231V163.805H140.939H145.512V159.231V154.658H150.085H154.658V159.231V163.805H159.231H163.805V159.231V154.658H168.378H172.951V159.231V163.805H186.671H200.391V154.658V145.512H195.817H191.244V150.085V154.658H186.671H182.098V150.085V145.512H177.524H172.951V136.573V127.635H168.378H163.805V132ZM182.098 132V136.365H186.671H191.244V132V127.635H186.671H182.098V132ZM36.5858 140.939V145.512H32.0126H27.4394V140.939V136.365H32.0126H36.5858V140.939ZM81.9024 150.085V154.658H77.3291H72.7559V150.085V145.512H77.3291H81.9024V150.085ZM18.2929 168.378V172.951H27.4394H36.5858V168.378V163.805H27.4394H18.2929V168.378ZM127.635 177.524V182.098H132H136.365V177.524V172.951H132H127.635V177.524ZM154.658 177.524V182.098H159.231H163.805V186.671V191.244H168.378H172.951V186.671V182.098H177.524H182.098V177.524V172.951H168.378H154.658V177.524ZM227.414 177.524V182.098H231.987H236.561V177.524V172.951H231.987H227.414V177.524ZM0 186.671V191.244H9.14646H18.2929V186.671V182.098H9.14646H0V186.671ZM218.683 204.964V218.683H204.964H191.244V204.964V191.244H204.964H218.683V204.964ZM0 232.195V264H31.8047H63.6094V232.195V200.391H31.8047H0V232.195ZM154.658 204.964V209.537H150.085H145.512V214.11V218.683H154.658H163.805V209.537V200.391H159.231H154.658V204.964ZM200.391 204.964V209.537H204.964H209.537V204.964V200.391H204.964H200.391V204.964ZM54.463 232.195V254.854H31.8047H9.14646V232.195V209.537H31.8047H54.463V232.195ZM18.2929 232.195V245.707H32.0126H45.7323V232.195V218.683H32.0126H18.2929V232.195ZM245.707 223.049V227.414H250.28H254.854V231.987V236.561H250.28H245.707V245.707V254.854H241.134H236.561V250.28V245.707H231.987H227.414V250.28V254.854H223.049H218.683V245.707V236.561H204.964H191.244V231.987V227.414H204.964H218.683V231.987V236.561H223.049H227.414V231.987V227.414H231.987H236.561V223.049V218.683H241.134H245.707V223.049ZM127.635 241.134V245.707H132H136.365V241.134V236.561H132H127.635V241.134Z" fill="black"/>
</svg>
