<svg width="17" height="16" viewBox="0 0 17 16" fill="none" xmlns="http://www.w3.org/2000/svg">
<path d="M5.16667 8.0026H8.5V11.3359M2.50667 8.0026H2.5M5.84 11.3359H5.83333M8.50667 14.0026H8.5M14.5067 8.0026H14.5M2.5 11.3359H3.5M10.8333 8.0026H12.1667M2.5 14.0026H5.83333M8.5 1.33594V5.33594M12.2333 14.0026H13.4333C13.8067 14.0026 13.9934 14.0026 14.136 13.9299C14.2614 13.866 14.3634 13.764 14.4273 13.6386C14.5 13.496 14.5 13.3093 14.5 12.9359V11.7359C14.5 11.3626 14.5 11.1759 14.4273 11.0333C14.3634 10.9078 14.2614 10.8058 14.136 10.7419C13.9934 10.6693 13.8067 10.6693 13.4333 10.6693H12.2333C11.86 10.6693 11.6733 10.6693 11.5307 10.7419C11.4052 10.8058 11.3032 10.9078 11.2393 11.0333C11.1667 11.1759 11.1667 11.3626 11.1667 11.7359V12.9359C11.1667 13.3093 11.1667 13.496 11.2393 13.6386C11.3032 13.764 11.4052 13.866 11.5307 13.9299C11.6733 14.0026 11.86 14.0026 12.2333 14.0026ZM12.2333 5.33594H13.4333C13.8067 5.33594 13.9934 5.33594 14.136 5.26328C14.2614 5.19936 14.3634 5.09737 14.4273 4.97193C14.5 4.82932 14.5 4.64264 14.5 4.26927V3.06927C14.5 2.6959 14.5 2.50922 14.4273 2.36661C14.3634 2.24117 14.2614 2.13918 14.136 2.07527C13.9934 2.0026 13.8067 2.0026 13.4333 2.0026H12.2333C11.86 2.0026 11.6733 2.0026 11.5307 2.07527C11.4052 2.13918 11.3032 2.24117 11.2393 2.36661C11.1667 2.50922 11.1667 2.6959 11.1667 3.06927V4.26927C11.1667 4.64264 11.1667 4.82932 11.2393 4.97193C11.3032 5.09737 11.4052 5.19936 11.5307 5.26328C11.6733 5.33594 11.86 5.33594 12.2333 5.33594ZM3.56667 5.33594H4.76667C5.14004 5.33594 5.32672 5.33594 5.46933 5.26328C5.59477 5.19936 5.69676 5.09737 5.76067 4.97193C5.83333 4.82932 5.83333 4.64264 5.83333 4.26927V3.06927C5.83333 2.6959 5.83333 2.50922 5.76067 2.36661C5.69676 2.24117 5.59477 2.13918 5.46933 2.07527C5.32672 2.0026 5.14004 2.0026 4.76667 2.0026H3.56667C3.1933 2.0026 3.00661 2.0026 2.86401 2.07527C2.73856 2.13918 2.63658 2.24117 2.57266 2.36661C2.5 2.50922 2.5 2.6959 2.5 3.06927V4.26927C2.5 4.64264 2.5 4.82932 2.57266 4.97193C2.63658 5.09737 2.73856 5.19936 2.86401 5.26328C3.00661 5.33594 3.1933 5.33594 3.56667 5.33594Z" stroke="white" stroke-width="1.4" stroke-linecap="round" stroke-linejoin="round"/>
</svg>
