<svg width="24" height="24" viewBox="0 0 24 24" fill="none" xmlns="http://www.w3.org/2000/svg">
<path d="M23.6408 14.9029C22.0379 21.3315 15.5261 25.2438 9.096 23.6407C2.66862 22.0381 -1.24414 15.5265 0.35942 9.09837C1.96157 2.66903 8.47343 -1.24361 14.9015 0.359081C21.3311 1.96177 25.2438 8.47393 23.6408 14.9029Z" fill="url(#paint0_linear_509_364)"/>
<path d="M18.6383 15.4613L16.4233 17.8363C16.3754 17.8878 16.3174 17.929 16.2529 17.9572C16.1884 17.9854 16.1187 17.9999 16.0483 18H5.54837C5.49829 18 5.44931 17.9853 5.40741 17.9579C5.36552 17.9305 5.33254 17.8914 5.31251 17.8455C5.29248 17.7996 5.28627 17.7489 5.29464 17.6995C5.303 17.6501 5.32559 17.6042 5.35962 17.5675L7.57211 15.1925C7.62002 15.1409 7.67804 15.0998 7.74256 15.0716C7.80707 15.0434 7.87671 15.0288 7.94711 15.0288H18.4471C18.4976 15.0277 18.5473 15.0416 18.5899 15.0688C18.6326 15.0959 18.6663 15.1351 18.6867 15.1813C18.7072 15.2276 18.7134 15.2788 18.7048 15.3286C18.6962 15.3784 18.6731 15.4246 18.6383 15.4613ZM16.4233 10.6775C16.3752 10.6262 16.3172 10.5852 16.2527 10.557C16.1882 10.5289 16.1187 10.5142 16.0483 10.5138H5.54837C5.49829 10.5138 5.44931 10.5284 5.40741 10.5559C5.36552 10.5833 5.33254 10.6224 5.31251 10.6683C5.29248 10.7142 5.28627 10.7649 5.29464 10.8143C5.303 10.8637 5.32559 10.9096 5.35962 10.9463L7.57211 13.3225C7.6202 13.3739 7.67826 13.4149 7.74274 13.443C7.80721 13.4712 7.87676 13.4859 7.94711 13.4863H18.4471C18.4971 13.486 18.5458 13.4712 18.5876 13.4437C18.6293 13.4161 18.6621 13.3771 18.6819 13.3312C18.7018 13.2854 18.7079 13.2347 18.6994 13.1854C18.6911 13.1362 18.6686 13.0904 18.6346 13.0538L16.4233 10.6775ZM5.54837 8.97129H16.0483C16.1187 8.97122 16.1884 8.95664 16.2529 8.92846C16.3174 8.9003 16.3754 8.85912 16.4233 8.80754L18.6383 6.43255C18.6731 6.39587 18.6962 6.34972 18.7048 6.29991C18.7134 6.2501 18.7072 6.19885 18.6867 6.15262C18.6663 6.10638 18.6326 6.06723 18.5899 6.04009C18.5473 6.01294 18.4976 5.99901 18.4471 6.00005H7.94711C7.87671 6.00013 7.80707 6.01471 7.74256 6.04288C7.67804 6.07105 7.62002 6.11222 7.57211 6.1638L5.35962 8.53879C5.32559 8.57553 5.303 8.6214 5.29464 8.67078C5.28627 8.72015 5.29248 8.77089 5.31251 8.81679C5.33254 8.86269 5.36552 8.90175 5.40741 8.92919C5.44931 8.95664 5.49829 8.97126 5.54837 8.97129Z" fill="white"/>
<defs>
<linearGradient id="paint0_linear_509_364" x1="2.02543" y1="24.5725" x2="24.2031" y2="2.21134" gradientUnits="userSpaceOnUse">
<stop offset="0.08" stop-color="#9945FF"/>
<stop offset="0.3" stop-color="#8752F3"/>
<stop offset="0.5" stop-color="#5497D5"/>
<stop offset="0.6" stop-color="#43B4CA"/>
<stop offset="0.72" stop-color="#28E0B9"/>
<stop offset="0.97" stop-color="#19FB9B"/>
</linearGradient>
</defs>
</svg>
