<svg width="21" height="20" viewBox="0 0 21 20" fill="none" xmlns="http://www.w3.org/2000/svg">
<path d="M9.10417 16.4025C9.05106 16.1826 8.94673 15.9783 8.79969 15.8063C8.65264 15.6344 8.46704 15.4996 8.25801 15.413C8.04899 15.3264 7.82245 15.2904 7.59688 15.308C7.37131 15.3256 7.15309 15.3962 6.96 15.5142C5.67417 16.2975 4.20167 14.8258 4.985 13.5392C5.10258 13.3461 5.17296 13.1281 5.1904 12.9027C5.20785 12.6773 5.17187 12.451 5.08539 12.2422C4.99892 12.0333 4.86438 11.8479 4.69273 11.7008C4.52107 11.5537 4.31714 11.4492 4.0975 11.3958C2.63417 11.0408 2.63417 8.95917 4.0975 8.60417C4.31733 8.5509 4.52148 8.44648 4.69333 8.29941C4.86518 8.15233 4.99988 7.96676 5.08645 7.75779C5.17303 7.54882 5.20904 7.32236 5.19156 7.09685C5.17407 6.87133 5.10359 6.65313 4.98583 6.46C4.2025 5.17417 5.67417 3.70167 6.96083 4.485C7.79417 4.99167 8.87417 4.54333 9.10417 3.5975C9.45917 2.13417 11.5408 2.13417 11.8958 3.5975C11.9491 3.81733 12.0535 4.02148 12.2006 4.19333C12.3477 4.36518 12.5332 4.49988 12.7422 4.58645C12.9512 4.67303 13.1776 4.70904 13.4032 4.69156C13.6287 4.67407 13.8469 4.60359 14.04 4.48583C15.3258 3.7025 16.7983 5.17417 16.015 6.46083C15.8974 6.65388 15.827 6.87195 15.8096 7.09731C15.7922 7.32267 15.8281 7.54897 15.9146 7.75782C16.0011 7.96666 16.1356 8.15215 16.3073 8.29921C16.4789 8.44627 16.6829 8.55075 16.9025 8.60417C17.0967 8.64704 17.2794 8.73104 17.4384 8.85049C17.5974 8.96995 17.7289 9.12209 17.8242 9.29667" stroke="#1C1A24" stroke-width="1.4" stroke-linecap="round" stroke-linejoin="round"/>
<path d="M12.9103 9.33102C12.8011 8.93831 12.5976 8.57823 12.3175 8.28214C12.0374 7.98605 11.6891 7.76291 11.3031 7.63216C10.917 7.50141 10.5048 7.467 10.1024 7.53194C9.70002 7.59688 9.31959 7.75919 8.99425 8.00474C8.66891 8.2503 8.40853 8.57165 8.23576 8.94083C8.06299 9.31001 7.98308 9.71583 8.00298 10.1229C8.02289 10.5301 8.142 10.9261 8.34995 11.2767C8.5579 11.6273 8.84839 11.9217 9.19613 12.1344" stroke="#1C1A24" stroke-width="1.4" stroke-linecap="round" stroke-linejoin="round"/>
<path d="M15.3326 17.3492L13.5226 18.2975C13.4688 18.3255 13.4084 18.338 13.348 18.3336C13.2876 18.3292 13.2296 18.3081 13.1805 18.2726C13.1314 18.2372 13.0932 18.1888 13.07 18.1329C13.0468 18.0769 13.0396 18.0156 13.0492 17.9559L13.3951 15.9467L11.9309 14.5242C11.8872 14.4819 11.8562 14.4283 11.8416 14.3693C11.8269 14.3103 11.8292 14.2483 11.848 14.1906C11.8669 14.1328 11.9016 14.0815 11.9482 14.0425C11.9949 14.0035 12.0515 13.9784 12.1117 13.97L14.1351 13.6767L15.0401 11.8492C15.0671 11.7948 15.1088 11.749 15.1605 11.7169C15.2122 11.6849 15.2718 11.668 15.3326 11.668C15.3933 11.668 15.4529 11.6849 15.5046 11.7169C15.5563 11.749 15.598 11.7948 15.6251 11.8492L16.5301 13.6767L18.5534 13.97C18.6134 13.9787 18.6698 14.0039 18.7163 14.043C18.7627 14.082 18.7973 14.1332 18.8161 14.1909C18.8349 14.2485 18.8372 14.3103 18.8227 14.3692C18.8083 14.4281 18.7776 14.4818 18.7342 14.5242L17.2701 15.9467L17.6151 17.955C17.6254 18.0149 17.6188 18.0765 17.5959 18.1328C17.573 18.1891 17.5348 18.2379 17.4855 18.2735C17.4363 18.3092 17.3781 18.3304 17.3175 18.3346C17.2569 18.3388 17.1963 18.326 17.1426 18.2975L15.3326 17.3492Z" stroke="#1C1A24" stroke-width="1.4" stroke-linecap="round" stroke-linejoin="round"/>
</svg>
