<svg width="21" height="20" viewBox="0 0 21 20" fill="none" xmlns="http://www.w3.org/2000/svg">
<path d="M9.10417 3.5975C9.45917 2.13417 11.5408 2.13417 11.8958 3.5975C11.9491 3.81733 12.0535 4.02148 12.2006 4.19333C12.3477 4.36518 12.5332 4.49988 12.7422 4.58645C12.9512 4.67303 13.1776 4.70904 13.4032 4.69156C13.6287 4.67407 13.8469 4.60359 14.04 4.48583C15.3258 3.7025 16.7983 5.17417 16.015 6.46083C15.8974 6.65388 15.827 6.87195 15.8096 7.09731C15.7922 7.32267 15.8281 7.54897 15.9146 7.75782C16.0011 7.96666 16.1356 8.15215 16.3073 8.29921C16.4789 8.44627 16.6829 8.55075 16.9025 8.60417C18.3658 8.95917 18.3658 11.0408 16.9025 11.3958C16.6827 11.4491 16.4785 11.5535 16.3067 11.7006C16.1348 11.8477 16.0001 12.0332 15.9135 12.2422C15.827 12.4512 15.791 12.6776 15.8084 12.9032C15.8259 13.1287 15.8964 13.3469 16.0142 13.54C16.7975 14.8258 15.3258 16.2983 14.0392 15.515C13.8461 15.3974 13.6281 15.327 13.4027 15.3096C13.1773 15.2922 12.951 15.3281 12.7422 15.4146C12.5333 15.5011 12.3479 15.6356 12.2008 15.8073C12.0537 15.9789 11.9492 16.1829 11.8958 16.4025C11.5408 17.8658 9.45917 17.8658 9.10417 16.4025C9.0509 16.1827 8.94648 15.9785 8.79941 15.8067C8.65233 15.6348 8.46676 15.5001 8.25779 15.4135C8.04882 15.327 7.82236 15.291 7.59685 15.3084C7.37133 15.3259 7.15313 15.3964 6.96 15.5142C5.67417 16.2975 4.20167 14.8258 4.985 13.5392C5.10258 13.3461 5.17296 13.1281 5.1904 12.9027C5.20785 12.6773 5.17187 12.451 5.08539 12.2422C4.99892 12.0333 4.86438 11.8479 4.69273 11.7008C4.52107 11.5537 4.31714 11.4492 4.0975 11.3958C2.63417 11.0408 2.63417 8.95917 4.0975 8.60417C4.31733 8.5509 4.52148 8.44648 4.69333 8.29941C4.86518 8.15233 4.99988 7.96676 5.08645 7.75779C5.17303 7.54882 5.20904 7.32236 5.19156 7.09685C5.17407 6.87133 5.10359 6.65313 4.98583 6.46C4.2025 5.17417 5.67417 3.70167 6.96083 4.485C7.79417 4.99167 8.87417 4.54333 9.10417 3.5975Z" stroke="#1C1A24" stroke-width="1.4" stroke-linecap="round" stroke-linejoin="round"/>
<path d="M8 10C8 10.663 8.26339 11.2989 8.73223 11.7678C9.20107 12.2366 9.83696 12.5 10.5 12.5C11.163 12.5 11.7989 12.2366 12.2678 11.7678C12.7366 11.2989 13 10.663 13 10C13 9.33696 12.7366 8.70107 12.2678 8.23223C11.7989 7.76339 11.163 7.5 10.5 7.5C9.83696 7.5 9.20107 7.76339 8.73223 8.23223C8.26339 8.70107 8 9.33696 8 10Z" stroke="#1C1A24" stroke-width="1.4" stroke-linecap="round" stroke-linejoin="round"/>
</svg>
