<svg width="20" height="20" viewBox="0 0 20 20" fill="none" xmlns="http://www.w3.org/2000/svg">
<path d="M14.1641 2.78455C15.421 3.51026 16.4665 4.55165 17.1972 5.80563C17.928 7.05961 18.3185 8.48269 18.3303 9.934C18.342 11.3853 17.9745 12.8145 17.2641 14.0801C16.5537 15.3457 15.5251 16.4039 14.2801 17.1498C13.0351 17.8957 11.6169 18.3036 10.1658 18.3329C8.71476 18.3623 7.28119 18.0122 6.00703 17.3172C4.73286 16.6223 3.66229 15.6066 2.90128 14.3708C2.14028 13.135 1.71524 11.7218 1.66823 10.2712L1.66406 10.0012L1.66823 9.73121C1.7149 8.29204 2.13369 6.88951 2.88376 5.66037C3.63384 4.43123 4.68961 3.41742 5.94814 2.71778C7.20667 2.01814 8.62502 1.65654 10.0649 1.66824C11.5048 1.67994 12.9171 2.06454 14.1641 2.78455ZM13.2882 8.48788C13.2237 8.29417 13.0903 8.1309 12.9133 8.02905C12.7363 7.92721 12.5281 7.89387 12.3282 7.93538L12.2341 7.96038L9.9974 8.70621L7.76073 7.96038L7.66656 7.93538C7.46684 7.89427 7.25897 7.92782 7.08231 8.02968C6.90566 8.13154 6.77249 8.29463 6.708 8.48808C6.64352 8.68153 6.6522 8.89191 6.73241 9.07939C6.81262 9.26687 6.95878 9.41843 7.14323 9.50538L7.23406 9.54205L9.16406 10.1845V10.9979L7.6374 13.2895L7.5874 13.3729C7.50291 13.5388 7.47645 13.7283 7.51225 13.9111C7.54805 14.0939 7.64404 14.2594 7.7849 14.3812L7.86823 14.4445L7.9524 14.4945C8.11837 14.579 8.30786 14.6055 8.49062 14.5697C8.67339 14.5339 8.8389 14.4379 8.96073 14.297L9.02406 14.2137L9.9974 12.7537L10.9707 14.2137L11.0291 14.2912C11.1613 14.4471 11.3462 14.5489 11.5485 14.5773C11.7509 14.6058 11.9567 14.5588 12.1268 14.4455C12.2968 14.3321 12.4193 14.1602 12.4709 13.9624C12.5224 13.7647 12.4996 13.5549 12.4066 13.3729L12.3574 13.2895L10.8307 10.9979V10.1837L12.7607 9.54121L12.8516 9.50455C13.0363 9.41784 13.1828 9.26635 13.2633 9.0788C13.3438 8.89126 13.3527 8.68069 13.2882 8.48704V8.48788ZM9.9974 5.00121C9.66588 5.00121 9.34793 5.13291 9.11351 5.36733C8.87909 5.60175 8.7474 5.91969 8.7474 6.25121C8.7474 6.58273 8.87909 6.90068 9.11351 7.1351C9.34793 7.36952 9.66588 7.50121 9.9974 7.50121C10.3289 7.50121 10.6469 7.36952 10.8813 7.1351C11.1157 6.90068 11.2474 6.58273 11.2474 6.25121C11.2474 5.91969 11.1157 5.60175 10.8813 5.36733C10.6469 5.13291 10.3289 5.00121 9.9974 5.00121Z" fill="#53B669"/>
</svg>
