<svg width="21" height="20" viewBox="0 0 21 20" fill="none" xmlns="http://www.w3.org/2000/svg">
<path d="M14.6693 6.66536V4.16536C14.6693 3.94435 14.5815 3.73239 14.4252 3.57611C14.2689 3.41983 14.057 3.33203 13.8359 3.33203H5.5026C5.06058 3.33203 4.63665 3.50763 4.32409 3.82019C4.01153 4.13275 3.83594 4.55667 3.83594 4.9987M3.83594 4.9987C3.83594 5.44073 4.01153 5.86465 4.32409 6.17721C4.63665 6.48977 5.06058 6.66536 5.5026 6.66536H15.5026C15.7236 6.66536 15.9356 6.75316 16.0919 6.90944C16.2481 7.06572 16.3359 7.27768 16.3359 7.4987V9.9987M3.83594 4.9987V14.9987C3.83594 15.4407 4.01153 15.8646 4.32409 16.1772C4.63665 16.4898 5.06058 16.6654 5.5026 16.6654H15.5026C15.7236 16.6654 15.9356 16.5776 16.0919 16.4213C16.2481 16.265 16.3359 16.053 16.3359 15.832V13.332" stroke="#1C1A24" stroke-width="1.4" stroke-linecap="round" stroke-linejoin="round"/>
<path d="M17.1641 10V13.3333H13.8307C13.3887 13.3333 12.9648 13.1577 12.6522 12.8452C12.3397 12.5326 12.1641 12.1087 12.1641 11.6667C12.1641 11.2246 12.3397 10.8007 12.6522 10.4882C12.9648 10.1756 13.3887 10 13.8307 10H17.1641Z" stroke="#1C1A24" stroke-width="1.4" stroke-linecap="round" stroke-linejoin="round"/>
</svg>
