<svg width="20" height="20" viewBox="0 0 20 20" fill="none" xmlns="http://www.w3.org/2000/svg">
<path d="M4.16667 10H2.5L10 2.5L17.5 10H15.8333" stroke="#1C1A24" stroke-width="1.8" stroke-linecap="round" stroke-linejoin="round"/>
<path d="M4.16797 10V15.8333C4.16797 16.2754 4.34356 16.6993 4.65612 17.0118C4.96868 17.3244 5.39261 17.5 5.83464 17.5H14.168C14.61 17.5 15.0339 17.3244 15.3465 17.0118C15.659 16.6993 15.8346 16.2754 15.8346 15.8333V10" stroke="#1C1A24" stroke-width="1.8" stroke-linecap="round" stroke-linejoin="round"/>
<path d="M7.5 17.4987V12.4987C7.5 12.0567 7.6756 11.6327 7.98816 11.3202C8.30072 11.0076 8.72464 10.832 9.16667 10.832H10.8333C11.2754 10.832 11.6993 11.0076 12.0118 11.3202C12.3244 11.6327 12.5 12.0567 12.5 12.4987V17.4987" stroke="#1C1A24" stroke-width="1.8" stroke-linecap="round" stroke-linejoin="round"/>
</svg>
