<svg width="24" height="24" viewBox="0 0 24 24" fill="none" xmlns="http://www.w3.org/2000/svg">
<path d="M23.6408 14.9029C22.0379 21.3315 15.5261 25.2438 9.096 23.6407C2.66862 22.0381 -1.24414 15.5265 0.35942 9.09837C1.96157 2.66903 8.47343 -1.24361 14.9015 0.359081C21.3311 1.96177 25.2438 8.47393 23.6408 14.9029Z" fill="#0088CC"/>
<path fill-rule="evenodd" clip-rule="evenodd" d="M7.5489 6.57031H16.5228C16.8403 6.57031 17.1576 6.61691 17.4891 6.77151C17.8865 6.95671 18.0973 7.24881 18.2449 7.46471C18.2564 7.48151 18.2672 7.49881 18.2771 7.51651C18.4507 7.82561 18.5402 8.15921 18.5402 8.51811C18.5402 8.85921 18.459 9.23071 18.2771 9.55451C18.2754 9.55761 18.2736 9.56071 18.2718 9.56381L12.6022 19.3029C12.4772 19.5177 12.2471 19.6495 11.9986 19.6486C11.7501 19.6477 11.5209 19.5143 11.3974 19.2987L5.8319 9.58031C5.8303 9.57771 5.8287 9.57501 5.8271 9.57241C5.69973 9.36251 5.50276 9.03791 5.4683 8.61901C5.43664 8.23391 5.52321 7.84791 5.71676 7.51331C5.9103 7.17861 6.2017 6.91111 6.5521 6.74731C6.9279 6.57171 7.3087 6.57031 7.5489 6.57031ZM11.3054 7.96161H7.5489C7.3021 7.96161 7.2073 7.97681 7.1411 8.00781C7.0495 8.05051 6.9726 8.12081 6.9212 8.20981C6.8697 8.29881 6.8465 8.40191 6.8549 8.50501C6.8598 8.56421 6.8839 8.63191 7.0261 8.86641C7.0291 8.87131 7.032 8.87631 7.0349 8.88131L11.3054 16.3384V7.96161ZM12.6967 7.96161V16.3752L17.0661 8.86951C17.1154 8.77991 17.1489 8.65041 17.1489 8.51811C17.1489 8.41091 17.1266 8.31771 17.0769 8.22171C17.0248 8.14671 16.993 8.10701 16.9664 8.07981C16.9436 8.05651 16.9261 8.04411 16.9013 8.03251C16.798 7.98441 16.6922 7.96161 16.5228 7.96161H12.6967Z" fill="white"/>
</svg>
