<svg width="24" height="24" viewBox="0 0 24 24" fill="none" xmlns="http://www.w3.org/2000/svg">
<path d="M23.6408 14.9029C22.0379 21.3315 15.5261 25.2438 9.096 23.6407C2.66862 22.0381 -1.24414 15.5265 0.35942 9.09837C1.96157 2.66903 8.47343 -1.24361 14.9015 0.359081C21.3311 1.96177 25.2438 8.47393 23.6408 14.9029Z" fill="#EA332A"/>
<path d="M16.4565 7.69567L5.73047 5.67969L11.3752 20.1867L19.2402 10.3997L16.4565 7.69567ZM16.2839 8.58396L17.9246 10.1767L13.437 11.0067L16.2839 8.58396ZM12.4625 10.8407L7.73248 6.83413L15.4632 8.28695L12.4625 10.8407ZM12.1254 11.5493L11.3544 18.0616L7.19588 7.37328L12.1254 11.5493ZM12.8393 11.895L17.8084 10.9758L12.1086 18.0685L12.8393 11.895Z" fill="white"/>
</svg>
