<svg width="28" height="28" viewBox="0 0 28 28" fill="none" xmlns="http://www.w3.org/2000/svg">
<path d="M12.3866 2.20265C13.1856 1.11179 14.8144 1.11179 15.6134 2.20265L15.7971 2.45341C16.3517 3.21051 17.3581 3.48017 18.2169 3.10179L18.5014 2.97647C19.7388 2.43129 21.1494 3.24568 21.296 4.58992L21.3297 4.89892C21.4314 5.83188 22.1681 6.56862 23.1011 6.67035L23.4101 6.70404C24.7543 6.85061 25.5687 8.26118 25.0235 9.49861L24.8982 9.78306C24.5198 10.6419 24.7895 11.6483 25.5466 12.2029L25.7973 12.3866C26.8882 13.1856 26.8882 14.8144 25.7973 15.6134L25.5466 15.7971C24.7895 16.3517 24.5198 17.3581 24.8982 18.2169L25.0235 18.5014C25.5687 19.7388 24.7543 21.1494 23.4101 21.296L23.1011 21.3297C22.1681 21.4314 21.4314 22.1681 21.3297 23.1011L21.296 23.4101C21.1494 24.7543 19.7388 25.5687 18.5014 25.0235L18.2169 24.8982C17.3581 24.5198 16.3517 24.7895 15.7971 25.5466L15.6134 25.7973C14.8144 26.8882 13.1856 26.8882 12.3866 25.7973L12.2029 25.5466C11.6483 24.7895 10.6419 24.5198 9.78306 24.8982L9.49861 25.0235C8.26118 25.5687 6.85061 24.7543 6.70404 23.4101L6.67035 23.1011C6.56862 22.1681 5.83188 21.4314 4.89892 21.3297L4.58992 21.296C3.24568 21.1494 2.43129 19.7388 2.97647 18.5014L3.10179 18.2169C3.48017 17.3581 3.21051 16.3517 2.45341 15.7971L2.20265 15.6134C1.11179 14.8144 1.11179 13.1856 2.20265 12.3866L2.45341 12.2029C3.21051 11.6483 3.48017 10.6419 3.10179 9.78306L2.97647 9.49861C2.43129 8.26118 3.24568 6.85061 4.58992 6.70404L4.89892 6.67035C5.83188 6.56862 6.56862 5.83188 6.67035 4.89892L6.70404 4.58992C6.85061 3.24568 8.26118 2.43129 9.49861 2.97647L9.78306 3.10179C10.6419 3.48017 11.6483 3.21051 12.2029 2.45341L12.3866 2.20265Z" fill="#53B669"/>
<path d="M12.6165 4.68919C13.3016 3.75396 14.698 3.75396 15.3831 4.68919V4.68919C15.8585 5.33828 16.7214 5.56947 17.4577 5.24508V5.24508C18.5186 4.77767 19.7279 5.47588 19.8535 6.62834V6.62834C19.9408 7.42819 20.5724 8.05983 21.3722 8.14704V8.14704C22.5247 8.27271 23.2229 9.48204 22.7555 10.5429V10.5429C22.4311 11.2792 22.6623 12.1421 23.3114 12.6175V12.6175C24.2466 13.3026 24.2466 14.699 23.3114 15.384V15.384C22.6623 15.8595 22.4311 16.7223 22.7555 17.4586V17.4586C23.2229 18.5195 22.5247 19.7289 21.3722 19.8545V19.8545C20.5724 19.9417 19.9408 20.5734 19.8535 21.3732V21.3732C19.7279 22.5257 18.5186 23.2239 17.4577 22.7565V22.7565C16.7214 22.4321 15.8585 22.6633 15.3831 23.3124V23.3124C14.698 24.2476 13.3016 24.2476 12.6165 23.3124V23.3124C12.1411 22.6633 11.2783 22.4321 10.542 22.7565V22.7565C9.48106 23.2239 8.27173 22.5257 8.14607 21.3732V21.3732C8.05885 20.5734 7.42722 19.9417 6.62736 19.8545V19.8545C5.4749 19.7289 4.77669 18.5195 5.2441 17.4586V17.4586C5.5685 16.7223 5.3373 15.8595 4.68822 15.384V15.384C3.75298 14.699 3.75298 13.3026 4.68822 12.6175V12.6175C5.3373 12.1421 5.5685 11.2792 5.2441 10.5429V10.5429C4.77669 9.48204 5.4749 8.27271 6.62736 8.14704V8.14704C7.42722 8.05983 8.05885 7.42819 8.14607 6.62834V6.62834C8.27173 5.47588 9.48106 4.77767 10.542 5.24508V5.24508C11.2783 5.56947 12.1411 5.33828 12.6165 4.68919V4.68919Z" fill="#E3F3E7"/>
<path fill-rule="evenodd" clip-rule="evenodd" d="M10.7715 12.4846C10.3809 12.094 9.74777 12.094 9.35724 12.4846L8.99812 12.8437C8.6076 13.2342 8.6076 13.8674 8.99812 14.2579L11.8377 17.0974L12.9039 18.1637C13.2944 18.5542 13.9276 18.5542 14.3181 18.1637L15.3843 17.0974L19.5539 12.9279C19.9444 12.5374 19.9444 11.9042 19.5539 11.5137L19.1948 11.1546C18.8043 10.764 18.1711 10.764 17.7806 11.1546L14.3181 14.617C13.9276 15.0075 13.2944 15.0075 12.9039 14.617L10.7715 12.4846Z" fill="#53B669"/>
</svg>
