<svg width="25" height="24" viewBox="0 0 25 24" fill="none" xmlns="http://www.w3.org/2000/svg">
<path fill-rule="evenodd" clip-rule="evenodd" d="M12.5 0C19.1281 0 24.5 5.37188 24.5 12C24.5 18.6281 19.1281 24 12.5 24C5.87188 24 0.5 18.6281 0.5 12C0.5 5.37188 5.87188 0 12.5 0Z" fill="url(#paint0_radial_111_2052)"/>
<path d="M8.12647 9.26836C10.5405 6.91055 14.4593 6.91055 16.8733 9.26836L17.164 9.5543C17.2858 9.67148 17.2858 9.86367 17.164 9.98086L16.1702 10.9512C16.1093 11.0121 16.0108 11.0121 15.9499 10.9512L15.5515 10.5621C13.864 8.9168 11.1358 8.9168 9.44834 10.5621L9.02178 10.9793C8.96084 11.0402 8.8624 11.0402 8.80147 10.9793L7.80771 10.009C7.68584 9.8918 7.68584 9.69961 7.80771 9.58242L8.12647 9.26836ZM18.9312 11.2746L19.8171 12.1371C19.939 12.2543 19.939 12.4465 19.8171 12.5637L15.828 16.459C15.7062 16.5762 15.5093 16.5762 15.3921 16.459L12.5608 13.6934C12.5327 13.6652 12.4812 13.6652 12.453 13.6934L9.62178 16.459C9.4999 16.5762 9.30303 16.5762 9.18584 16.459L5.18271 12.5637C5.06084 12.4465 5.06084 12.2543 5.18271 12.1371L6.06865 11.2746C6.19053 11.1574 6.3874 11.1574 6.50459 11.2746L9.33584 14.0402C9.36397 14.0684 9.41553 14.0684 9.44365 14.0402L12.2749 11.2746C12.3968 11.1574 12.5937 11.1574 12.7108 11.2746L15.5421 14.0402C15.5702 14.0684 15.6218 14.0684 15.6499 14.0402L18.4812 11.2746C18.6124 11.1574 18.8093 11.1574 18.9312 11.2746Z" fill="white"/>
<defs>
<radialGradient id="paint0_radial_111_2052" cx="0" cy="0" r="1" gradientUnits="userSpaceOnUse" gradientTransform="translate(0.500074 12.0004) scale(24)">
<stop stop-color="#5D9DF6"/>
<stop offset="1" stop-color="#006FFF"/>
</radialGradient>
</defs>
</svg>
